<svg width="278" height="144" viewBox="0 0 278 144" fill="none" xmlns="http://www.w3.org/2000/svg">
<path d="M262.502 110.934H250.973C251.738 108.033 252.155 104.977 252.155 101.814C252.155 83.2288 238.03 68.1622 220.605 68.1622C220.104 68.1622 219.606 68.1781 219.11 68.2027C215.753 42.3029 194.927 22.3552 169.723 22.3552C164.365 22.3552 159.208 23.2662 154.37 24.9344C142.82 9.72804 125.18 0 105.402 0C70.608 0 42.402 30.0864 42.402 67.2C42.402 68.9589 42.485 70.6976 42.61 72.4235C32.957 78.1782 26.426 89.1797 26.426 101.813C26.426 104.976 26.844 108.032 27.608 110.933H15.5C6.94 110.933 0 118.336 0 127.467C0 136.598 6.939 144 15.5 144H262.5C271.061 144 278 136.598 278 127.467C278.002 118.337 271.062 110.934 262.502 110.934Z" fill="url(#paint0_linear_757_7284)"/>
<path d="M177 71.6386C176.139 79.9579 170.203 86.3982 163.009 86.3982C155.765 86.3982 149.797 79.8694 149 71.4648" stroke="#747F97" stroke-width="3" stroke-miterlimit="10" stroke-linecap="round"/>
<path d="M92 71.6386C92.8618 79.9579 98.7975 86.3982 105.992 86.3982C113.236 86.3982 119.204 79.8694 120 71.4648" stroke="#747F97" stroke-width="3" stroke-miterlimit="10" stroke-linecap="round"/>
<path d="M150.38 117.685C149.401 109.258 142.665 102.734 134.501 102.734C126.28 102.734 119.507 109.349 118.605 117.86" stroke="#747F97" stroke-width="3" stroke-miterlimit="10" stroke-linecap="round"/>
<defs>
<linearGradient id="paint0_linear_757_7284" x1="229" y1="37.8667" x2="-7.21487" y2="166.483" gradientUnits="userSpaceOnUse">
<stop stop-color="#E9EDF5"/>
<stop offset="1" stop-color="#C5CFE2"/>
</linearGradient>
</defs>
</svg>
