<svg width="427" height="160" viewBox="0 0 427 160" fill="none" xmlns="http://www.w3.org/2000/svg">
<path d="M423.511 55.2764H368.014C366.089 55.2764 364.527 53.6392 364.527 51.619V19.3723C364.527 17.3526 366.088 15.7148 368.014 15.7148H423.511C425.437 15.7148 426.998 17.3521 426.998 19.3723V51.619C426.998 53.6392 425.437 55.2764 423.511 55.2764Z" fill="#BBCDFF"/>
<path d="M371.84 21.5391V47.3741C371.84 48.2162 372.491 48.8992 373.294 48.8992H410.524" stroke="white" stroke-width="0.925725" stroke-miterlimit="10" stroke-linecap="round"/>
<path d="M374.918 43.3276C374.918 43.3276 377.88 34.4539 382.262 34.4539C386.644 34.4539 386.362 40.7286 389.201 40.7286C392.528 40.7286 393.248 27.868 397.074 27.868C400.9 27.868 400.53 36.5335 402.629 36.5335C404.727 36.5335 404.789 26.5508 407.257 26.5508" stroke="#6681D8" stroke-width="1.85149" stroke-miterlimit="10" stroke-linecap="round"/>
<path d="M411.113 26.5526C411.113 27.5481 410.344 28.3552 409.394 28.3552C408.445 28.3552 407.676 27.5481 407.676 26.5526C407.676 25.5571 408.445 24.75 409.394 24.75C410.344 24.75 411.113 25.5571 411.113 26.5526Z" stroke="#E05858" stroke-width="1.38861" stroke-miterlimit="10" stroke-linecap="round"/>
<path d="M423.133 28.1689H417.713C417.294 28.1689 416.953 27.8121 416.953 27.3716C416.953 26.9315 417.293 26.5742 417.713 26.5742H423.133C423.553 26.5742 423.894 26.931 423.894 27.3716C423.894 27.8121 423.553 28.1689 423.133 28.1689Z" fill="white"/>
<path d="M423.133 33.5517H417.713C417.294 33.5517 416.953 33.1949 416.953 32.7544C416.953 32.3143 417.293 31.957 417.713 31.957H423.133C423.553 31.957 423.894 32.3138 423.894 32.7544C423.894 33.1949 423.553 33.5517 423.133 33.5517Z" fill="white"/>
<path d="M423.133 38.9853H417.713C417.294 38.9853 416.953 38.6285 416.953 38.188C416.953 37.7479 417.293 37.3906 417.713 37.3906H423.133C423.553 37.3906 423.894 37.7474 423.894 38.188C423.894 38.6281 423.553 38.9853 423.133 38.9853Z" fill="white"/>
<path d="M423.133 44.415H417.713C417.294 44.415 416.953 44.0582 416.953 43.6177C416.953 43.1775 417.293 42.8203 417.713 42.8203H423.133C423.553 42.8203 423.894 43.1771 423.894 43.6177C423.894 44.0578 423.553 44.415 423.133 44.415Z" fill="white"/>
<path d="M230.141 40.9679C220.93 40.9679 213.438 33.1071 213.438 23.4452C213.438 13.7826 220.93 5.92188 230.141 5.92188C239.353 5.92188 246.845 13.7826 246.845 23.4452C246.846 33.1071 239.353 40.9679 230.141 40.9679ZM230.141 15.0109C225.708 15.0109 222.1 18.7948 222.1 23.4458C222.1 28.0962 225.708 31.8801 230.141 31.8801C234.575 31.8801 238.183 28.0962 238.183 23.4458C238.183 18.7942 234.575 15.0109 230.141 15.0109Z" fill="url(#paint0_linear_1205_12098)"/>
<path d="M235.006 10.4669H225.82V1.28797C225.82 0.576604 226.37 0 227.048 0H233.778C234.456 0 235.006 0.576604 235.006 1.28797V10.4669Z" fill="url(#paint1_linear_1205_12098)"/>
<path d="M233.778 46.8887H227.048C226.37 46.8887 225.82 46.3121 225.82 45.6008V36.4219H235.006V45.6008C235.006 46.3121 234.456 46.8887 233.778 46.8887Z" fill="url(#paint2_linear_1205_12098)"/>
<path d="M218.041 18.6289V28.2644H209.29C208.612 28.2644 208.062 27.6878 208.062 26.9764V19.9169C208.062 19.2055 208.612 18.6289 209.29 18.6289H218.041Z" fill="url(#paint3_linear_1205_12098)"/>
<path d="M252.763 19.9169V26.9764C252.763 27.6878 252.214 28.2644 251.535 28.2644H242.785V18.6289H251.535C252.214 18.6289 252.763 19.2055 252.763 19.9169Z" fill="url(#paint4_linear_1205_12098)"/>
<path d="M224.914 10.86L218.418 17.6734L212.231 11.1831C211.751 10.6804 211.751 9.86437 212.231 9.36161L216.99 4.36972C217.47 3.86634 218.247 3.86634 218.726 4.36972L224.914 10.86Z" fill="url(#paint5_linear_1205_12098)"/>
<path d="M248.597 37.5267L243.838 42.5186C243.358 43.0219 242.581 43.0219 242.101 42.5186L235.914 36.0282L242.409 29.2148L248.597 35.7052C249.076 36.2079 249.076 37.0239 248.597 37.5267Z" fill="url(#paint6_linear_1205_12098)"/>
<path d="M242.409 17.6734L235.914 10.86L242.101 4.36972C242.581 3.86634 243.359 3.86634 243.838 4.36972L248.597 9.36161C249.076 9.86498 249.076 10.6804 248.597 11.1831L242.409 17.6734Z" fill="url(#paint7_linear_1205_12098)"/>
<path d="M216.99 42.5186L212.231 37.5267C211.751 37.0233 211.751 36.2079 212.231 35.7052L218.418 29.2148L224.914 36.0282L218.726 42.5186C218.246 43.0213 217.469 43.0213 216.99 42.5186Z" fill="url(#paint8_linear_1205_12098)"/>
<path d="M43.1467 18.0938L59.9762 68.1388H17.0078L0 18.0938H43.1467Z" fill="#CBEAED"/>
<path d="M13.5977 28.4883H39.5165" stroke="#11575E" stroke-width="0.587395" stroke-miterlimit="10"/>
<path d="M16.375 37.582H42.2939" stroke="#11575E" stroke-width="0.587395" stroke-miterlimit="10"/>
<path d="M19.793 46.6758H45.7119" stroke="#11575E" stroke-width="0.587395" stroke-miterlimit="10"/>
<path d="M23.7266 55.7695H49.6455" stroke="#11575E" stroke-width="0.587395" stroke-miterlimit="10"/>
<path d="M175.434 46.4119H141.895C139.435 46.4119 137.441 44.3203 137.441 41.7406V6.55801C137.441 3.97775 139.435 1.88672 141.895 1.88672H175.434C177.894 1.88672 179.888 3.97837 179.888 6.55801V41.7406C179.888 44.3203 177.894 46.4119 175.434 46.4119Z" fill="#CBEAED"/>
<path d="M158.662 11.6289V24.1505L148.445 30.6002C150.535 34.234 154.322 36.6721 158.663 36.6721C165.255 36.6721 170.6 31.066 170.6 24.1511C170.599 17.2356 165.255 11.6289 158.662 11.6289Z" fill="#58DAE0"/>
<path d="M149.703 15.8945C147.856 18.0994 146.727 20.9824 146.727 24.1491C146.727 25.7134 147.01 27.2044 147.513 28.5829L156.62 23.0618L149.703 15.8945Z" fill="#1E89AA"/>
<path d="M205.682 90.3406L167.697 86.0478C167.697 86.0478 163.027 73.9114 172.572 69.0968C182.116 64.2821 180.324 51.883 195.448 54.4103C206.31 56.2251 209.204 70.6586 206.429 77.7003C204.117 83.5648 205.682 90.3406 205.682 90.3406Z" fill="black" stroke="black" stroke-width="0.0866408" stroke-miterlimit="10"/>
<path d="M204.213 69.8949C203.655 64.479 199.64 60.0569 194.476 59.4859C192.908 59.3123 191.26 59.4951 189.652 60.2914C186.897 61.6551 185.401 65.1405 184.589 68.6826C184.131 70.6801 183.921 72.7311 183.881 74.7852L183.453 96.61C185.238 104.009 195.611 106.266 197.787 98.2567L197.805 86.5001C204.476 84.6269 204.84 75.9754 204.213 69.8949Z" fill="#FFC9C5"/>
<path d="M186.542 72.3434C186.523 74.2738 185.378 75.827 183.983 75.8123C182.588 75.7969 181.474 74.2197 181.492 72.2893C181.511 70.3589 182.657 68.8056 184.051 68.8204C185.446 68.8358 186.56 70.4124 186.542 72.3434Z" fill="#E07873"/>
<path d="M183.364 71.8717C183.357 71.8292 183.39 71.7849 183.466 71.74C183.541 71.6895 183.66 71.6507 183.823 71.6569C183.983 71.6575 184.178 71.7221 184.359 71.8464C184.53 71.9781 184.692 72.1584 184.797 72.367C185.219 73.2132 185.076 73.9492 184.927 73.9541C184.755 73.9762 184.603 73.3086 184.277 72.6772C184.112 72.3609 183.925 72.183 183.738 72.0914C183.553 71.988 183.378 71.9714 183.364 71.8717Z" fill="black"/>
<path d="M197.804 86.4995C197.804 86.4995 194.698 87.6145 190.41 84.5586C190.41 84.5586 192.779 89.8071 197.788 91.7295L197.804 86.4995Z" fill="black"/>
<path d="M187.578 62.3613C187.578 62.3613 189.09 60.0149 193.714 63.5933C196.154 65.4813 202.739 66.1551 205.062 65.2394C205.062 65.2394 195.687 53.2969 187.348 58.6857C176.354 65.7896 179.498 87.3657 179.498 87.3657L185.721 88.0642C185.721 88.0642 188.444 79.7487 185.022 72.9845C183.933 70.8326 188.267 70.675 187.578 62.3613Z" fill="black" stroke="black" stroke-width="0.0891666" stroke-miterlimit="10"/>
<path d="M186.538 72.3434C186.519 74.2738 185.374 75.827 183.979 75.8123C182.584 75.7969 181.47 74.2197 181.489 72.2893C181.507 70.3589 182.653 68.8056 184.047 68.8204C185.442 68.8358 186.557 70.4124 186.538 72.3434Z" fill="#FFC9C5"/>
<path d="M183.36 71.8717C183.353 71.8292 183.386 71.7849 183.462 71.74C183.537 71.6895 183.656 71.6507 183.819 71.6569C183.979 71.6575 184.174 71.7221 184.356 71.8464C184.526 71.9781 184.688 72.1584 184.793 72.367C185.215 73.2132 185.072 73.9492 184.923 73.9541C184.752 73.9762 184.6 73.3086 184.273 72.6772C184.109 72.3609 183.921 72.183 183.734 72.0914C183.549 71.988 183.375 71.9714 183.36 71.8717Z" fill="black"/>
<path d="M261.806 27.7714C262.429 26.6293 266.338 23.4706 265.575 22.9764C265.116 22.6786 261.259 25.7764 261.259 25.7764C261.259 25.7764 262.403 24.2748 264.106 22.657C265.335 21.4897 264.874 21.1365 264.874 21.1365C263.934 20.5789 260.076 24.5272 260.076 24.5272C260.076 24.5272 260.8 23.3703 261.475 22.6453C262.151 21.9204 262.633 20.6115 262.243 20.4934C261.199 20.1771 257.151 25.7733 257.151 25.7733C257.151 25.7733 256.761 26.3868 256.738 24.2367C256.715 22.0866 255.807 22.3364 255.807 22.3364C255.807 22.3364 255.119 25.4674 254.633 26.7197C254.539 26.9646 254.149 27.8834 253.777 28.756L253.769 28.7498L233.674 67.1853C232.371 69.9803 206.687 93.3189 206.348 95.1896C204.808 103.665 213.497 106.847 219.477 104.654C221.192 104.025 240.745 77.2589 242.587 75.2067C249.274 67.7551 259.822 33.5202 259.822 33.5202L259.813 33.5128C261.394 29.5793 264.924 26.772 264.815 26.0114C264.706 25.2416 261.806 27.7714 261.806 27.7714Z" fill="#FFC9C5"/>
<path d="M241.365 69.5924C241.365 69.8225 239.436 70.009 237.056 70.009C234.675 70.009 232.746 69.8225 232.746 69.5924C232.746 69.3622 234.675 69.1758 237.056 69.1758C239.435 69.1758 241.365 69.3622 241.365 69.5924Z" fill="#6C2721"/>
<path d="M161.662 117.055C161.662 117.055 141.838 153.69 147.649 159.426C153.459 165.163 174.309 125.931 174.309 125.931L161.662 117.055Z" fill="#FFC9C5"/>
<path d="M233.686 90.4275L216.213 78.2148L197.836 95.0483C197.137 96.6938 196.028 100.328 190.458 100.214C186.464 100.132 184.627 97.0827 183.411 94.5271C183.411 94.5271 173.939 94.084 172.824 94.7228C160.273 101.912 150.164 135.895 150.164 135.895L165.072 146.565L169.271 138.025L175.124 154.113H202.305L214.916 117.203L233.686 90.4275Z" fill="#90AEE7"/>
<path d="M169.951 135.541C169.733 135.526 169.794 131.823 170.089 127.272C170.383 122.719 170.799 119.043 171.019 119.059C171.237 119.074 171.176 122.776 170.881 127.329C170.586 131.88 170.17 135.557 169.951 135.541Z" fill="black"/>
<path d="M209.445 112.129C209.624 111.978 210.804 113.265 212.454 114.575C214.096 115.899 215.591 116.752 215.499 116.973C215.426 117.178 213.707 116.633 211.973 115.237C210.232 113.852 209.276 112.258 209.445 112.129Z" fill="black"/>
<path d="M183.411 94.5273L190.459 100.214L188.977 108.376L181.062 94.5273H183.411Z" fill="white"/>
<path d="M197.835 95.05L199.382 93.6328L192.367 107.927L190.457 100.215L197.835 95.05Z" fill="white"/>
<path d="M199.378 119.013C199.446 117.864 191.714 118.978 189.865 119.624C188.017 120.27 182.02 125.931 182.02 125.931L150.159 147.453L148.621 159.957C148.621 159.957 154.211 161.222 171.013 147.453C176.423 143.018 182.775 135.344 187.231 129.865L191.592 126.234L196.525 124.659C200.08 123.349 193.995 123 193.995 123C193.995 123 197.647 122.457 198.094 122.274C200.4 121.334 194.811 121.286 194.811 121.286C194.811 121.286 199.31 120.163 199.378 119.013Z" fill="#FFC9C5"/>
<path d="M153.261 145.1C153.161 144.886 155.777 143.358 158.913 141.335C162.056 139.321 164.542 137.57 164.678 137.76C164.808 137.936 162.51 140.006 159.329 142.046C156.153 144.092 153.351 145.301 153.261 145.1Z" fill="#6C2721"/>
<path d="M198.346 151.965L207.235 151.742V153.904H195.582C196.07 152.751 197.146 151.996 198.346 151.965Z" fill="#C64F4F"/>
<path d="M249.114 122.317L249.074 122.519L242.916 151.943C242.678 153.088 241.711 153.907 240.591 153.907H205.235C204.881 153.907 204.617 153.563 204.693 153.196L210.819 123.909C211.132 122.412 212.391 121.348 213.847 121.348H248.37C248.859 121.347 249.217 121.818 249.114 122.317Z" fill="#C64F4F"/>
<path d="M249.076 122.52L242.918 151.944C242.681 153.088 241.713 153.907 240.594 153.907H206.07L212.335 123.951C212.51 123.118 213.213 122.52 214.024 122.52H249.076V122.52Z" fill="#F7A08D"/>
<path d="M231.035 139.46C230.695 141.041 229.284 142.267 227.884 142.199C226.484 142.131 225.625 140.795 225.965 139.214C226.305 137.634 227.717 136.407 229.116 136.475C230.517 136.543 231.376 137.88 231.035 139.46Z" fill="#FFB8B8"/>
<path d="M113.731 135.125L95.1722 135.542L78.375 158.366L114.687 159.988L113.731 135.125Z" fill="#FCD3A2"/>
<path d="M121.574 134.906C121.574 134.906 130.907 146.328 132.905 159.988L98.8438 156.995L97.3672 135.488L121.574 134.906Z" fill="#FDEBD7"/>
<path d="M27.385 30.2735C27.05 28.9708 27.6009 30.0994 32.0306 32.8987C33.6996 33.9534 35.4454 34.3928 37.1824 36.9565C44.8481 48.2701 61.6265 70.7994 61.6265 70.7994L88.8413 74.187L84.0309 87.2729C84.0309 87.2729 61.4664 83.4712 58.9761 82.7752C51.5598 80.7014 34.8112 46.1335 32.2899 39.4346L27.3697 35.9368C24.4125 33.4882 29.3485 35.5805 29.3485 35.5805C29.3485 35.5805 27.6871 34.5128 27.3122 34.1977C25.2701 32.4809 30.5341 34.1867 30.6326 34.2144C30.632 34.2131 27.6572 31.3326 27.385 30.2735Z" fill="#FFC9C5"/>
<path d="M22.2109 37.0987L45.578 29.2773" stroke="#121B60" stroke-width="2.34958" stroke-miterlimit="10"/>
<path d="M21.8449 35.9336L22.5924 38.2431L20.7859 37.6985C20.6979 37.672 20.6627 37.5606 20.7178 37.4837L21.8449 35.9336Z" fill="#979EC9"/>
<path d="M21.1036 36.9531L20.7183 37.483C20.6625 37.5599 20.6977 37.6713 20.7864 37.6977L21.3556 37.8688L21.1036 36.9531Z" fill="#121B60"/>
<path d="M33.8956 34.8425C33.8956 34.8425 27.5128 31.3712 29.8638 34.4597L33.0226 38.2652C33.3564 36.2246 33.8956 34.8425 33.8956 34.8425Z" fill="#E07873"/>
<path d="M27.3036 33.5366C27.6204 33.9834 30.0136 35.552 29.1541 34.0369C29.1541 34.0369 28.1602 32.2542 27.6286 32.3305C26.7562 32.4554 27.0789 33.2191 27.3036 33.5366Z" fill="#E07873"/>
<path d="M27.9559 33.2124C28.2727 33.6592 30.6659 35.2271 29.8064 33.7127C29.8064 33.7127 28.8131 31.93 28.2815 32.0063C27.4085 32.1312 27.7312 32.8949 27.9559 33.2124Z" fill="#E07873"/>
<path d="M26.3819 34.3187C26.7762 34.8326 28.825 36.4984 28.098 34.9089C28.098 34.9089 27.7419 33.8664 27.3077 33.536C26.0363 32.5692 26.1461 34.011 26.3819 34.3187Z" fill="#E07873"/>
<path d="M58.5412 76.1092C58.3628 75.975 59.0123 74.7049 59.991 73.2729C60.9702 71.8403 61.9083 70.788 62.0867 70.9216C62.265 71.0557 61.6161 72.3253 60.6369 73.7578C59.6577 75.1904 58.719 76.2433 58.5412 76.1092Z" fill="black"/>
<path d="M92.4883 65.784L130.693 65.7563C130.693 65.7563 136.568 54.2107 127.566 48.3573C118.565 42.5039 121.604 30.3761 106.311 31.2001C95.3253 31.7921 90.9836 45.8201 93.0286 53.132C94.7316 59.2211 92.4883 65.784 92.4883 65.784Z" fill="black" stroke="black" stroke-width="0.0866408" stroke-miterlimit="10"/>
<path d="M95.9483 45.771C97.0529 40.4487 101.493 36.4998 106.686 36.5078C108.263 36.5103 109.883 36.8764 111.402 37.8475C114.003 39.5115 115.136 43.1434 115.584 46.7568C115.837 48.7937 115.837 50.8571 115.669 52.9038L113.88 74.6522C111.354 81.8096 100.812 82.8958 99.4605 74.6885L100.636 62.9971C94.1925 60.3892 94.7087 51.7469 95.9483 45.771Z" fill="#FFC9C5"/>
<path d="M100.636 62.9952C100.636 62.9952 103.61 64.4506 108.184 61.8906C108.184 61.8906 105.296 66.8444 100.121 68.1976L100.636 62.9952Z" fill="black"/>
<path d="M100.633 62.9985C101.293 63.1234 101.925 63.116 102.552 63.0896C103.179 63.0527 103.798 62.9499 104.415 62.8305C105.034 62.7167 105.647 62.5487 106.272 62.393C106.58 62.3019 106.893 62.2164 107.212 62.1364C107.528 62.0471 107.844 61.9542 108.181 61.8945C107.926 62.1259 107.65 62.3247 107.374 62.5265C107.085 62.7019 106.794 62.8785 106.49 63.0293C105.877 63.3142 105.239 63.5628 104.567 63.6822C103.9 63.8139 103.208 63.8557 102.527 63.7628C101.853 63.6637 101.161 63.4576 100.633 62.9985Z" fill="black"/>
<path d="M113.275 50.176C113.097 52.0978 114.079 53.7698 115.467 53.9113C116.855 54.0522 118.123 52.6086 118.3 50.6861C118.478 48.7643 117.496 47.0924 116.108 46.9508C114.721 46.8105 113.452 48.2542 113.275 50.176Z" fill="#E07873"/>
<path d="M116.478 50.0646C116.454 50.1625 116.279 50.1594 116.084 50.2412C115.889 50.3114 115.684 50.4671 115.488 50.7637C115.1 51.3545 114.881 52.0018 114.713 51.9606C114.565 51.9391 114.497 51.1914 115.004 50.3975C115.129 50.2019 115.309 50.0406 115.491 49.9286C115.684 49.8253 115.885 49.7834 116.045 49.8006C116.207 49.8129 116.321 49.8646 116.391 49.9231C116.462 49.9754 116.49 50.0234 116.478 50.0646Z" fill="black"/>
<path d="M113.326 39.9869C113.326 39.9869 112.06 37.4848 107.099 40.5272C104.481 42.1321 97.8659 42.0668 95.6484 40.897C95.6484 40.897 106.182 30.0689 113.927 36.3586C124.137 44.6495 118.822 65.7525 118.822 65.7525H112.564C112.564 65.7525 110.699 57.1804 114.789 50.8365C116.09 48.8175 111.797 48.1762 113.326 39.9869Z" fill="black" stroke="black" stroke-width="0.0891666" stroke-miterlimit="10"/>
<path d="M113.345 50.0271C113.168 51.9489 114.149 53.6209 115.537 53.7624C116.925 53.9027 118.193 52.459 118.371 50.5372C118.548 48.6154 117.566 46.9435 116.179 46.8025C114.791 46.661 113.522 48.1053 113.345 50.0271Z" fill="#E07873"/>
<path d="M116.552 49.9123C116.528 50.0101 116.353 50.0071 116.158 50.0889C115.962 50.1591 115.759 50.3147 115.563 50.6114C115.174 51.2021 114.955 51.8495 114.787 51.8082C114.639 51.7867 114.572 51.039 115.077 50.2452C115.203 50.0495 115.383 49.8883 115.565 49.7763C115.758 49.6729 115.959 49.6311 116.118 49.6483C116.281 49.6606 116.395 49.7123 116.464 49.7708C116.536 49.8231 116.564 49.8711 116.552 49.9123Z" fill="black"/>
<path d="M144.229 110.447C144.229 110.447 143.281 74.4025 128.74 72.5232C125.096 72.0524 114.053 72.5232 114.053 72.5232C114.053 72.5232 113.25 77.5138 106.338 77.2498C102.013 77.0849 99.7416 71.8617 99.7416 71.8617L70.0605 70.3398L66.3125 89.857L85.5496 99.2568L95.1763 135.543L121.579 134.908L127.121 107.375L144.229 110.447Z" fill="#90AEE7"/>
<path d="M86.4939 100.702C86.2763 100.728 85.8574 98.5545 85.5593 95.8481C85.2613 93.1405 85.1961 90.9251 85.4138 90.8987C85.6315 90.8722 86.0498 93.0451 86.3484 95.7521C86.6465 98.4591 86.7116 100.675 86.4939 100.702Z" fill="black"/>
<path d="M125.801 110.899C125.583 110.869 125.953 106.444 126.626 101.015C127.3 95.5854 128.022 91.2089 128.24 91.2384C128.457 91.268 128.088 95.6925 127.414 101.123C126.741 106.551 126.018 110.928 125.801 110.899Z" fill="black"/>
<path d="M106.336 77.2514L104.722 82.999L97.3008 71.7383L99.7394 71.8632L106.336 77.2514Z" fill="white"/>
<path d="M106.336 77.2505L114.05 72.5238L117.51 72.4062L109.539 83.4712L106.336 77.2505Z" fill="white"/>
<path d="M77.2916 119.477C76.0379 119.42 71.404 121.198 71.4134 120.257C71.4193 119.691 75.9757 117.926 75.9757 117.926C75.9757 117.926 74.1542 118.138 71.9408 118.784C70.3434 119.25 70.3047 118.652 70.3047 118.652C70.3575 117.521 75.6003 116.209 75.6003 116.209C75.6003 116.209 74.2815 116.233 73.3364 116.445C72.3914 116.657 71.0785 116.385 71.1917 115.976C71.495 114.881 78.1674 114.282 78.1674 114.282C78.1674 114.282 78.8696 114.264 77.1496 113.095C75.4296 111.925 76.1159 111.253 76.1159 111.253C76.1159 111.253 79.0069 112.316 80.2746 112.555C80.5222 112.602 81.4714 112.748 82.373 112.884L82.3719 112.874L123.005 116.241C125.954 116.579 130.537 91.1288 132.226 91.8266C139.878 94.9896 141.038 96.5502 142.323 103.058C143.175 107.37 130.836 129.049 128.198 129.586C118.62 131.533 82.982 120.79 82.982 120.79L82.9814 120.777C78.9664 120.078 74.8183 121.707 74.2633 121.204C73.7031 120.697 77.2916 119.477 77.2916 119.477Z" fill="#FFC9C5"/>
<path d="M127.353 118.487C127.299 118.702 126.041 118.518 124.726 117.682C123.407 116.852 122.664 115.771 122.822 115.621C122.984 115.455 123.916 116.204 125.136 116.969C126.349 117.743 127.417 118.259 127.353 118.487Z" fill="black"/>
<path d="M128.738 116.661C128.705 116.888 127.594 116.901 126.257 116.689C124.92 116.478 123.862 116.122 123.895 115.894C123.928 115.667 125.038 115.654 126.376 115.866C127.713 116.077 128.771 116.433 128.738 116.661Z" fill="black"/>
<path d="M144.224 110.444L119.09 106.094L125.086 88.0273L141.101 91.2347L144.224 110.444Z" fill="#90AEE7"/>
<path d="M364.767 154.238H44.7227V159.996H364.767V154.238Z" fill="#C15B51"/>
<path d="M363.308 26.0441C364.708 24.5254 366.863 22.0651 366.482 21.702C366.335 21.5623 365.795 21.7691 365.157 22.0934L365.172 22.0639C365.172 22.0639 366.061 21.3174 366.198 20.9599C366.7 19.6559 364.894 20.7156 364.894 20.7156C364.894 20.7156 365.702 20.1033 365.629 19.6055C365.466 18.5027 364.006 20.1021 363.916 20.1513C363.916 20.1513 366.223 16.6615 366.27 15.5656C366.327 14.2173 366.023 15.4449 362.279 19.1864C361.974 19.491 361.66 19.7679 361.343 20.0448L361.311 16.5218C361.428 12.5718 358.736 22.9802 358.736 22.9802L358.738 22.982C358.511 23.3758 358.294 23.8152 358.091 24.3211C356.96 27.1358 355.76 29.5757 352.669 33.6335L334.284 58.0563L310.883 75.5717L315.693 88.6569C315.693 88.6569 334.575 71.5914 336.934 70.0308C342.682 66.2297 355.376 44.8191 359.963 35.3073L359.965 35.3079C361.996 31.1535 362.96 27.9481 363.308 26.0441Z" fill="#FFC9C5"/>
<path d="M341.576 58.2793C341.592 58.5039 339.75 58.8196 337.463 58.7304C335.175 58.6473 333.36 58.1938 333.391 57.9704C333.422 57.7378 335.249 57.8166 337.492 57.8978C339.733 57.9858 341.562 58.0449 341.576 58.2793Z" fill="#6C2721"/>
<path d="M261.742 93.125C261.742 93.125 245.924 131.845 252.306 136.868C258.689 141.891 275.251 100.472 275.251 100.472L261.742 93.125Z" fill="#FFC9C5"/>
<path d="M305.654 67.1355L267.45 67.1079C267.45 67.1079 261.575 55.5623 270.576 49.7088C279.578 43.8554 276.538 31.7277 291.832 32.5517C302.817 33.1437 307.159 47.1717 305.114 54.4835C303.411 60.5726 305.654 67.1355 305.654 67.1355Z" fill="black" stroke="black" stroke-width="0.0866408" stroke-miterlimit="10"/>
<path d="M302.119 46.9741C301.014 41.6518 296.574 37.7029 291.381 37.7109C289.804 37.714 288.184 38.0796 286.666 39.0506C284.065 40.7146 282.931 44.3465 282.483 47.96C282.23 49.9968 282.23 52.0602 282.399 54.1069L284.187 75.8554C286.713 83.0134 297.255 84.0989 298.607 75.8917L297.432 64.2002C303.875 61.5929 303.359 52.95 302.119 46.9741Z" fill="#FFC9C5"/>
<path d="M297.435 64.1983C297.435 64.1983 294.461 65.6537 289.887 63.0938C289.887 63.0938 292.774 68.0481 297.95 69.4007L297.435 64.1983Z" fill="black"/>
<path d="M297.434 64.2016C296.906 64.6613 296.214 64.8675 295.541 64.9659C294.859 65.0588 294.168 65.0164 293.5 64.8853C292.828 64.7659 292.19 64.5167 291.577 64.2324C291.274 64.0816 290.983 63.905 290.694 63.7296C290.417 63.5278 290.141 63.329 289.887 63.0977C290.224 63.1573 290.541 63.2497 290.856 63.3395C291.174 63.4195 291.488 63.505 291.796 63.5961C292.421 63.7518 293.034 63.9204 293.653 64.0336C294.27 64.1536 294.888 64.2564 295.516 64.2927C296.141 64.3192 296.774 64.3265 297.434 64.2016Z" fill="black"/>
<path d="M284.796 51.3786C284.974 53.3004 283.992 54.9723 282.604 55.1139C281.216 55.2542 279.948 53.8105 279.771 51.8887C279.593 49.9669 280.575 48.295 281.963 48.154C283.35 48.0131 284.619 49.4568 284.796 51.3786Z" fill="#E07873"/>
<path d="M281.585 51.2683C281.573 51.2271 281.601 51.1791 281.672 51.1262C281.742 51.0677 281.856 51.016 282.018 51.0037C282.177 50.9865 282.378 51.029 282.571 51.1317C282.754 51.2431 282.934 51.405 283.059 51.6006C283.565 52.3945 283.498 53.1428 283.349 53.1637C283.182 53.2049 282.962 52.5575 282.574 51.9668C282.378 51.6708 282.174 51.5151 281.978 51.445C281.784 51.3631 281.609 51.3662 281.585 51.2683Z" fill="black"/>
<path d="M284.821 41.3384C284.821 41.3384 286.086 38.8363 291.048 41.8787C293.665 43.4836 300.281 43.4184 302.498 42.2486C302.498 42.2486 291.965 31.4205 284.219 37.7102C274.009 46.0011 279.324 67.104 279.324 67.104H285.582C285.582 67.104 287.447 58.5319 283.357 52.1881C282.056 50.1684 286.349 49.5278 284.821 41.3384Z" fill="black" stroke="black" stroke-width="0.0891666" stroke-miterlimit="10"/>
<path d="M284.8 51.3791C284.978 53.3009 283.996 54.9729 282.608 55.1138C281.22 55.2541 279.952 53.8104 279.775 51.8886C279.597 49.9668 280.579 48.2949 281.967 48.154C283.354 48.0136 284.623 49.4573 284.8 51.3791Z" fill="#FFC9C5"/>
<path d="M281.589 51.2644C281.577 51.2232 281.605 51.1752 281.676 51.1223C281.746 51.0638 281.86 51.0121 282.022 50.9998C282.181 50.9826 282.382 51.0251 282.575 51.1278C282.758 51.2392 282.938 51.401 283.063 51.5967C283.569 52.3906 283.502 53.1389 283.353 53.1598C283.186 53.201 282.966 52.5536 282.578 51.9629C282.382 51.6669 282.178 51.5112 281.982 51.441C281.788 51.3592 281.613 51.3623 281.589 51.2644Z" fill="black"/>
<path d="M302.924 133.676L313.42 156.52C313.42 156.52 289.962 158.833 289.011 158.153C288.06 157.473 287.176 133.695 287.176 133.695L302.924 133.676Z" fill="#FCD3A2"/>
<path d="M275.747 133.676H298.208L292.547 158.278L261.523 158.143C261.523 158.143 263.725 144.213 275.747 133.676Z" fill="#FDEBD7"/>
<path d="M320.724 63.6328L298.276 72.5717C298.276 72.5717 297.629 76.7445 292.229 77.9414C288.86 78.6885 285.252 76.6442 284.036 74.088C284.036 74.088 274.564 73.6449 273.449 74.2837C260.897 81.4724 250.789 115.456 250.789 115.456L265.697 126.126L269.896 117.586L275.749 133.674H302.93L314.647 99.3803L327.482 82.2367L320.724 63.6328Z" fill="#90AEE7"/>
<path d="M284.039 74.0898H281.656L292.591 86.0188L292.9 77.7544L284.039 74.0898Z" fill="white"/>
<path d="M298.282 72.5722L292.902 77.753L295.15 85.7928L299.836 71.9531L298.282 72.5722Z" fill="white"/>
<path d="M269.621 119.032C269.405 119.068 268.725 115.798 268.104 111.729C267.483 107.658 267.155 104.33 267.371 104.293C267.588 104.257 268.267 107.526 268.889 111.597C269.51 115.667 269.838 118.996 269.621 119.032Z" fill="black"/>
<path d="M315.376 98.3445C315.237 98.5162 313.965 97.6159 312.72 96.1434C311.47 94.6745 310.767 93.2437 310.946 93.1194C311.131 92.9877 312.103 94.168 313.314 95.5895C314.517 97.0166 315.522 98.1667 315.376 98.3445Z" fill="black"/>
<path d="M324.709 110.296C325.187 109.035 316.135 107.317 313.839 107.332C311.543 107.348 302.851 111.389 302.851 111.389L259.653 123.281L253.312 137.283C253.312 137.283 263.572 139.411 307.319 117.795L313.469 115.4L319.546 115.528C323.984 115.423 317.29 112.698 317.29 112.698C317.29 112.698 321.57 113.491 322.135 113.458C325.046 113.288 318.801 111.092 318.801 111.092C318.801 111.092 324.232 111.557 324.709 110.296Z" fill="#FFC9C5"/>
<path d="M271.405 120.048C271.429 120.163 270.628 120.457 269.336 120.921C267.967 121.409 266.216 122.033 264.28 122.723C260.329 124.134 257.1 125.227 257.021 125.006C256.946 124.796 260.054 123.352 264.025 121.934C266.01 121.229 267.837 120.674 269.182 120.355C270.526 120.031 271.382 119.939 271.405 120.048Z" fill="#6C2721"/>
<defs>
<linearGradient id="paint0_linear_1205_12098" x1="230.141" y1="5.92187" x2="230.141" y2="40.9679" gradientUnits="userSpaceOnUse">
<stop stop-color="#A3A6F3"/>
<stop offset="1" stop-color="#9195FB"/>
</linearGradient>
<linearGradient id="paint1_linear_1205_12098" x1="230.413" y1="0" x2="230.413" y2="10.4669" gradientUnits="userSpaceOnUse">
<stop stop-color="#A3A6F3"/>
<stop offset="1" stop-color="#9195FB"/>
</linearGradient>
<linearGradient id="paint2_linear_1205_12098" x1="230.413" y1="36.4219" x2="230.413" y2="46.8887" gradientUnits="userSpaceOnUse">
<stop stop-color="#A3A6F3"/>
<stop offset="1" stop-color="#9195FB"/>
</linearGradient>
<linearGradient id="paint3_linear_1205_12098" x1="213.052" y1="18.6289" x2="213.052" y2="28.2644" gradientUnits="userSpaceOnUse">
<stop stop-color="#A3A6F3"/>
<stop offset="1" stop-color="#9195FB"/>
</linearGradient>
<linearGradient id="paint4_linear_1205_12098" x1="247.774" y1="18.6289" x2="247.774" y2="28.2644" gradientUnits="userSpaceOnUse">
<stop stop-color="#A3A6F3"/>
<stop offset="1" stop-color="#9195FB"/>
</linearGradient>
<linearGradient id="paint5_linear_1205_12098" x1="218.392" y1="3.99219" x2="218.392" y2="17.6734" gradientUnits="userSpaceOnUse">
<stop stop-color="#A3A6F3"/>
<stop offset="1" stop-color="#9195FB"/>
</linearGradient>
<linearGradient id="paint6_linear_1205_12098" x1="242.435" y1="29.2148" x2="242.435" y2="42.8961" gradientUnits="userSpaceOnUse">
<stop stop-color="#A3A6F3"/>
<stop offset="1" stop-color="#9195FB"/>
</linearGradient>
<linearGradient id="paint7_linear_1205_12098" x1="242.435" y1="3.99219" x2="242.435" y2="17.6734" gradientUnits="userSpaceOnUse">
<stop stop-color="#A3A6F3"/>
<stop offset="1" stop-color="#9195FB"/>
</linearGradient>
<linearGradient id="paint8_linear_1205_12098" x1="218.392" y1="29.2148" x2="218.392" y2="42.8956" gradientUnits="userSpaceOnUse">
<stop stop-color="#A3A6F3"/>
<stop offset="1" stop-color="#9195FB"/>
</linearGradient>
</defs>
</svg>
