<svg width="168" height="132" viewBox="0 0 168 132" fill="none" xmlns="http://www.w3.org/2000/svg">
<path d="M54.8746 21.7403L39.8013 99.2353L37.8281 109.38L138.454 108.883C142.97 108.861 146.972 104.851 148.425 98.8939L166.269 25.7305C167.371 21.2078 164.951 16.504 161.523 16.5078L59.6778 16.6148C57.4292 16.6178 55.4633 18.7159 54.8746 21.7403Z" fill="#5085E8"/>
<g opacity="0.5">
<path d="M54.8746 21.7403L39.8013 99.2353L37.8281 109.38L138.454 108.883C142.97 108.861 146.972 104.851 148.425 98.8939L166.269 25.7305C167.371 21.2078 164.951 16.504 161.523 16.5078L59.6778 16.6148C57.4292 16.6178 55.4633 18.7159 54.8746 21.7403Z" fill="black"/>
</g>
<path d="M128.801 93.9848L118.146 8.13104C117.71 4.61305 114.908 1.98895 111.599 2.00003L88.2369 2.07634C86.508 2.08188 84.8502 2.81719 83.6217 4.12285L72.5281 15.9155L7.55383 16.2544C3.58315 16.2753 0.532776 20.032 1.05922 24.2533L10.9512 103.604C11.389 107.117 14.1861 109.738 17.4901 109.731L130.727 109.507C143.339 109.769 144.543 106.044 144.543 106.044C130.089 109.247 128.802 93.9946 128.801 93.9848Z" fill="#476BB1"/>
<path d="M23 77H88" stroke="white" stroke-opacity="0.8" stroke-width="2.5"/>
<g opacity="0.8">
<path d="M42.1506 53.8302L40.6394 55.4532L29 44.9824L30.5114 43.3594L42.1506 53.8302Z" fill="white"/>
<path d="M40.0042 43L41.6745 44.5024L31.1429 55.8136L29.4727 54.311L40.0042 43Z" fill="white"/>
</g>
<g opacity="0.8">
<path d="M76.1506 53.8302L74.6394 55.4532L63 44.9824L64.5114 43.3594L76.1506 53.8302Z" fill="white"/>
<path d="M74.0042 43L75.6745 44.5024L65.1429 55.8136L63.4727 54.311L74.0042 43Z" fill="white"/>
</g>
<ellipse cx="84" cy="124" rx="66" ry="8" fill="#D2DBEA"/>
</svg>
