<svg width="24" height="24" viewBox="0 0 24 24" fill="none" xmlns="http://www.w3.org/2000/svg">
<g clip-path="url(#clip0_2018_2918)">
<path d="M12 1C5.9247 1 1 5.9247 1 12C1 18.0753 5.9247 23 12 23C18.0753 23 23 18.0753 23 12C23 5.9247 18.0753 1 12 1Z" stroke="#2A374D" stroke-width="1.5" stroke-linecap="round" stroke-linejoin="round"/>
<path d="M3.5 18.979C3.5 18.979 5.9519 15.8484 12.0019 15.8484C18.0519 15.8484 20.5049 18.979 20.5049 18.979M12.0019 11.9984C12.8771 11.9984 13.7165 11.6508 14.3354 11.0319C14.9542 10.413 15.3019 9.57365 15.3019 8.69844C15.3019 7.82322 14.9542 6.98386 14.3354 6.36499C13.7165 5.74612 12.8771 5.39844 12.0019 5.39844C11.1267 5.39844 10.2873 5.74612 9.66845 6.36499C9.04958 6.98386 8.7019 7.82322 8.7019 8.69844C8.7019 9.57365 9.04958 10.413 9.66845 11.0319C10.2873 11.6508 11.1267 11.9984 12.0019 11.9984Z" stroke="#2A374D" stroke-width="1.5" stroke-linecap="round" stroke-linejoin="round"/>
</g>
<defs>
<clipPath id="clip0_2018_2918">
<rect width="24" height="24" fill="white"/>
</clipPath>
</defs>
</svg>
