<svg width="20" height="20" viewBox="0 0 20 20" fill="none" xmlns="http://www.w3.org/2000/svg">
<circle cx="10" cy="10" r="10" fill="#739FE5"/>
<path d="M14.7709 6.24115C14.7048 6.16474 14.6261 6.10409 14.5394 6.0627C14.4527 6.02131 14.3597 6 14.2657 6C14.1718 6 14.0788 6.02131 13.9921 6.0627C13.9054 6.10409 13.8267 6.16474 13.7605 6.24115L8.45949 12.323L6.23235 9.76311C6.16367 9.68709 6.08259 9.62732 5.99375 9.58721C5.90491 9.5471 5.81004 9.52742 5.71457 9.52932C5.61909 9.53121 5.52488 9.55463 5.4373 9.59824C5.34972 9.64185 5.2705 9.7048 5.20416 9.78349C5.13782 9.86218 5.08565 9.95507 5.05064 10.0569C5.01563 10.1587 4.99846 10.2674 5.00011 10.3767C5.00176 10.4861 5.0222 10.5941 5.06027 10.6944C5.09833 10.7948 5.15327 10.8855 5.22195 10.9616L7.95429 14.0922C8.02044 14.1686 8.09914 14.2292 8.18585 14.2706C8.27256 14.312 8.36556 14.3333 8.45949 14.3333C8.55343 14.3333 8.64643 14.312 8.73314 14.2706C8.81985 14.2292 8.89855 14.1686 8.96469 14.0922L14.7709 7.4396C14.8432 7.36325 14.9008 7.2706 14.9402 7.16747C14.9796 7.06434 15 6.95297 15 6.84038C15 6.72779 14.9796 6.61642 14.9402 6.51329C14.9008 6.41015 14.8432 6.3175 14.7709 6.24115Z" fill="white"/>
</svg>
