<svg width="18" height="18" viewBox="0 0 18 18" fill="none" xmlns="http://www.w3.org/2000/svg">
<path fill-rule="evenodd" clip-rule="evenodd" d="M12.9904 4.82283C13.0615 4.75449 13.1452 4.70083 13.237 4.6649C13.3288 4.62897 13.4268 4.61148 13.5253 4.61343C13.6238 4.61538 13.721 4.63673 13.8113 4.67626C13.9016 4.7158 13.9832 4.77274 14.0514 4.84383L17.5414 8.48083C17.6753 8.62046 17.75 8.80641 17.75 8.99983C17.75 9.19325 17.6753 9.3792 17.5414 9.51883L14.0514 13.1558C13.9832 13.2269 13.9017 13.2838 13.8115 13.3233C13.7212 13.3628 13.6241 13.3842 13.5256 13.3862C13.4272 13.3882 13.3293 13.3708 13.2375 13.335C13.1458 13.2991 13.062 13.2456 12.9909 13.1773C12.9199 13.1091 12.863 13.0276 12.8235 12.9373C12.7839 12.8471 12.7625 12.75 12.7606 12.6515C12.7586 12.5531 12.776 12.4551 12.8118 12.3634C12.8477 12.2717 12.9012 12.1879 12.9694 12.1168L15.2404 9.74983H8.27344C8.07453 9.74983 7.88376 9.67081 7.74311 9.53016C7.60246 9.38951 7.52344 9.19874 7.52344 8.99983C7.52344 8.80092 7.60246 8.61015 7.74311 8.4695C7.88376 8.32885 8.07453 8.24983 8.27344 8.24983H15.2414L12.9694 5.88283C12.8319 5.73931 12.7569 5.54704 12.761 5.34827C12.7652 5.14951 12.848 4.96052 12.9914 4.82283" fill="#505D73"/>
<path fill-rule="evenodd" clip-rule="evenodd" d="M0.25 1C0.25 0.801088 0.329018 0.610322 0.46967 0.46967C0.610322 0.329018 0.801088 0.25 1 0.25H10.455C10.6539 0.25 10.8447 0.329018 10.9853 0.46967C11.126 0.610322 11.205 0.801088 11.205 1V4C11.205 4.19891 11.126 4.38968 10.9853 4.53033C10.8447 4.67098 10.6539 4.75 10.455 4.75C10.2561 4.75 10.0653 4.67098 9.92467 4.53033C9.78402 4.38968 9.705 4.19891 9.705 4V1.75H1.75V16.25H9.704V14C9.704 13.8011 9.78302 13.6103 9.92367 13.4697C10.0643 13.329 10.2551 13.25 10.454 13.25C10.6529 13.25 10.8437 13.329 10.9843 13.4697C11.125 13.6103 11.204 13.8011 11.204 14V17C11.204 17.1989 11.125 17.3897 10.9843 17.5303C10.8437 17.671 10.6529 17.75 10.454 17.75H1C0.801088 17.75 0.610322 17.671 0.46967 17.5303C0.329018 17.3897 0.25 17.1989 0.25 17V1Z" fill="#505D73"/>
</svg>
