<svg width="6" height="9" viewBox="0 0 6 9" fill="none" xmlns="http://www.w3.org/2000/svg">
<path d="M2.35947 6.08811C2.36648 5.68511 2.41208 5.36749 2.49625 5.13525C2.58744 4.90301 2.76281 4.65027 3.02235 4.37705L3.69575 3.70082C3.98334 3.37978 4.12714 3.04167 4.12714 2.68648C4.12714 2.33128 4.03245 2.05464 3.84305 1.85656C3.65366 1.65847 3.38009 1.55943 3.02235 1.55943C2.67863 1.55943 2.39805 1.65164 2.1806 1.83607C1.97016 2.01366 1.86494 2.25615 1.86494 2.56352H0.917969C0.924983 2.01708 1.12139 1.57992 1.50719 1.25205C1.893 0.91735 2.39805 0.75 3.02235 0.75C3.6747 0.75 4.17975 0.920765 4.5375 1.2623C4.90226 1.59699 5.08464 2.06147 5.08464 2.65574C5.08464 3.23634 4.80756 3.81011 4.25341 4.37705L3.68522 4.92008C3.43971 5.19331 3.31696 5.58265 3.31696 6.08811H2.35947ZM2.21216 7.63525C2.21216 7.46448 2.27178 7.32104 2.39103 7.20492C2.5173 7.08197 2.66811 7.02049 2.84347 7.02049C3.01884 7.02049 3.16614 7.08197 3.28539 7.20492C3.41166 7.32104 3.47479 7.46448 3.47479 7.63525C3.47479 7.80601 3.41166 7.94945 3.28539 8.06557C3.16614 8.18852 3.01884 8.25 2.84347 8.25C2.66811 8.25 2.5173 8.18852 2.39103 8.06557C2.27178 7.94945 2.21216 7.80601 2.21216 7.63525Z" fill="#3F4859" stroke="#3F4859" stroke-width="0.2"/>
</svg>
