<svg width="28" height="28" viewBox="0 0 28 28" fill="none" xmlns="http://www.w3.org/2000/svg">
<path fill-rule="evenodd" clip-rule="evenodd" d="M5.69154 9.71834C5.56285 9.63959 5.48438 9.49958 5.48438 9.34871V8.87295C5.48438 8.72196 5.56297 8.58185 5.69182 8.50315L13.9251 3.47395C14.0638 3.38922 14.2383 3.38924 14.377 3.47399L22.6103 8.50538C22.7391 8.5841 22.8177 8.72418 22.8177 8.87514V9.3509C22.8177 9.5018 22.7392 9.64184 22.6105 9.72057L14.3772 14.7562C14.2384 14.8411 14.0637 14.8411 13.9249 14.7561L5.69154 9.71834ZM8.06832 9.49152C7.77725 9.32513 7.7773 8.90539 8.06841 8.73907L13.9361 5.38668C14.0693 5.31057 14.2328 5.31057 14.366 5.38668L20.2337 8.73907C20.5248 8.90539 20.5248 9.32513 20.2338 9.49152L14.3661 12.8459C14.2328 12.922 14.0692 12.922 13.936 12.8459L8.06832 9.49152ZM6.1281 13.3263C5.83927 13.1659 5.48438 13.3748 5.48438 13.7051V14.1564C5.48438 14.3138 5.56972 14.4588 5.70732 14.5352L13.9406 19.1076C14.0715 19.1803 14.2306 19.1803 14.3615 19.1075L22.5948 14.533C22.7324 14.4565 22.8177 14.3115 22.8177 14.1542V13.701C22.8177 13.3705 22.4627 13.1617 22.1738 13.3222L14.3615 17.6649C14.2306 17.7377 14.0715 17.7377 13.9406 17.665L6.1281 13.3263ZM5.70732 19.3505C5.56972 19.2741 5.48438 19.1291 5.48438 18.9717V18.5182C5.48438 18.1878 5.83927 17.979 6.1281 18.1394L13.9406 22.4781C14.0715 22.5508 14.2306 22.5507 14.3615 22.478L22.1739 18.1373C22.4627 17.9769 22.8177 18.1857 22.8177 18.5161V18.9695C22.8177 19.1269 22.7324 19.2719 22.5948 19.3483L14.3615 23.9229C14.2306 23.9956 14.0715 23.9956 13.9406 23.9229L5.70732 19.3505Z" fill="#99A8BF"/>
</svg>
