<svg width="12" height="11" viewBox="0 0 12 11" fill="none" xmlns="http://www.w3.org/2000/svg">
<path d="M11.7251 0.488604C11.6457 0.396908 11.5513 0.324126 11.4472 0.274458C11.3432 0.22479 11.2316 0.199219 11.1189 0.199219C11.0062 0.199219 10.8946 0.22479 10.7905 0.274458C10.6865 0.324126 10.592 0.396908 10.5126 0.488604L4.15139 7.78688L1.47882 4.71495C1.3964 4.62373 1.29911 4.55201 1.1925 4.50387C1.08589 4.45573 0.972054 4.43213 0.857483 4.4344C0.742911 4.43667 0.629852 4.46477 0.524761 4.51711C0.419669 4.56944 0.324603 4.64498 0.244991 4.73941C0.165378 4.83384 0.102779 4.94531 0.0607656 5.06746C0.0187524 5.18961 -0.00185163 5.32004 0.000130571 5.45131C0.00211277 5.58258 0.0266423 5.71212 0.0723181 5.83253C0.117994 5.95294 0.183922 6.06186 0.266338 6.15308L3.54515 9.90983C3.62453 10.0015 3.71897 10.0743 3.82302 10.124C3.92707 10.1736 4.03867 10.1992 4.15139 10.1992C4.26411 10.1992 4.37572 10.1736 4.47977 10.124C4.58382 10.0743 4.67826 10.0015 4.75763 9.90983L11.7251 1.92674C11.8118 1.83512 11.881 1.72394 11.9283 1.60018C11.9756 1.47642 12 1.34278 12 1.20767C12 1.07256 11.9756 0.938919 11.9283 0.815162C11.881 0.691404 11.8118 0.580217 11.7251 0.488604Z" fill="white"/>
</svg>
