<svg width="28" height="28" viewBox="0 0 28 28" fill="none" xmlns="http://www.w3.org/2000/svg">
<g clip-path="url(#clip0_2222_11968)">
<path d="M16.5712 10.7794C16.4182 10.3459 16.1345 9.97056 15.7592 9.7051C15.3839 9.43964 14.9354 9.29718 14.4757 9.29735H12.7555C12.2647 9.29478 11.7905 9.47428 11.4244 9.80114C11.0583 10.128 10.8264 10.579 10.7735 11.0669C10.7207 11.5548 10.8507 12.045 11.1383 12.4427C11.4259 12.8403 11.8508 13.1172 12.3307 13.2197L14.9501 13.7912C15.4857 13.9085 15.959 14.2195 16.2792 14.6646C16.5994 15.1097 16.7439 15.6574 16.6848 16.2025C16.6257 16.7475 16.3673 17.2516 15.9592 17.6177C15.5511 17.9839 15.0221 18.1863 14.4738 18.1861H12.9936C12.0259 18.1861 11.2029 17.5689 10.8981 16.7059M13.7347 9.29735V7.07422M13.7347 20.4092V18.188M4.46875 26.3833V21.6208H9.23125" stroke="#99A8BF" stroke-width="1.3" stroke-linecap="round" stroke-linejoin="round"/>
<path d="M26.1678 11.7259C26.6735 14.4219 26.2697 17.2095 25.0198 19.6512C23.7699 22.0929 21.7447 24.0504 19.2619 25.2166C16.7792 26.3828 13.9794 26.6916 11.3022 26.0945C8.62498 25.4974 6.22178 24.0283 4.46981 21.9177M1.82948 16.2827C1.32375 13.5867 1.72752 10.7991 2.97741 8.35741C4.22731 5.91573 6.25257 3.95817 8.73533 2.79199C11.2181 1.62581 14.0178 1.31703 16.695 1.91411C19.3723 2.51118 21.7755 3.98032 23.5274 6.09092" stroke="#99A8BF" stroke-width="1.3" stroke-linecap="round" stroke-linejoin="round"/>
<path d="M23.5281 1.625V6.3875H18.7656" stroke="#99A8BF" stroke-width="1.3" stroke-linecap="round" stroke-linejoin="round"/>
</g>
<defs>
<clipPath id="clip0_2222_11968">
<rect width="26.67" height="26.67" fill="white" transform="translate(0.664062 0.664062)"/>
</clipPath>
</defs>
</svg>
