<svg width="27" height="22" viewBox="0 0 27 22" fill="none" xmlns="http://www.w3.org/2000/svg">
<rect x="9.89844" y="3.59375" width="6.84914" height="1" fill="#476BB1"/>
<rect x="9.89844" y="5.64844" width="6.84914" height="1" fill="#476BB1"/>
<rect x="9.89844" y="7.70312" width="6.84914" height="1" fill="#476BB1"/>
<rect x="3.04688" y="9.07812" width="2.08333" height="0.833333" fill="#476BB1"/>
<rect x="21.5469" y="9.07812" width="2.08333" height="0.833333" fill="#476BB1"/>
<rect x="3.04688" y="10.4453" width="2.08333" height="0.833333" fill="#476BB1"/>
<rect x="21.5469" y="10.9062" width="2.08333" height="0.833333" fill="#476BB1"/>
<rect x="3.04688" y="11.8125" width="2.08333" height="0.833333" fill="#476BB1"/>
<rect x="21.5469" y="12.7422" width="2.08333" height="0.833333" fill="#476BB1"/>
<path fill-rule="evenodd" clip-rule="evenodd" d="M17.4351 1.03073H9.21619C8.18175 1.03073 7.34316 1.86931 7.34316 2.90376V18.6572C7.34316 19.6917 8.18175 20.5303 9.21619 20.5303H17.4351C18.4695 20.5303 19.3081 19.6917 19.3081 18.6572V2.90375C19.3081 1.86931 18.4695 1.03073 17.4351 1.03073ZM9.21619 0.164062C7.7031 0.164062 6.4765 1.39067 6.4765 2.90376V5.89479L3.0506 5.89479C1.67646 5.89479 0.5625 7.00875 0.5625 8.38289L0.562501 18.6569C0.562501 20.0311 1.67646 21.145 3.0506 21.145H8.06706C8.41653 21.3067 8.80582 21.3969 9.21619 21.3969H17.4351C17.934 21.3969 18.4017 21.2636 18.8046 21.0306V21.145H23.9415C25.3156 21.145 26.4296 20.0311 26.4296 18.6569V8.38289C26.4296 7.00875 25.3156 5.89479 23.9415 5.89479H20.1748V2.90375C20.1748 1.39066 18.9482 0.164062 17.4351 0.164062H9.21619ZM7.00736 20.2784C6.67364 19.8244 6.4765 19.2639 6.4765 18.6572V6.76146L3.0506 6.76146C2.15511 6.76146 1.42917 7.4874 1.42917 8.38289L1.42917 18.6569C1.42917 19.5524 2.15511 20.2784 3.0506 20.2784L7.00736 20.2784ZM23.9415 20.2784H19.6439C19.9776 19.8244 20.1748 19.2639 20.1748 18.6572V6.76146H23.9415C24.8369 6.76146 25.5629 7.4874 25.5629 8.38289V18.6569C25.5629 19.5524 24.8369 20.2784 23.9415 20.2784Z" fill="#476BB1"/>
<path d="M6.4765 5.89479V6.06146H6.64316V5.89479H6.4765ZM3.0506 5.89479V6.06146V5.89479ZM0.5625 8.38289H0.395833H0.5625ZM0.562501 18.6569H0.395834H0.562501ZM8.06706 21.145L8.13705 20.9938L8.10375 20.9784H8.06706V21.145ZM18.8046 21.0306H18.9713V20.7417L18.7212 20.8863L18.8046 21.0306ZM18.8046 21.145H18.638V21.3117H18.8046V21.145ZM20.1748 5.89479H20.0081V6.06146H20.1748V5.89479ZM7.00736 20.2784V20.445H7.33675L7.14164 20.1796L7.00736 20.2784ZM6.4765 6.76146H6.64316V6.59479H6.4765V6.76146ZM3.0506 6.76146V6.92813V6.76146ZM1.42917 8.38289H1.2625H1.42917ZM1.42917 18.6569H1.59583H1.42917ZM3.0506 20.2784V20.445H3.0506L3.0506 20.2784ZM19.6439 20.2784L19.5096 20.1796L19.3145 20.445H19.6439V20.2784ZM20.1748 6.76146V6.59479H20.0081V6.76146H20.1748ZM9.21619 1.1974H17.4351V0.864062H9.21619V1.1974ZM7.50983 2.90376C7.50983 1.96136 8.2738 1.1974 9.21619 1.1974V0.864062C8.0897 0.864062 7.1765 1.77727 7.1765 2.90376H7.50983ZM7.50983 18.6572V2.90376H7.1765V18.6572H7.50983ZM9.21619 20.3636C8.27379 20.3636 7.50983 19.5996 7.50983 18.6572H7.1765C7.1765 19.7837 8.0897 20.6969 9.21619 20.6969V20.3636ZM17.4351 20.3636H9.21619V20.6969H17.4351V20.3636ZM19.1414 18.6572C19.1414 19.5996 18.3775 20.3636 17.4351 20.3636V20.6969C18.5616 20.6969 19.4748 19.7837 19.4748 18.6572H19.1414ZM19.1414 2.90375V18.6572H19.4748V2.90375H19.1414ZM17.4351 1.1974C18.3775 1.1974 19.1414 1.96136 19.1414 2.90375H19.4748C19.4748 1.77726 18.5616 0.864062 17.4351 0.864062V1.1974ZM6.64316 2.90376C6.64316 1.48272 7.79515 0.330729 9.21619 0.330729V-0.00260417C7.61105 -0.00260417 6.30983 1.29862 6.30983 2.90376H6.64316ZM6.64316 5.89479V2.90376H6.30983V5.89479H6.64316ZM6.4765 5.72813L3.0506 5.72813V6.06146L6.4765 6.06146V5.72813ZM3.0506 5.72813C1.58441 5.72813 0.395833 6.91671 0.395833 8.38289H0.729167C0.729167 7.1008 1.76851 6.06146 3.0506 6.06146V5.72813ZM0.395833 8.38289L0.395834 18.6569H0.729168L0.729167 8.38289H0.395833ZM0.395834 18.6569C0.395834 20.1231 1.58442 21.3117 3.0506 21.3117V20.9784C1.76851 20.9784 0.729168 19.939 0.729168 18.6569H0.395834ZM3.0506 21.3117H8.06706V20.9784H3.0506V21.3117ZM9.21619 21.2303C8.83048 21.2303 8.46503 21.1455 8.13705 20.9938L7.99707 21.2963C8.36803 21.4679 8.78117 21.5636 9.21619 21.5636V21.2303ZM17.4351 21.2303H9.21619V21.5636H17.4351V21.2303ZM18.7212 20.8863C18.343 21.105 17.9039 21.2303 17.4351 21.2303V21.5636C17.9641 21.5636 18.4605 21.4221 18.8881 21.1749L18.7212 20.8863ZM18.9713 21.145V21.0306H18.638V21.145H18.9713ZM23.9415 20.9784H18.8046V21.3117H23.9415V20.9784ZM26.2629 18.6569C26.2629 19.939 25.2235 20.9784 23.9415 20.9784V21.3117C25.4076 21.3117 26.5962 20.1231 26.5962 18.6569H26.2629ZM26.2629 8.38289V18.6569H26.5962V8.38289H26.2629ZM23.9415 6.06146C25.2235 6.06146 26.2629 7.1008 26.2629 8.38289H26.5962C26.5962 6.91671 25.4076 5.72813 23.9415 5.72813V6.06146ZM20.1748 6.06146H23.9415V5.72813H20.1748V6.06146ZM20.0081 2.90375V5.89479H20.3415V2.90375H20.0081ZM17.4351 0.330729C18.8561 0.330729 20.0081 1.48271 20.0081 2.90375H20.3415C20.3415 1.29862 19.0402 -0.00260417 17.4351 -0.00260417V0.330729ZM9.21619 0.330729H17.4351V-0.00260417H9.21619V0.330729ZM7.14164 20.1796C6.82825 19.7533 6.64316 19.2272 6.64316 18.6572H6.30983C6.30983 19.3006 6.51904 19.8955 6.87308 20.3771L7.14164 20.1796ZM6.64316 18.6572V6.76146H6.30983V18.6572H6.64316ZM3.0506 6.92813L6.4765 6.92812V6.59479L3.0506 6.59479V6.92813ZM1.59583 8.38289C1.59583 7.57945 2.24716 6.92813 3.0506 6.92813V6.59479C2.06306 6.59479 1.2625 7.39535 1.2625 8.38289H1.59583ZM1.59583 18.6569L1.59583 8.38289H1.2625L1.2625 18.6569H1.59583ZM3.0506 20.1117C2.24716 20.1117 1.59583 19.4604 1.59583 18.6569H1.2625C1.2625 19.6445 2.06306 20.445 3.0506 20.445V20.1117ZM7.00736 20.1117L3.0506 20.1117L3.0506 20.445L7.00736 20.445L7.00736 20.1117ZM19.6439 20.445H23.9415V20.1117H19.6439V20.445ZM20.0081 18.6572C20.0081 19.2272 19.823 19.7533 19.5096 20.1796L19.7782 20.3771C20.1322 19.8955 20.3415 19.3006 20.3415 18.6572H20.0081ZM20.0081 6.76146V18.6572H20.3415V6.76146H20.0081ZM23.9415 6.59479H20.1748V6.92812H23.9415V6.59479ZM25.7296 8.38289C25.7296 7.39535 24.929 6.59479 23.9415 6.59479V6.92812C24.7449 6.92812 25.3962 7.57945 25.3962 8.38289H25.7296ZM25.7296 18.6569V8.38289H25.3962V18.6569H25.7296ZM23.9415 20.445C24.929 20.445 25.7296 19.6445 25.7296 18.6569H25.3962C25.3962 19.4604 24.7449 20.1117 23.9415 20.1117V20.445Z" fill="#476BB1"/>
</svg>
