<svg width="20" height="20" viewBox="0 0 20 20" fill="none" xmlns="http://www.w3.org/2000/svg">
<path d="M7.04583 3.1128C8.19334 2.37501 9.47209 2.00471 10.743 1.97166C9.47844 2.89995 8.61543 4.27545 8.32979 5.8179C8.04415 7.36035 8.35736 8.95368 9.20562 10.2732C10.0539 11.5928 11.3733 12.5393 12.8952 12.9198C14.417 13.3004 16.0266 13.0863 17.3961 12.3214C16.9085 13.3175 16.197 14.1874 15.3174 14.8629C14.4377 15.5384 13.4138 16.0013 12.3255 16.2154C11.2373 16.4294 10.1143 16.3889 9.04428 16.0969C7.97431 15.8048 6.98639 15.2693 6.15777 14.5321C5.32915 13.7949 4.68228 12.876 4.26776 11.8472C3.85323 10.8185 3.68228 9.70784 3.76828 8.60208C3.85427 7.49632 4.19488 6.42543 4.76346 5.47316C5.33204 4.52089 6.11319 3.71305 7.04583 3.1128Z" stroke="#3E619B" stroke-linecap="round" stroke-linejoin="round"/>
</svg>
