<svg width="18" height="18" viewBox="0 0 18 18" fill="none" xmlns="http://www.w3.org/2000/svg">
<path d="M6.7155 12.75H2.0625C1.7144 12.75 1.38056 12.6117 1.13442 12.3656C0.888281 12.1194 0.75 11.7856 0.75 11.4375V2.8125C0.75 2.088 1.338 1.5 2.0625 1.5H15.9375C16.662 1.5 17.25 2.088 17.25 2.8125V11.4375C17.25 11.7856 17.1117 12.1194 16.8656 12.3656C16.6194 12.6117 16.2856 12.75 15.9375 12.75H11.2845C11.4127 13.7812 11.8883 14.739 12.6112 15.5677C12.6816 15.6493 12.7271 15.7493 12.7424 15.856C12.7576 15.9626 12.7421 16.0713 12.6975 16.1694C12.6529 16.2674 12.5812 16.3507 12.4909 16.4093C12.4005 16.4679 12.2952 16.4993 12.1875 16.5H5.8125C5.70452 16.5 5.59883 16.4689 5.50806 16.4104C5.41728 16.3519 5.34525 16.2686 5.30057 16.1703C5.25589 16.072 5.24044 15.9629 5.25608 15.856C5.27172 15.7492 5.31777 15.6491 5.38875 15.5677C6.11175 14.739 6.58725 13.7812 6.7155 12.75ZM16.125 2.8125C16.125 2.76277 16.1052 2.71508 16.0701 2.67992C16.0349 2.64475 15.9872 2.625 15.9375 2.625H2.0625C2.01277 2.625 1.96508 2.64475 1.92992 2.67992C1.89475 2.71508 1.875 2.76277 1.875 2.8125V11.4375C1.875 11.541 1.959 11.625 2.0625 11.625H15.9375C15.9872 11.625 16.0349 11.6052 16.0701 11.5701C16.1052 11.5349 16.125 11.4872 16.125 11.4375V2.8125ZM10.1527 12.75H7.84725C7.75275 13.6995 7.42425 14.5837 6.93 15.375H11.07C10.5757 14.5837 10.2465 13.6995 10.1527 12.75Z" fill="#0FB87B"/>
</svg>
