<svg width="48" height="48" viewBox="0 0 48 48" fill="none" xmlns="http://www.w3.org/2000/svg">
<path fill-rule="evenodd" clip-rule="evenodd" d="M4.96151 5H43.0385C44.6714 5 46 6.31059 46 7.90578V36.9319C46 38.5307 44.6643 39.8377 43.0385 39.8377H39.8979C40.3492 38.9628 40.7252 38.0458 41.0224 37.0971H42.709C42.9382 37.0971 43.1352 37.0092 43.2892 36.8617C43.4432 36.7106 43.5291 36.5138 43.5291 36.2925V12.2381H43.5434H4.58908V36.296C4.58908 36.5208 4.67861 36.7141 4.82901 36.8652C4.983 37.0163 5.18353 37.1006 5.40914 37.1006H6.98121C7.27843 38.0528 7.65444 38.9663 8.10565 39.8412H4.96151C3.33573 39.8412 2.00001 38.5307 2.00001 36.9355V7.90578C1.99643 6.31059 3.33215 5 4.96151 5ZM23.1889 31.0923L29.4951 27.15C29.5524 27.1078 29.624 27.0938 29.6885 27.0973C29.7565 27.1043 29.8245 27.1359 29.8747 27.1851L30.4834 27.8246C30.5336 27.8773 30.5586 27.9441 30.5622 28.0143C30.5658 28.0811 30.5407 28.1514 30.4942 28.2076C28.872 29.9995 27.3321 31.9074 25.6956 33.6783C25.3554 34.0367 24.9973 34.2616 24.65 34.381C24.2489 34.5181 23.8586 34.5075 23.5112 34.3986C23.35 34.3459 23.1996 34.2756 23.0636 34.1843C22.9239 34.0929 22.7986 33.9805 22.6876 33.8575L22.684 33.854C22.5765 33.731 22.487 33.5975 22.4154 33.4499C22.3438 33.3059 22.2901 33.1478 22.2614 32.9896V32.9826C22.2005 32.6453 22.2364 32.2834 22.4047 31.9426C22.5515 31.6369 22.7986 31.3488 23.1674 31.1063L23.1889 31.0923ZM14.5622 42.9192C14.222 42.6065 13.8997 42.2762 13.5918 41.9283C13.2838 41.5805 12.9937 41.2151 12.7252 40.8391C12.4566 40.4632 12.2059 40.0767 11.9803 39.6761C11.7547 39.2791 11.547 38.8644 11.3572 38.4393C11.1746 38.0247 11.0099 37.596 10.8702 37.1568C10.7305 36.7211 10.6124 36.2784 10.5157 35.8252V35.8181C10.4226 35.3719 10.3509 34.9221 10.3044 34.4619C10.2578 34.0086 10.2328 33.5483 10.2328 33.0915C10.2328 32.192 10.3223 31.3101 10.4942 30.4563C10.6697 29.5814 10.9347 28.7346 11.2748 27.9265C11.6222 27.1043 12.0519 26.3208 12.5497 25.5899C13.051 24.8521 13.6276 24.1669 14.265 23.5415C14.9024 22.916 15.6007 22.3503 16.3563 21.8549C17.1012 21.3665 17.8962 20.9484 18.7341 20.6076C19.5577 20.2738 20.4208 20.0138 21.3124 19.8416C22.1826 19.673 23.0815 19.5851 23.9982 19.5851C24.915 19.5851 25.8102 19.673 26.6768 19.8416C27.5685 20.0138 28.4279 20.2738 29.248 20.6076C30.0859 20.9484 30.8809 21.3665 31.6222 21.8584C32.3778 22.3539 33.0797 22.9231 33.7171 23.5485C34.3545 24.1739 34.9311 24.8626 35.4396 25.604C35.9409 26.3348 36.3671 27.1184 36.718 27.9405C37.0618 28.7487 37.3268 29.5955 37.5022 30.4669C37.6741 31.3172 37.7672 32.1956 37.7672 33.0951C37.7672 33.5343 37.7457 33.9699 37.7028 34.4056C37.6598 34.8484 37.5918 35.2805 37.5094 35.7022C37.4235 36.1273 37.316 36.5525 37.1871 36.9706C37.0582 37.3922 36.9042 37.8068 36.7359 38.2109C36.564 38.6185 36.3706 39.0155 36.1594 39.4055C35.9481 39.792 35.7189 40.168 35.4718 40.5299C35.2247 40.8953 34.9561 41.2467 34.6732 41.5875C34.3903 41.9283 34.0859 42.2586 33.7672 42.5748C33.7099 42.6311 33.6347 42.6592 33.5595 42.6592C33.4843 42.6592 33.4091 42.6311 33.3518 42.5748L32.6965 41.9319C32.675 41.9178 32.6571 41.9037 32.6392 41.8862L30.7449 40.031C30.6876 39.9748 30.6589 39.901 30.6589 39.8272C30.6589 39.7534 30.6876 39.6796 30.7449 39.6234L31.7368 38.6501C31.7941 38.5939 31.8693 38.5658 31.9445 38.5658C32.0197 38.5658 32.0949 38.5939 32.1522 38.6501L33.4628 39.9361C33.5703 39.7956 33.6741 39.648 33.778 39.4969C33.9176 39.2931 34.0501 39.0858 34.1755 38.882C34.308 38.6607 34.4369 38.4288 34.5551 38.1933C34.6768 37.9544 34.7878 37.712 34.8917 37.466L34.8953 37.459C35.0349 37.1252 35.1603 36.7844 35.2677 36.44C35.3751 36.0992 35.4646 35.7479 35.5363 35.3965C35.6043 35.0662 35.6616 34.7254 35.6974 34.381C35.7296 34.0964 35.7511 33.8083 35.7619 33.5237H33.9355C33.8568 33.5237 33.7816 33.4921 33.7278 33.4394C33.6741 33.3867 33.6419 33.3164 33.6419 33.2356V31.8583C33.6419 31.7774 33.6741 31.7072 33.7278 31.6545C33.7816 31.6018 33.8532 31.5701 33.9355 31.5701H35.6652C35.59 31.022 35.4754 30.4879 35.325 29.9644C35.1495 29.3636 34.9275 28.7838 34.6661 28.2322C34.3975 27.67 34.0824 27.1289 33.7243 26.6194C33.402 26.1556 33.0439 25.7129 32.6571 25.2983L31.4969 26.4367C31.4432 26.4718 31.3644 26.5035 31.2928 26.5035C31.2176 26.5035 31.1423 26.4754 31.0851 26.4191L30.0752 25.4283C30.0287 25.3756 30.0036 25.3088 30.0036 25.2421C30.0036 25.1683 30.0322 25.0945 30.0895 25.0383L31.1925 23.9561C30.7556 23.6223 30.2901 23.3166 29.8066 23.046C29.2695 22.7439 28.7037 22.4839 28.12 22.266L28.1128 22.2625C27.5363 22.0517 26.9418 21.883 26.3295 21.7601C25.7887 21.6546 25.2337 21.5809 24.6679 21.5528V23.1058C24.6679 23.1831 24.6356 23.2569 24.5819 23.3096C24.5282 23.3623 24.4566 23.3939 24.3742 23.3939H22.9669C22.8881 23.3939 22.8129 23.3623 22.7592 23.3096C22.7055 23.2569 22.6732 23.1866 22.6732 23.1058V21.6055C22.1182 21.6652 21.5703 21.7671 21.0403 21.9006C20.4315 22.0552 19.8406 22.259 19.2748 22.5014C18.7019 22.7474 18.1504 23.039 17.6276 23.3693C17.1549 23.668 16.7037 24.0018 16.2811 24.3601L17.4414 25.4986C17.4987 25.5548 17.5273 25.6286 17.5273 25.7024C17.5273 25.7761 17.4987 25.8499 17.4414 25.9061L16.4315 26.897C16.3778 26.9427 16.3098 26.9673 16.2417 26.9673C16.1665 26.9673 16.0913 26.9392 16.034 26.8829L14.8953 25.7656C14.5372 26.1943 14.2077 26.651 13.9141 27.1289C13.5882 27.6559 13.3053 28.2111 13.0725 28.7908L13.0689 28.7979C12.8398 29.3671 12.6535 29.9609 12.5139 30.5687C12.3921 31.1028 12.3098 31.6545 12.2668 32.2131H14.068C14.1468 32.2131 14.222 32.2448 14.2757 32.2975C14.3295 32.3502 14.3617 32.4204 14.3617 32.5012V33.8821C14.3617 33.9594 14.3295 34.0332 14.2757 34.0859C14.222 34.1386 14.1504 34.1702 14.068 34.1702H12.2775C12.3026 34.4197 12.3312 34.6656 12.3706 34.9046C12.4208 35.2103 12.4817 35.5089 12.5533 35.8076V35.8146C12.6285 36.1273 12.7216 36.44 12.8254 36.7457C12.9329 37.062 13.051 37.3676 13.1835 37.6663C13.2945 37.9193 13.4163 38.1723 13.5524 38.4252L13.5595 38.4393C13.692 38.6852 13.8317 38.9242 13.9785 39.1596C14.1146 39.3774 14.265 39.5988 14.4261 39.8166L14.4333 39.8272C14.5479 39.9818 14.6625 40.1329 14.7842 40.2804L16.2417 38.8504C16.299 38.7942 16.3742 38.7661 16.4494 38.7661C16.5246 38.7661 16.5998 38.7942 16.6571 38.8504L17.667 39.8412C17.7135 39.8939 17.7386 39.9607 17.7386 40.0275C17.7386 40.1012 17.7099 40.175 17.6526 40.2313L17.6419 40.2418C17.1871 40.688 16.7431 41.1237 16.3026 41.5629C15.8621 42.0021 15.4253 42.4484 14.9812 42.9086L14.9776 42.9122C14.9239 42.9684 14.8523 42.9965 14.7771 43C14.7055 43.0035 14.6303 42.9789 14.573 42.9262L14.5622 42.9192ZM40.2167 7.35414C41.026 7.35414 41.6813 7.99713 41.6813 8.79122C41.6813 9.5853 41.026 10.2283 40.2167 10.2283C39.4073 10.2283 38.752 9.5853 38.752 8.79122C38.752 7.99713 39.4073 7.35414 40.2167 7.35414ZM30.2936 7.35414C31.103 7.35414 31.7583 7.99713 31.7583 8.79122C31.7583 9.5853 31.103 10.2283 30.2936 10.2283C29.4843 10.2283 28.829 9.5853 28.829 8.79122C28.8254 7.99713 29.4808 7.35414 30.2936 7.35414ZM35.2534 7.35414C36.0627 7.35414 36.718 7.99713 36.718 8.79122C36.718 9.5853 36.0627 10.2283 35.2534 10.2283C34.444 10.2283 33.7887 9.5853 33.7887 8.79122C33.7887 7.99713 34.444 7.35414 35.2534 7.35414Z" fill="#82A4D9"/>
</svg>
