<svg width="48" height="48" viewBox="0 0 48 48" fill="none" xmlns="http://www.w3.org/2000/svg">
<g clip-path="url(#clip0_1688_1834)">
<path d="M31.667 10.9521C31.4211 11.0766 31.1787 11.2084 30.9363 11.3549C30.2057 11.7944 29.4893 12.329 28.7552 12.9443L27.1906 11.1022C27.7287 10.5859 28.3168 10.1171 28.9405 9.7033C29.4359 9.37005 29.9562 9.07708 30.4873 8.82073C30.7011 8.71087 30.915 8.60833 31.1324 8.51312C30.0988 6.63446 28.6126 5.2868 26.9304 4.4555C25.2517 3.62786 23.3663 3.30926 21.5344 3.4887C19.7132 3.66815 17.9419 4.3493 16.4806 5.51751C14.7913 6.86517 13.5011 8.87933 13.0093 11.549L12.856 12.384L12.047 12.5305C11.2558 12.6733 10.5465 12.8674 9.9264 13.1164C9.32408 13.3581 8.78947 13.6511 8.31902 13.999C7.9448 14.2773 7.62047 14.5922 7.34604 14.9291C6.49424 15.9765 6.09863 17.2912 6.10932 18.6205C6.12002 19.9719 6.5477 21.3342 7.33535 22.4548C7.6276 22.8722 7.96975 23.2531 8.35823 23.5864C8.75027 23.9233 9.19577 24.2016 9.69474 24.4103C10.1901 24.6191 10.7354 24.7692 11.3449 24.8571H34.8211C35.9652 24.5751 36.9738 24.1906 37.8292 23.6999C38.681 23.2092 39.376 22.6159 39.8963 21.9018C40.7053 20.7958 41.1045 19.2285 41.1188 17.6244C41.1366 15.9399 40.7374 14.248 39.9569 13.0139C39.7324 12.6586 39.49 12.34 39.2298 12.0507C38.0608 10.758 36.5782 10.194 35.0385 10.183C33.9159 10.1757 32.7647 10.454 31.667 10.9521ZM42.384 31.8554C43.1075 31.8554 43.7597 32.1557 44.2337 32.6428C44.7077 33.1298 45 33.8036 45 34.5434C45 35.2868 44.7077 35.957 44.2337 36.444C43.7597 36.9311 43.1039 37.2314 42.384 37.2314C41.6605 37.2314 41.0083 36.9311 40.5343 36.444C40.2884 36.1913 40.0888 35.8874 39.9569 35.5468H33.4454C32.9322 35.5468 32.5152 35.1183 32.5152 34.591V27.3034H27.6004V40.791C27.9497 40.9265 28.2633 41.1389 28.5199 41.4025C28.9939 41.8896 29.2862 42.5634 29.2862 43.3032C29.2862 44.0466 28.9939 44.7167 28.5199 45.2038C28.0459 45.6909 27.3901 45.9911 26.6702 45.9911C25.9467 45.9911 25.2945 45.6909 24.8205 45.2038C24.3465 44.7167 24.0542 44.0429 24.0542 43.3032C24.0542 42.5597 24.3465 41.8896 24.8205 41.4025C25.0806 41.1352 25.3907 40.9265 25.74 40.791V27.3071H20.1837V43.153C20.1837 43.6804 19.7667 44.1088 19.2535 44.1088H8.90352C8.77522 44.53 8.55068 44.9072 8.25487 45.2111C7.78085 45.6982 7.12507 45.9985 6.40514 45.9985C5.68164 45.9985 5.02942 45.6982 4.55541 45.2111C4.08139 44.7241 3.78914 44.0502 3.78914 43.3105C3.78914 42.5671 4.08139 41.8969 4.55541 41.4098C5.02942 40.9228 5.6852 40.6225 6.40514 40.6225C7.12864 40.6225 7.78085 40.9228 8.25487 41.4098C8.47584 41.6369 8.6576 41.9042 8.78947 42.2009H18.3232V27.3071H13.6401V32.2289C13.6401 32.7563 13.2231 33.1847 12.7099 33.1847H7.05736C6.92549 33.5326 6.72234 33.8439 6.46929 34.1039C5.99528 34.591 5.33949 34.8913 4.61956 34.8913C3.89963 34.8913 3.24385 34.591 2.76983 34.1039C2.29225 33.6205 2 32.9467 2 32.2033C2 31.4599 2.29225 30.7897 2.76627 30.3027C3.24028 29.8156 3.89606 29.5153 4.616 29.5153C5.33593 29.5153 5.99171 29.8156 6.46573 30.3027C6.72947 30.5737 6.93974 30.9069 7.07161 31.2731H11.7761V27.3071H11.2879L11.1382 27.2924C10.2757 27.1789 9.48802 26.9701 8.77878 26.6699C8.04459 26.3586 7.39237 25.9557 6.81857 25.4614C6.27683 24.9963 5.79925 24.4653 5.39296 23.8903C4.31305 22.3596 3.73212 20.4882 3.71786 18.6279C3.7143 16.7492 4.28454 14.8779 5.51413 13.3618C5.9133 12.871 6.38019 12.4206 6.91836 12.0214C7.54206 11.5563 8.25843 11.1608 9.0639 10.8386C9.61989 10.6152 10.2151 10.4284 10.8459 10.2819C11.5587 7.37786 13.077 5.14031 15.0265 3.58392C16.8513 2.13006 19.0503 1.28411 21.3099 1.06072C23.5588 0.837336 25.879 1.22918 27.9568 2.25457C30.2307 3.37518 32.2087 5.23919 33.4953 7.86492C34.0121 7.7807 34.5289 7.74041 35.0457 7.74407C37.2197 7.75872 39.3154 8.55706 40.9691 10.3881C41.3148 10.7726 41.6427 11.2011 41.9492 11.6845C42.9863 13.3215 43.5138 15.5041 43.4924 17.6428C43.471 19.7411 42.9186 21.8286 41.7924 23.3666C41.0582 24.3701 40.1173 25.1867 38.9875 25.8349C37.9005 26.4611 36.6317 26.9372 35.2096 27.2741L34.9459 27.3071H34.3828V33.6389H39.9248C40.0567 33.2617 40.267 32.9211 40.5378 32.6428C41.0047 32.1557 41.6605 31.8554 42.384 31.8554Z" fill="#82A4D9"/>
</g>
<defs>
<clipPath id="clip0_1688_1834">
<rect width="43" height="45" fill="white" transform="translate(2 1)"/>
</clipPath>
</defs>
</svg>
