<svg width="48" height="48" viewBox="0 0 48 48" fill="none" xmlns="http://www.w3.org/2000/svg">
<g clip-path="url(#clip0_1688_2279)">
<path fill-rule="evenodd" clip-rule="evenodd" d="M25.6692 1.91341C28.6029 3.7041 31.7662 5.14535 35.0852 6.20345C37.548 7.0007 40.158 7.32791 42.7596 7.16553L45.4586 6.93717L45.5913 9.46029C46.086 18.7404 44.4771 26.8039 41.1025 33.1641C37.5911 39.7826 32.1932 44.563 25.2629 46.9888H23.461C16.6875 44.6865 11.3299 40.0371 7.77427 33.3363C4.45593 27.0472 2.75453 18.9238 3.02804 9.23568L3.10044 6.74626L5.75914 6.87354C8.65338 7.0483 11.5586 6.7712 14.3546 6.05371C17.3812 5.2309 20.2074 3.86931 22.6766 2.04443L24.1206 1L25.6692 1.91341ZM24.2896 8.22493C29.7316 11.4368 34.6468 12.9567 38.8661 12.6048C39.6022 26.4557 34.0998 37.0423 24.3459 40.4601C14.9218 37.2594 9.35099 27.0397 9.76528 12.384C14.7166 12.6273 19.5795 11.6353 24.2896 8.22493ZM21.3051 24.0636C21.6805 24.3618 22.0352 24.6819 22.3669 25.022C23.3697 23.5173 24.481 22.0777 25.6933 20.7132C29.0076 16.9884 28.0182 17.2318 32.6156 17.2318L31.96 17.8906C30.2339 19.6926 28.6478 21.6066 27.2137 23.6182C25.6194 25.7638 24.1739 28.002 22.8858 30.319L22.4836 31.034L22.1176 30.3078C21.4674 28.9871 20.6447 27.7461 19.668 26.613C18.7868 25.5768 17.7347 24.6771 16.5508 23.9476C17.1501 22.117 20.0059 23.0566 21.285 24.0636H21.3051ZM24.2735 3.9611C31.2641 8.07894 37.575 10.033 42.997 9.57633C43.9422 27.3916 36.8711 40.3366 24.3459 44.7277C12.251 40.6136 5.09547 28.1216 5.6264 9.30306C11.9856 9.61003 18.2281 8.3335 24.2735 3.9611Z" fill="#82A4D9"/>
</g>
<defs>
<clipPath id="clip0_1688_2279">
<rect width="42.6799" height="46" fill="white" transform="translate(3 1)"/>
</clipPath>
</defs>
</svg>
