<svg width="56" height="56" viewBox="0 0 56 56" fill="none" xmlns="http://www.w3.org/2000/svg">
<path fill-rule="evenodd" clip-rule="evenodd" d="M27.9981 31.1516C30.226 31.1516 32.3625 30.2666 33.9378 28.6913C35.5131 27.116 36.3981 24.9794 36.3981 22.7516C36.3981 20.5237 35.5131 18.3872 33.9378 16.8119C32.3625 15.2366 30.226 14.3516 27.9981 14.3516C25.7703 14.3516 23.6338 15.2366 22.0584 16.8119C20.4831 18.3872 19.5981 20.5237 19.5981 22.7516C19.5981 24.9794 20.4831 27.116 22.0584 28.6913C23.6338 30.2666 25.7703 31.1516 27.9981 31.1516ZM27.9981 29.0516C28.8255 29.0516 29.6447 28.8886 30.409 28.572C31.1734 28.2554 31.8679 27.7913 32.4529 27.2063C33.0379 26.6213 33.502 25.9268 33.8186 25.1625C34.1352 24.3981 34.2981 23.5789 34.2981 22.7516C34.2981 21.9242 34.1352 21.105 33.8186 20.3407C33.502 19.5763 33.0379 18.8818 32.4529 18.2968C31.8679 17.7118 31.1734 17.2477 30.409 16.9311C29.6447 16.6145 28.8255 16.4516 27.9981 16.4516C26.3273 16.4516 24.7249 17.1153 23.5434 18.2968C22.3619 19.4783 21.6981 21.0807 21.6981 22.7516C21.6981 24.4224 22.3619 26.0249 23.5434 27.2063C24.7249 28.3878 26.3273 29.0516 27.9981 29.0516Z" fill="#EDF0F5" stroke="#EDF0F5" stroke-width="0.35"/>
<path fill-rule="evenodd" clip-rule="evenodd" d="M48.998 28C48.998 39.5983 39.5963 49 27.998 49C16.3997 49 6.99805 39.5983 6.99805 28C6.99805 16.4017 16.3997 7 27.998 7C39.5963 7 48.998 16.4017 48.998 28ZM38.1095 43.9705C35.0869 45.8903 31.5788 46.9066 27.998 46.9C24.3318 46.9067 20.7437 45.8409 17.6755 43.834C17.4235 43.519 17.168 43.1935 16.909 42.8575C16.6086 42.464 16.4466 41.9823 16.448 41.4873C16.448 40.3564 17.2607 39.4082 18.3475 39.2497C25.5347 38.1997 30.4834 38.29 37.6801 39.2864C38.201 39.3626 38.6769 39.6244 39.0201 40.0236C39.3633 40.4227 39.5508 40.9325 39.548 41.4589C39.548 41.9629 39.3748 42.4522 39.0619 42.8344C38.7392 43.2271 38.4217 43.6058 38.1095 43.9705ZM41.6323 41.0893C41.4643 39.1237 39.9722 37.4836 37.9678 37.2064C30.601 36.1868 25.4518 36.0892 18.044 37.1717C16.028 37.4657 14.5423 39.1205 14.3659 41.0914C10.98 37.575 9.09137 32.8815 9.09805 28C9.09805 17.5619 17.56 9.1 27.998 9.1C38.4361 9.1 46.898 17.5619 46.898 28C46.9047 32.8805 45.0169 37.5731 41.6323 41.0893Z" fill="#EDF0F5" stroke="#EDF0F5" stroke-width="0.35"/>
</svg>
