<svg width="24" height="24" viewBox="0 0 24 24" fill="none" xmlns="http://www.w3.org/2000/svg">
<path d="M8.44161 2.96178C8.14084 2.23525 7.34791 1.84854 6.59013 2.05557L3.15278 2.99302C2.47312 3.18052 2.00049 3.79768 2.00049 4.50077C2.00049 14.1644 9.83608 22 19.4997 22C20.2028 22 20.82 21.5274 21.0075 20.8477L21.9449 17.4104C22.1519 16.6526 21.7652 15.8596 21.0387 15.5589L17.2889 13.9964C16.6522 13.7308 15.9139 13.9144 15.4804 14.4496L13.9023 16.3752C11.1524 15.0745 8.92596 12.8481 7.62524 10.0982L9.55094 8.52403C10.0861 8.08655 10.2697 7.35221 10.004 6.71552L8.44161 2.96568V2.96178Z" fill="#82A4D9"/>
</svg>
