<svg width="57" height="56" viewBox="0 0 57 56" fill="none" xmlns="http://www.w3.org/2000/svg">
<path d="M9.48093 23.758C10.006 23.2331 10.7181 22.9382 11.4605 22.9382C12.203 22.9382 12.9151 23.2331 13.4401 23.758L23.3409 33.6588L43.1369 13.86C43.3969 13.5999 43.7056 13.3935 44.0453 13.2526C44.385 13.1118 44.7492 13.0392 45.1169 13.0391C45.4847 13.0389 45.8489 13.1112 46.1887 13.2519C46.5286 13.3925 46.8374 13.5987 47.0975 13.8586C47.3577 14.1186 47.5641 14.4273 47.7049 14.767C47.8458 15.1067 47.9184 15.4709 47.9185 15.8386C47.9186 16.2064 47.8463 16.5706 47.7057 16.9104C47.5651 17.2503 47.3589 17.5591 47.0989 17.8192L23.3409 41.5772L9.48093 27.7172C8.95602 27.1922 8.66113 26.4801 8.66113 25.7376C8.66113 24.9952 8.95602 24.2831 9.48093 23.758Z" fill="#EDF0F5"/>
</svg>
