<svg width="56" height="56" viewBox="0 0 56 56" fill="none" xmlns="http://www.w3.org/2000/svg">
<path d="M9.8125 38.5C11.6559 41.6929 14.3075 44.3443 17.5006 46.1874C20.6937 48.0306 24.3158 49.0006 28.0027 49C31.6896 49.0006 35.3117 48.0306 38.5048 46.1874C41.6979 44.3443 44.3495 41.6929 46.1929 38.5M9.8125 17.5C11.6559 14.3071 14.3075 11.6557 17.5006 9.81255C20.6937 7.96938 24.3158 6.99936 28.0027 7C31.6896 6.99936 35.3117 7.96938 38.5048 9.81255C41.6979 11.6557 44.3495 14.3071 46.1929 17.5" stroke="#EDF0F5" stroke-width="2.1" stroke-linecap="round" stroke-linejoin="round"/>
<path d="M30.0999 48.8955C30.0999 48.8955 33.0567 45.0042 34.9194 38.5005M30.0999 7.10547C30.0999 7.10547 33.0567 10.9947 34.9194 17.5005M25.8999 48.8955C25.8999 48.8955 22.9431 45.0063 21.0804 38.5005M25.8999 7.10547C25.8999 7.10547 22.9431 10.9947 21.0804 17.5005M21.6999 23.8005L24.8499 34.3005L27.9999 23.8005L31.1499 34.3005L34.2999 23.8005M4.8999 23.8005L8.0499 34.3005L11.1999 23.8005L14.3499 34.3005L17.4999 23.8005M38.4999 23.8005L41.6499 34.3005L44.7999 23.8005L47.9499 34.3005L51.0999 23.8005" stroke="#EDF0F5" stroke-width="2.1" stroke-linecap="round" stroke-linejoin="round"/>
</svg>
