<svg width="24" height="24" viewBox="0 0 24 24" fill="none" xmlns="http://www.w3.org/2000/svg">
<path fill-rule="evenodd" clip-rule="evenodd" d="M8.32044 18.6523C9.10265 18.6531 9.85316 18.3432 10.4069 17.7908C10.9607 17.2383 11.2724 16.4886 11.2734 15.7063C11.2721 14.9241 10.9602 14.1745 10.4062 13.6222C9.85227 13.0699 9.10165 12.7603 8.31944 12.7613C7.53722 12.7603 6.78661 13.0699 6.23265 13.6222C5.6787 14.1745 5.36676 14.9241 5.36544 15.7063C5.36596 16.0937 5.44279 16.4772 5.59152 16.835C5.74026 17.1927 5.958 17.5176 6.2323 17.7911C6.50661 18.0647 6.83211 18.2816 7.19022 18.4293C7.54833 18.5771 7.93304 18.6529 8.32044 18.6523ZM9.77244 15.7063C9.77191 15.8968 9.73389 16.0852 9.66053 16.2609C9.58718 16.4366 9.47993 16.5962 9.34492 16.7305C9.2099 16.8647 9.04976 16.9711 8.87363 17.0435C8.69751 17.1159 8.50885 17.1529 8.31844 17.1523C7.51244 17.1523 6.86444 16.5023 6.86444 15.7063C6.86576 15.322 7.01966 14.9538 7.29231 14.6829C7.56496 14.4119 7.93405 14.2603 8.31844 14.2613C8.70283 14.2603 9.07191 14.4119 9.34456 14.6829C9.61721 14.9538 9.77111 15.322 9.77244 15.7063Z" fill="#455063"/>
<path fill-rule="evenodd" clip-rule="evenodd" d="M14.4699 3.122C14.1805 3.51373 14.0286 3.99007 14.0379 4.477C13.6459 4.361 13.2579 4.347 12.8859 4.417C12.1179 4.563 11.5489 5.049 11.2469 5.449L11.2419 5.456L11.2369 5.463C11.0266 5.74998 10.8821 6.07974 10.8137 6.42886C10.7452 6.77797 10.7545 7.13787 10.8409 7.483C10.9139 7.78401 11.0355 8.07111 11.2009 8.333C11.277 8.4735 11.3682 8.60528 11.4729 8.726L11.4639 8.736L10.9999 9.198C10.6179 9.015 10.2039 8.9 9.84186 8.825C9.34058 8.72216 8.83055 8.66791 8.31886 8.663C4.41786 8.663 1.24985 11.813 1.24985 15.707C1.24985 19.599 4.41785 22.75 8.31985 22.75C12.2199 22.75 15.3889 19.6 15.3889 15.707C15.3845 14.7985 15.1904 13.901 14.8189 13.072L22.0749 5.846C22.4136 5.5034 22.6397 5.06555 22.7229 4.591C22.8219 3.988 22.6599 3.317 22.0749 2.735L21.1929 1.857C20.8435 1.54896 20.4138 1.34644 19.9539 1.273C19.6398 1.22453 19.3187 1.25228 19.0176 1.35392C18.7165 1.45555 18.4443 1.6281 18.2239 1.857L17.6579 2.421C17.1702 2.13586 16.5955 2.03776 16.0409 2.145C15.4219 2.26774 14.868 2.60968 14.4809 3.108L14.4749 3.115L14.4699 3.122ZM13.8889 15.707C13.8889 18.765 11.3979 21.25 8.31885 21.25C5.24085 21.25 2.74985 18.765 2.74985 15.707C2.74985 12.647 5.23985 10.163 8.31985 10.163C8.59186 10.163 9.06285 10.196 9.53786 10.293C10.0349 10.397 10.4249 10.55 10.6329 10.723C10.7766 10.842 10.9595 10.9031 11.1459 10.8944C11.3323 10.8857 11.5088 10.8078 11.6409 10.676L12.5229 9.798C12.7239 9.598 12.9179 9.37 13.0209 9.107C13.1509 8.774 13.1089 8.454 12.9609 8.187C12.8729 8.03 12.7309 7.88 12.6719 7.817L12.6519 7.796C12.5819 7.719 12.5449 7.669 12.5169 7.613L12.4899 7.56L12.4599 7.518L12.4529 7.508C12.3835 7.39202 12.3319 7.26629 12.2999 7.135C12.2459 6.906 12.2459 6.635 12.4499 6.345C12.6289 6.1155 12.8819 5.95508 13.1659 5.891C13.4229 5.842 13.8429 5.874 14.4029 6.431C14.5434 6.57114 14.7338 6.64984 14.9324 6.64984C15.1309 6.64984 15.3213 6.57114 15.4619 6.431L15.7559 6.139C15.8918 6.0039 15.9708 5.8219 15.9768 5.63036C15.9827 5.43883 15.9151 5.25227 15.7879 5.109C15.7021 4.99334 15.6346 4.86517 15.5879 4.729C15.5129 4.504 15.5009 4.263 15.6839 4.003C15.8039 3.848 16.0469 3.671 16.3229 3.619C16.5569 3.574 16.8569 3.607 17.1949 3.944C17.3354 4.08414 17.5258 4.16284 17.7244 4.16284C17.9229 4.16284 18.1133 4.08414 18.2539 3.944L19.2829 2.919C19.4479 2.755 19.5929 2.736 19.7349 2.757C19.8892 2.78416 20.0347 2.84833 20.1589 2.944L21.0159 3.798C21.2549 4.035 21.2639 4.218 21.2429 4.348C21.2107 4.51213 21.1319 4.66351 21.0159 4.784L13.3719 12.397C13.2521 12.5164 13.1764 12.673 13.1574 12.8411C13.1383 13.0092 13.1769 13.1788 13.2669 13.322L13.2689 13.325C13.2983 13.3738 13.3257 13.4239 13.3509 13.475C13.7002 14.1675 13.8843 14.9314 13.8889 15.707ZM15.7989 5.124C15.7989 5.122 15.7969 5.121 15.7949 5.119L15.7959 5.12L15.7989 5.124Z" fill="#455063"/>
</svg>
