<svg width="24" height="24" viewBox="0 0 24 24" fill="none" xmlns="http://www.w3.org/2000/svg">
<path d="M17.5001 10.5835C17.5001 10.2029 17.5001 10.0126 17.5573 9.84323C17.7234 9.35044 18.1623 9.16015 18.6023 8.95995C19.0951 8.73446 19.3415 8.62226 19.5868 8.60246C19.864 8.58046 20.1423 8.63986 20.3799 8.77296C20.6944 8.94895 20.9144 9.28554 21.1388 9.55834C22.1761 10.8189 22.6953 11.4492 22.8845 12.1433C23.0385 12.7043 23.0385 13.2917 22.8845 13.8516C22.6084 14.8657 21.7339 15.7149 21.086 16.5025C20.7549 16.904 20.5888 17.1053 20.3799 17.223C20.1382 17.357 19.8622 17.4163 19.5868 17.3935C19.3415 17.3737 19.0951 17.2615 18.6012 17.036C18.1612 16.8358 17.7234 16.6455 17.5573 16.1527C17.5001 15.9833 17.5001 15.793 17.5001 15.4124V10.5835ZM6.50033 10.5835C6.50033 10.1039 6.48713 9.67384 6.09994 9.33724C5.95914 9.21515 5.77214 9.13045 5.39925 8.95995C4.90536 8.73556 4.65896 8.62226 4.41367 8.60246C3.67998 8.54306 3.28509 9.04465 2.8627 9.55944C1.82432 10.8189 1.30513 11.4492 1.11483 12.1444C0.961722 12.7035 0.961722 13.2935 1.11483 13.8527C1.39203 14.8657 2.26761 15.716 2.9144 16.5025C3.32249 16.9975 3.71298 17.4496 4.41367 17.3935C4.65896 17.3737 4.90536 17.2615 5.39925 17.036C5.77324 16.8666 5.95914 16.7808 6.09994 16.6587C6.48713 16.3221 6.50033 15.892 6.50033 15.4135V10.5835Z" stroke="#2A374D" stroke-width="1.1" stroke-linecap="round" stroke-linejoin="round"/>
<path d="M4.30078 8.59987C4.30078 4.95454 7.74811 2 12.0006 2C16.2531 2 19.7005 4.95454 19.7005 8.59987M19.7005 17.3997V18.2797C19.7005 20.2233 17.7315 21.7996 15.3006 21.7996H13.1006" stroke="#2A374D" stroke-width="1.1" stroke-linecap="round" stroke-linejoin="round"/>
</svg>
