<svg width="24" height="24" viewBox="0 0 24 24" fill="none" xmlns="http://www.w3.org/2000/svg">
<g clip-path="url(#clip0_2047_6193)">
<path d="M12.9507 1H11.0486C10.2408 1 9.58594 1.65487 9.58594 2.46268V21.277C9.58594 22.0849 10.2408 22.7397 11.0486 22.7397H12.9507C13.7585 22.7397 14.4134 22.0849 14.4134 21.277V2.46268C14.4134 1.65487 13.7585 1 12.9507 1Z" stroke="#2A374D" stroke-width="1.10001" stroke-linecap="round" stroke-linejoin="round"/>
<path d="M21.5366 13.1562H19.6346C18.8267 13.1562 18.1719 13.8111 18.1719 14.6189V21.2755C18.1719 22.0833 18.8267 22.7382 19.6346 22.7382H21.5366C22.3444 22.7382 22.9993 22.0833 22.9993 21.2755V14.6189C22.9993 13.8111 22.3444 13.1562 21.5366 13.1562Z" stroke="#2A374D" stroke-width="1.10001" stroke-linecap="round" stroke-linejoin="round"/>
<path d="M4.36474 7.19922H2.46268C1.65487 7.19922 1 7.85408 1 8.6619V21.2754C1 22.0832 1.65487 22.7381 2.46268 22.7381H4.36474C5.17255 22.7381 5.82742 22.0832 5.82742 21.2754V8.6619C5.82742 7.85408 5.17255 7.19922 4.36474 7.19922Z" stroke="#2A374D" stroke-width="1.10001" stroke-linecap="round" stroke-linejoin="round"/>
</g>
<defs>
<clipPath id="clip0_2047_6193">
<rect width="24" height="24" fill="white"/>
</clipPath>
</defs>
</svg>
