<svg width="24" height="24" viewBox="0 0 24 24" fill="none" xmlns="http://www.w3.org/2000/svg">
<path fill-rule="evenodd" clip-rule="evenodd" d="M2 18.5163V16.0335C2 15.3751 2.26339 14.7436 2.73223 14.278C3.20107 13.8124 3.83696 13.5508 4.5 13.5508H19.5C20.163 13.5508 20.7989 13.8124 21.2678 14.278C21.7366 14.7436 22 15.3751 22 16.0335V18.5163C22 19.1748 21.7366 19.8063 21.2678 20.2719C20.7989 20.7375 20.163 20.9991 19.5 20.9991H4.5C3.83696 20.9991 3.20107 20.7375 2.73223 20.2719C2.26339 19.8063 2 19.1748 2 18.5163Z" stroke="#2A374D" stroke-width="1.09375" stroke-linecap="round" stroke-linejoin="round"/>
<path fill-rule="evenodd" clip-rule="evenodd" d="M7 17.2765C7 16.9473 6.8683 16.6316 6.63388 16.3987C6.39946 16.1659 6.08152 16.0352 5.75 16.0352C5.41848 16.0352 5.10054 16.1659 4.86612 16.3987C4.6317 16.6316 4.5 16.9473 4.5 17.2765C4.5 17.6058 4.6317 17.9215 4.86612 18.1543C5.10054 18.3871 5.41848 18.5179 5.75 18.5179C6.08152 18.5179 6.39946 18.3871 6.63388 18.1543C6.8683 17.9215 7 17.6058 7 17.2765Z" fill="#2A374D"/>
<path fill-rule="evenodd" clip-rule="evenodd" d="M11.375 17.2765C11.375 16.9473 11.2433 16.6316 11.0089 16.3987C10.7745 16.1659 10.4565 16.0352 10.125 16.0352C9.79348 16.0352 9.47554 16.1659 9.24112 16.3987C9.0067 16.6316 8.875 16.9473 8.875 17.2765C8.875 17.6058 9.0067 17.9215 9.24112 18.1543C9.47554 18.3871 9.79348 18.5179 10.125 18.5179C10.4565 18.5179 10.7745 18.3871 11.0089 18.1543C11.2433 17.9215 11.375 17.6058 11.375 17.2765Z" fill="#2A374D"/>
<path fill-rule="evenodd" clip-rule="evenodd" d="M2 7.95807L2.0125 5.47531C2.01449 4.81813 2.27875 4.18855 2.74738 3.72455C3.21601 3.26055 3.85076 3 4.5125 3H19.5C20.1305 3.00011 20.7377 3.23682 21.1999 3.66269C21.6621 4.08857 21.9452 4.67216 21.9925 5.29655L22 5.49021L21.9875 7.97297C21.9855 8.63014 21.7212 9.25973 21.2526 9.72373C20.784 10.1877 20.1492 10.4483 19.4875 10.4483H4.5C3.86928 10.4485 3.26179 10.2119 2.79931 9.786C2.33684 9.3601 2.05355 8.77633 2.00625 8.15172L2 7.95807Z" stroke="#2A374D" stroke-width="1.09375" stroke-linecap="round" stroke-linejoin="round"/>
<path fill-rule="evenodd" clip-rule="evenodd" d="M7 6.72575C7 6.39652 6.8683 6.08077 6.63388 5.84797C6.39946 5.61516 6.08152 5.48438 5.75 5.48438C5.41848 5.48438 5.10054 5.61516 4.86612 5.84797C4.6317 6.08077 4.5 6.39652 4.5 6.72575C4.5 7.05499 4.6317 7.37074 4.86612 7.60354C5.10054 7.83635 5.41848 7.96713 5.75 7.96713C6.08152 7.96713 6.39946 7.83635 6.63388 7.60354C6.8683 7.37074 7 7.05499 7 6.72575Z" fill="#2A374D"/>
<path fill-rule="evenodd" clip-rule="evenodd" d="M11.375 6.72575C11.375 6.39652 11.2433 6.08077 11.0089 5.84797C10.7745 5.61516 10.4565 5.48438 10.125 5.48438C9.79348 5.48438 9.47554 5.61516 9.24112 5.84797C9.0067 6.08077 8.875 6.39652 8.875 6.72575C8.875 7.05499 9.0067 7.37074 9.24112 7.60354C9.47554 7.83635 9.79348 7.96713 10.125 7.96713C10.4565 7.96713 10.7745 7.83635 11.0089 7.60354C11.2433 7.37074 11.375 7.05499 11.375 6.72575Z" fill="#2A374D"/>
</svg>
