<svg width="24" height="24" viewBox="0 0 24 24" fill="none" xmlns="http://www.w3.org/2000/svg">
<path d="M8.8562 22.1464C7.03683 21.6032 5.3891 20.5982 4.0734 19.2292C4.49672 18.7271 4.76061 18.1101 4.83129 17.4572C4.90198 16.8043 4.77625 16.1452 4.47019 15.5641C4.16414 14.9831 3.69167 14.5066 3.11326 14.1955C2.53485 13.8845 1.87679 13.7532 1.2233 13.8183C1.07443 13.0891 0.999613 12.3466 1 11.6023C1 10.4528 1.176 9.34405 1.5038 8.30235H1.55C2.11087 8.30253 2.66252 8.15975 3.15288 7.88751C3.64324 7.61526 4.05613 7.22253 4.35254 6.74639C4.64896 6.27025 4.81913 5.72642 4.84699 5.16625C4.87484 4.60608 4.75947 4.04805 4.51175 3.54485C5.80128 2.3441 7.36078 1.47125 9.0586 1C9.33491 1.54252 9.75591 1.99803 10.275 2.31612C10.7942 2.63422 11.3912 2.8025 12 2.80235C12.6088 2.8025 13.2058 2.63422 13.725 2.31612C14.2441 1.99803 14.6651 1.54252 14.9414 1C16.6392 1.47125 18.1987 2.3441 19.4882 3.54485C19.2387 4.05157 19.1234 4.61386 19.1534 5.17788C19.1834 5.74191 19.3577 6.2888 19.6595 6.76621C19.9614 7.24362 20.3807 7.63556 20.8774 7.90453C21.374 8.17349 21.9314 8.31047 22.4962 8.30235C22.8311 9.37029 23.001 10.4831 23 11.6023C23 12.3613 22.923 13.1027 22.7767 13.8188C22.1232 13.7537 21.4652 13.8851 20.8867 14.1961C20.3083 14.5071 19.8359 14.9836 19.5298 15.5647C19.2237 16.1457 19.098 16.8049 19.1687 17.4578C19.2394 18.1107 19.5033 18.7277 19.9266 19.2297C18.6108 20.5985 16.9631 21.6033 15.1438 22.1464C14.9302 21.4805 14.5106 20.8997 13.9456 20.4876C13.3806 20.0755 12.6993 19.8534 12 19.8534C11.3007 19.8534 10.6194 20.0755 10.0544 20.4876C9.48941 20.8997 9.06985 21.4805 8.8562 22.1464Z" stroke="#2A374D" stroke-width="1.2" stroke-linejoin="round"/>
<path d="M11.9984 15.4539C12.504 15.4539 13.0047 15.3543 13.4718 15.1608C13.9389 14.9674 14.3633 14.6838 14.7208 14.3263C15.0783 13.9688 15.3619 13.5443 15.5554 13.0772C15.7489 12.6101 15.8484 12.1095 15.8484 11.6039C15.8484 11.0983 15.7489 10.5977 15.5554 10.1306C15.3619 9.66347 15.0783 9.23905 14.7208 8.88155C14.3633 8.52404 13.9389 8.24045 13.4718 8.04697C13.0047 7.85349 12.504 7.75391 11.9984 7.75391C10.9774 7.75391 9.99809 8.15953 9.27608 8.88155C8.55406 9.60356 8.14844 10.5828 8.14844 11.6039C8.14844 12.625 8.55406 13.6043 9.27608 14.3263C9.99809 15.0483 10.9774 15.4539 11.9984 15.4539Z" stroke="#2A374D" stroke-width="1.2" stroke-linejoin="round"/>
</svg>
