<svg width="182" height="46" viewBox="0 0 182 46" fill="none" xmlns="http://www.w3.org/2000/svg">
<g clip-path="url(#clip0_1521_49)">
<path d="M181.023 26.9902C181.023 26.9902 173.728 14.0711 163.046 29.7094C160.546 33.37 158.722 42.903 151.691 43.3115C151.691 43.3115 161.393 50.1668 167.642 37.886C169.599 34.0275 172.507 25.7743 181.023 26.9902Z" fill="#EDF0F5"/>
<path d="M167.235 15.9838C167.235 15.9838 159.227 11.4646 151.694 30.3997C149.391 36.1923 142.368 50.8029 130.474 43.3221C130.474 43.3221 136.637 42.1316 144.665 24.5529C147.18 19.038 157.894 3.3359 167.235 15.9838Z" fill="#EDF0F5"/>
<path d="M154.802 4.83173C154.802 4.83173 146.961 0.615773 137.633 19.5126C137.633 19.5126 119.658 56.5083 110.869 38.1477C110.869 38.1477 118.846 38.1477 127.496 20.4636C130.966 13.3817 140.066 -8.75444 154.802 4.83173Z" fill="#EDF0F5"/>
<path d="M133.713 1.42969C133.713 1.42969 123.982 4.4233 124.251 16.7999C122.13 16.1848 119.853 16.4287 117.908 17.4797C117.908 17.4797 117.898 2.51799 133.713 1.42969Z" fill="#EDF0F5"/>
<path d="M116.661 32.5088C113.194 35.7609 110.853 35.9684 110.812 35.9716C110.178 34.1748 106.175 21.2109 122.23 18.6992C122.224 18.6897 112.959 25.0726 116.661 32.5088Z" fill="#EDF0F5"/>
<path d="M173.589 44.2697C173.589 44.2697 180.348 36.7888 176.443 28.9026C176.443 28.9026 181.984 27.6771 181.984 31.6218C181.969 31.6218 182.105 40.5995 173.589 44.2697Z" fill="#EDF0F5"/>
<path d="M163.182 25.7743C163.182 25.7743 163.568 19.5829 161.558 18.702C161.558 18.702 167.235 15.5743 168.723 21.1531C168.723 21.1531 165.884 22.3754 163.182 25.7743Z" fill="#EDF0F5"/>
<path d="M151.015 12.7158C151.015 12.7158 150.475 9.72534 147.906 7.95726C147.906 7.95726 154.529 3.73811 157.91 9.45087C157.894 9.45087 153.178 10.1339 151.015 12.7158Z" fill="#EDF0F5"/>
</g>
<path d="M15.2002 13.5957V29H12.998V22.4043H4.17871V29H1.97656V13.5957H4.17871V20.2021H12.998V13.5957H15.2002ZM32.3662 26.7979C32.3662 27.0986 32.3089 27.3851 32.1943 27.6572C32.0798 27.9222 31.9222 28.1549 31.7217 28.3555C31.5212 28.556 31.2848 28.7135 31.0127 28.8281C30.7477 28.9427 30.4648 29 30.1641 29H21.3662C21.0654 29 20.779 28.9427 20.5068 28.8281C20.2419 28.7135 20.0091 28.556 19.8086 28.3555C19.6081 28.1549 19.4505 27.9222 19.3359 27.6572C19.2214 27.3851 19.1641 27.0986 19.1641 26.7979V15.7979C19.1641 15.4971 19.2214 15.2142 19.3359 14.9492C19.4505 14.6771 19.6081 14.4443 19.8086 14.251C20.0091 14.0505 20.2419 13.8929 20.5068 13.7783C20.779 13.6566 21.0654 13.5957 21.3662 13.5957H30.1641C30.4648 13.5957 30.7477 13.6566 31.0127 13.7783C31.2848 13.8929 31.5212 14.0505 31.7217 14.251C31.9222 14.4443 32.0798 14.6771 32.1943 14.9492C32.3089 15.2142 32.3662 15.4971 32.3662 15.7979V26.7979ZM21.3662 15.7979V26.7979H30.1641V15.7979H21.3662ZM38.5322 22.4043C38.2314 22.4043 37.945 22.347 37.6729 22.2324C37.4079 22.1107 37.1751 21.9531 36.9746 21.7598C36.7741 21.5592 36.6165 21.3265 36.502 21.0615C36.3874 20.7894 36.3301 20.5029 36.3301 20.2021V15.7979C36.3301 15.4971 36.3874 15.2142 36.502 14.9492C36.6165 14.6771 36.7741 14.4443 36.9746 14.251C37.1751 14.0505 37.4079 13.8929 37.6729 13.7783C37.945 13.6566 38.2314 13.5957 38.5322 13.5957H46.0088C46.3096 13.5957 46.5924 13.6566 46.8574 13.7783C47.1296 13.8929 47.3659 14.0505 47.5664 14.251C47.7669 14.4443 47.9245 14.6771 48.0391 14.9492C48.1536 15.2142 48.2109 15.4971 48.2109 15.7979V17.7852H46.0088V15.7979H38.5322V20.2021H46.0088C46.3096 20.2021 46.5924 20.2594 46.8574 20.374C47.1296 20.4886 47.3659 20.6462 47.5664 20.8467C47.7669 21.0472 47.9245 21.2835 48.0391 21.5557C48.1536 21.8206 48.2109 22.1035 48.2109 22.4043V26.7979C48.2109 27.0986 48.1536 27.3851 48.0391 27.6572C47.9245 27.9222 47.7669 28.1549 47.5664 28.3555C47.3659 28.556 47.1296 28.7135 46.8574 28.8281C46.5924 28.9427 46.3096 29 46.0088 29H38.3174C38.0166 29 37.7301 28.9427 37.458 28.8281C37.193 28.7135 36.9603 28.556 36.7598 28.3555C36.5592 28.1549 36.4017 27.9222 36.2871 27.6572C36.1725 27.3851 36.1152 27.0986 36.1152 26.7979V24.8213H38.3174V26.7979H46.0088V22.4043H38.5322ZM50.8643 13.5957H63.1855V15.7979H58.126V29H55.9238V15.7979H50.8643V13.5957ZM65.8281 13.5957H77.0537V15.7979H68.0303V20.2021H75.7324V22.4043H68.0303V26.7979H77.0537V29H65.8281V13.5957ZM92.5225 19.0957C92.5225 21.2441 91.6058 22.4688 89.7725 22.7695L92.6729 29H90.2344L87.377 22.8447H82.5537V29H80.3516V13.5957H88.7842C91.2764 13.5957 92.5225 14.8454 92.5225 17.3447V19.0957ZM82.5537 20.6426H88.666C89.2533 20.6426 89.6758 20.5137 89.9336 20.2559C90.1914 19.998 90.3203 19.5755 90.3203 18.9883V17.4521C90.3203 16.8649 90.1914 16.4424 89.9336 16.1846C89.6758 15.9268 89.2533 15.7979 88.666 15.7979H82.5537V20.6426Z" fill="#EDF0F5"/>
<defs>
<clipPath id="clip0_1521_49">
<rect width="72" height="45" fill="white" transform="matrix(-1 0 0 1 182 0.5)"/>
</clipPath>
</defs>
</svg>
