<svg width="32" height="32" viewBox="0 0 32 32" fill="none" xmlns="http://www.w3.org/2000/svg">
<path d="M22.3996 12.7984C22.3996 14.4958 21.7253 16.1237 20.5251 17.3239C19.3249 18.5242 17.697 19.1984 15.9996 19.1984C14.3022 19.1984 12.6744 18.5242 11.4741 17.3239C10.2739 16.1237 9.59961 14.4958 9.59961 12.7984C9.59961 11.1011 10.2739 9.47319 11.4741 8.27295C12.6744 7.07272 14.3022 6.39844 15.9996 6.39844C17.697 6.39844 19.3249 7.07272 20.5251 8.27295C21.7253 9.47319 22.3996 11.1011 22.3996 12.7984Z" fill="#42506B"/>
<path fill-rule="evenodd" clip-rule="evenodd" d="M15.3472 31.9872C6.8136 31.6448 0 24.6176 0 16C0 7.1632 7.1632 0 16 0C24.8368 0 32 7.1632 32 16C32 24.8368 24.8368 32 16 32H15.7808C15.6357 32 15.4912 31.9957 15.3472 31.9872ZM5.7328 26.096C5.61317 25.7525 5.57245 25.3864 5.61367 25.0249C5.65488 24.6635 5.77696 24.316 5.97086 24.0082C6.16476 23.7004 6.42549 23.4402 6.7337 23.247C7.04191 23.0538 7.38968 22.9324 7.7512 22.892C13.988 22.2016 18.0504 22.264 24.2568 22.9064C24.6188 22.9441 24.9674 23.0639 25.2761 23.2567C25.5848 23.4495 25.8455 23.7102 26.0382 24.019C26.2309 24.3277 26.3506 24.6764 26.3882 25.0384C26.4258 25.4004 26.3803 25.7662 26.2552 26.108C28.9153 23.4168 30.4049 19.784 30.4 16C30.4 8.0472 23.9528 1.6 16 1.6C8.0472 1.6 1.6 8.0472 1.6 16C1.6 19.9328 3.1768 23.4976 5.7328 26.096Z" fill="#42506B"/>
</svg>
