<svg width="600" height="365" viewBox="0 0 600 365" fill="none" xmlns="http://www.w3.org/2000/svg">
<path d="M305.025 98.9922V146.495H378.836V224.982" stroke="#82A4D9" stroke-width="3"/>
<path d="M317.474 97.9922V137.646H533.571V223.982" stroke="#82A4D9" stroke-width="3"/>
<path d="M296.132 99.9922V147.495H222.321V225.982" stroke="#82A4D9" stroke-width="3"/>
<path d="M283.681 98.9922V138.646H67.5844V224.982" stroke="#82A4D9" stroke-width="3"/>
<path d="M60.839 363.511L5.43963 327.546C2.03976 325.338 2.46674 321.482 6.39151 318.933L59.8839 284.208C63.8103 281.659 69.7496 281.384 73.1495 283.589L128.549 319.554C131.95 321.761 131.523 325.617 127.597 328.165L74.1046 362.892C70.1782 365.441 64.2389 365.716 60.839 363.511Z" fill="#A1BBE6"/>
<path d="M62.4127 340.768C64.859 342.352 69.5832 342.063 72.532 340.149L126.024 305.422C127.37 304.55 127.692 303.76 127.7 303.612C127.681 303.57 127.501 303.28 126.98 302.939L71.5769 266.973C69.1369 265.389 64.4096 265.678 61.4592 267.593L7.96674 302.317C6.62156 303.191 6.30049 303.98 6.29246 304.128C6.31173 304.173 6.49151 304.463 7.01481 304.803L62.4143 340.768H62.4127ZM66.6312 348.875C63.9232 348.875 61.3115 348.222 59.268 346.895H59.2664L3.8686 310.93C1.4094 309.335 0 306.855 0 304.126C0 301.072 1.75612 298.179 4.81888 296.191L58.3129 261.467C63.2618 258.251 70.3152 257.984 74.7231 260.847L130.126 296.812C132.583 298.407 133.993 300.886 133.993 303.613C133.993 306.667 132.235 309.56 129.171 311.549L75.6798 346.276C73.0248 348 69.763 348.875 66.6312 348.875Z" fill="#293673"/>
<path d="M130.828 281.576V260.085L87.9649 260.056L73.1503 250.44C69.7504 248.232 63.8111 248.51 59.8847 251.059L46.0638 260.032L3.16259 260.003V282.109C3.06628 283.603 3.80792 285.045 5.44043 286.105L60.8398 322.069C64.2397 324.275 70.179 323.999 74.1054 321.45L127.598 286.725C129.863 285.255 130.956 283.35 130.828 281.576Z" fill="#4067B1"/>
<path d="M8.01839 260.007L3.16259 260.003V282.108C3.06628 283.602 3.80792 285.045 5.44043 286.104L8.01839 287.777V260.007Z" fill="#D4E9F5"/>
<path d="M61.6934 322.536C64.6245 323.949 68.8671 323.87 72.2975 322.399V297.301H61.6934V322.536Z" fill="#5F92D3"/>
<path d="M60.841 300.04L5.44158 264.078C2.04172 261.871 2.4687 258.013 6.39346 255.465L59.8859 220.74C63.8123 218.192 69.7516 217.915 73.1514 220.121L128.551 256.086C131.952 258.293 131.525 262.146 127.599 264.697L74.1066 299.424C70.1802 301.972 64.2409 302.248 60.841 300.04Z" fill="url(#paint0_linear_1000_7773)"/>
<path d="M127.597 260.468L74.105 295.193C70.1786 297.741 64.2393 298.018 60.8394 295.812L5.44003 259.847C4.68076 259.357 4.12534 258.779 3.7433 258.156C2.57469 260.268 3.10443 262.562 5.44003 264.078L60.8394 300.04C64.2393 302.248 70.1786 301.972 74.105 299.424L127.597 264.697C130.647 262.717 131.574 259.95 130.246 257.779C129.713 258.742 128.827 259.668 127.597 260.468Z" fill="#081038"/>
<path d="M110.452 287.247C110.452 288.852 109.45 290.803 108.216 291.606C106.978 292.408 105.977 291.758 105.977 290.153C105.977 288.546 106.978 286.597 108.216 285.794C109.45 284.992 110.452 285.642 110.452 287.247Z" fill="#D4E9F5"/>
<path d="M117.651 282.573C117.651 284.178 116.649 286.129 115.413 286.93C114.177 287.731 113.176 287.082 113.176 285.477C113.176 283.875 114.177 281.921 115.413 281.12C116.649 280.318 117.651 280.968 117.651 282.573Z" fill="#D4E9F5"/>
<path d="M124.85 277.899C124.85 279.506 123.849 281.457 122.613 282.259C121.377 283.06 120.375 282.41 120.375 280.805C120.375 279.2 121.377 277.251 122.613 276.446C123.849 275.645 124.85 276.295 124.85 277.899Z" fill="#D4E9F5"/>
<path d="M64.1165 277.745L38.1905 260.916C36.5998 259.884 36.8004 258.079 38.6384 256.884L63.6702 240.634C65.5066 239.441 68.2868 239.313 69.8776 240.346L95.8003 257.176C97.3911 258.208 97.1921 260.012 95.3557 261.205L70.3239 277.455C68.4875 278.648 65.7073 278.776 64.1165 277.745Z" fill="#5F92D3"/>
<path d="M66.5989 263.652L63.0112 261.324C62.7929 261.182 62.8186 260.932 63.0723 260.768L66.5379 258.519C66.7915 258.355 67.1752 258.335 67.3951 258.479L70.9828 260.808C71.2027 260.95 71.1738 261.199 70.9202 261.366L67.4577 263.613C67.2041 263.779 66.8172 263.797 66.5989 263.652Z" fill="#D4E9F5"/>
<path d="M38.1905 260.918L38.2644 260.965L38.6384 260.676L63.6702 244.426C65.5066 243.233 68.2868 243.105 69.8776 244.138L95.7265 260.92C97.1937 259.737 97.2707 258.131 95.8003 257.178L69.8776 240.347C68.2868 239.315 65.5066 239.443 63.6702 240.636L38.6384 256.886C36.8004 258.081 36.5998 259.886 38.1905 260.918Z" fill="#4067B1"/>
<path d="M216.174 363.511L160.775 327.546C157.375 325.338 157.802 321.482 161.727 318.933L215.219 284.208C219.146 281.659 225.085 281.384 228.485 283.589L283.884 319.554C287.286 321.761 286.859 325.617 282.932 328.165L229.44 362.892C225.514 365.441 219.574 365.716 216.174 363.511Z" fill="#A1BBE6"/>
<path d="M217.748 340.768C220.194 342.352 224.919 342.063 227.867 340.149L281.36 305.422C282.705 304.55 283.028 303.76 283.036 303.612C283.016 303.57 282.837 303.28 282.315 302.939L226.912 266.973C224.472 265.389 219.745 265.678 216.795 267.593L163.302 302.317C161.957 303.191 161.636 303.98 161.628 304.128C161.647 304.173 161.827 304.463 162.35 304.803L217.75 340.768H217.748ZM221.967 348.875C219.259 348.875 216.647 348.222 214.603 346.895H214.602L159.204 310.93C156.745 309.335 155.335 306.855 155.335 304.126C155.335 301.072 157.092 298.179 160.154 296.191L213.648 261.467C218.597 258.251 225.651 257.984 230.059 260.847L285.461 296.812C287.919 298.407 289.328 300.886 289.328 303.613C289.328 306.667 287.57 309.56 284.506 311.549L231.015 346.276C228.36 348 225.098 348.875 221.967 348.875Z" fill="#293673"/>
<path d="M286.163 281.576V260.085L243.3 260.056L228.486 250.44C225.086 248.232 219.147 248.51 215.22 251.059L201.399 260.032L158.498 260.003V282.109C158.402 283.603 159.143 285.045 160.776 286.105L216.175 322.069C219.575 324.275 225.514 323.999 229.441 321.45L282.933 286.725C285.198 285.255 286.291 283.35 286.163 281.576Z" fill="#4067B1"/>
<path d="M163.354 260.007L158.498 260.003V282.108C158.402 283.602 159.143 285.045 160.776 286.104L163.354 287.777V260.007Z" fill="#D4E9F5"/>
<path d="M217.029 322.536C219.96 323.949 224.203 323.87 227.633 322.399V297.301H217.029V322.536Z" fill="#5F92D3"/>
<path d="M216.176 300.04L160.777 264.078C157.377 261.871 157.804 258.013 161.729 255.465L215.221 220.74C219.148 218.192 225.087 217.915 228.487 220.121L283.886 256.086C287.288 258.293 286.861 262.146 282.934 264.697L229.442 299.424C225.516 301.972 219.576 302.248 216.176 300.04Z" fill="url(#paint1_linear_1000_7773)"/>
<path d="M282.933 260.468L229.44 295.193C225.514 297.741 219.575 298.018 216.175 295.812L160.775 259.847C160.016 259.357 159.461 258.779 159.079 258.156C157.91 260.268 158.44 262.562 160.775 264.078L216.175 300.04C219.575 302.248 225.514 301.972 229.44 299.424L282.933 264.697C285.983 262.717 286.909 259.95 285.581 257.779C285.049 258.742 284.162 259.668 282.933 260.468Z" fill="#081038"/>
<path d="M265.785 287.247C265.785 288.852 264.784 290.803 263.549 291.606C262.312 292.408 261.31 291.758 261.31 290.153C261.31 288.546 262.312 286.597 263.549 285.794C264.784 284.992 265.785 285.642 265.785 287.247Z" fill="#D4E9F5"/>
<path d="M272.987 282.573C272.987 284.178 271.985 286.129 270.749 286.93C269.513 287.731 268.511 287.082 268.511 285.477C268.511 283.875 269.513 281.921 270.749 281.12C271.985 280.318 272.987 280.968 272.987 282.573Z" fill="#D4E9F5"/>
<path d="M280.186 277.899C280.186 279.506 279.184 281.457 277.948 282.259C276.712 283.06 275.71 282.41 275.71 280.805C275.71 279.2 276.712 277.251 277.948 276.446C279.184 275.645 280.186 276.295 280.186 277.899Z" fill="#D4E9F5"/>
<path d="M219.452 277.745L193.526 260.916C191.935 259.884 192.136 258.079 193.974 256.884L219.006 240.634C220.842 239.441 223.622 239.313 225.213 240.346L251.136 257.176C252.727 258.208 252.528 260.012 250.691 261.205L225.659 277.455C223.823 278.648 221.043 278.776 219.452 277.745Z" fill="#5F92D3"/>
<path d="M221.934 263.652L218.347 261.324C218.128 261.182 218.154 260.932 218.408 260.768L221.873 258.519C222.127 258.355 222.511 258.335 222.731 258.479L226.318 260.808C226.538 260.95 226.509 261.199 226.256 261.366L222.793 263.613C222.54 263.779 222.153 263.797 221.934 263.652Z" fill="#D4E9F5"/>
<path d="M193.526 260.918L193.6 260.965L193.974 260.676L219.006 244.426C220.842 243.233 223.622 243.105 225.213 244.138L251.062 260.92C252.529 259.737 252.606 258.131 251.136 257.178L225.213 240.347C223.622 239.315 220.842 239.443 219.006 240.636L193.974 256.886C192.136 258.081 191.935 259.886 193.526 260.918Z" fill="#4067B1"/>
<path d="M371.513 363.511L316.113 327.546C312.714 325.338 313.141 321.482 317.065 318.933L370.558 284.208C374.484 281.659 380.423 281.384 383.823 283.589L439.223 319.554C442.624 321.761 442.197 325.617 438.271 328.165L384.778 362.892C380.852 365.441 374.913 365.716 371.513 363.511Z" fill="#A1BBE6"/>
<path d="M373.086 340.768C375.533 342.352 380.257 342.063 383.206 340.149L436.698 305.422C438.043 304.55 438.366 303.76 438.374 303.612C438.355 303.57 438.175 303.28 437.653 302.939L382.251 266.973C379.811 265.389 375.083 265.678 372.133 267.593L318.641 302.317C317.295 303.191 316.974 303.98 316.966 304.128C316.986 304.173 317.165 304.463 317.689 304.803L373.088 340.768H373.086ZM377.305 348.875C374.597 348.875 371.985 348.222 369.942 346.895H369.94L314.542 310.93C312.083 309.335 310.674 306.855 310.674 304.126C310.674 301.072 312.43 298.179 315.493 296.191L368.987 261.467C373.936 258.251 380.989 257.984 385.397 260.847L440.8 296.812C443.257 298.407 444.667 300.886 444.667 303.613C444.667 306.667 442.909 309.56 439.844 311.549L386.354 346.276C383.699 348 380.437 348.875 377.305 348.875Z" fill="#293673"/>
<path d="M441.501 281.576V260.085L398.639 260.056L383.824 250.44C380.424 248.232 374.485 248.51 370.559 251.059L356.738 260.032L313.836 260.003V282.109C313.74 283.603 314.482 285.045 316.114 286.105L371.514 322.069C374.914 324.275 380.853 323.999 384.779 321.45L438.272 286.725C440.537 285.255 441.63 283.35 441.501 281.576Z" fill="#4067B1"/>
<path d="M318.692 260.007L313.836 260.003V282.108C313.74 283.602 314.482 285.045 316.114 286.104L318.692 287.777V260.007Z" fill="#D4E9F5"/>
<path d="M372.367 322.536C375.298 323.949 379.541 323.87 382.971 322.399V297.301H372.367V322.536Z" fill="#5F92D3"/>
<path d="M371.515 300.04L316.115 264.078C312.716 261.871 313.143 258.013 317.067 255.465L370.56 220.74C374.486 218.192 380.425 217.915 383.825 220.121L439.225 256.086C442.626 258.293 442.199 262.146 438.273 264.697L384.78 299.424C380.854 301.972 374.915 302.248 371.515 300.04Z" fill="url(#paint2_linear_1000_7773)"/>
<path d="M438.271 260.468L384.779 295.193C380.852 297.741 374.913 298.018 371.513 295.812L316.114 259.847C315.355 259.357 314.799 258.779 314.417 258.156C313.249 260.268 313.778 262.562 316.114 264.078L371.513 300.04C374.913 302.248 380.852 301.972 384.779 299.424L438.271 264.697C441.321 262.717 442.247 259.95 440.92 257.779C440.387 258.742 439.501 259.668 438.271 260.468Z" fill="#081038"/>
<path d="M421.126 287.247C421.126 288.852 420.124 290.803 418.89 291.606C417.652 292.408 416.65 291.758 416.65 290.153C416.65 288.546 417.652 286.597 418.89 285.794C420.124 284.992 421.126 285.642 421.126 287.247Z" fill="#D4E9F5"/>
<path d="M428.325 282.573C428.325 284.178 427.323 286.129 426.087 286.93C424.851 287.731 423.85 287.082 423.85 285.477C423.85 283.875 424.851 281.921 426.087 281.12C427.323 280.318 428.325 280.968 428.325 282.573Z" fill="#D4E9F5"/>
<path d="M435.524 277.899C435.524 279.506 434.523 281.457 433.286 282.259C432.05 283.06 431.049 282.41 431.049 280.805C431.049 279.2 432.05 277.251 433.286 276.446C434.523 275.645 435.524 276.295 435.524 277.899Z" fill="#D4E9F5"/>
<path d="M374.79 277.745L348.864 260.916C347.274 259.884 347.474 258.079 349.312 256.884L374.344 240.634C376.18 239.441 378.961 239.313 380.551 240.346L406.474 257.176C408.065 258.208 407.866 260.012 406.03 261.205L380.998 277.455C379.161 278.648 376.381 278.776 374.79 277.745Z" fill="#5F92D3"/>
<path d="M377.273 263.652L373.685 261.324C373.467 261.182 373.492 260.932 373.746 260.768L377.212 258.519C377.465 258.355 377.849 258.335 378.069 258.479L381.657 260.808C381.877 260.95 381.848 261.199 381.594 261.366L378.132 263.613C377.878 263.779 377.491 263.797 377.273 263.652Z" fill="#D4E9F5"/>
<path d="M348.864 260.918L348.938 260.965L349.312 260.676L374.344 244.426C376.18 243.233 378.961 243.105 380.551 244.138L406.4 260.92C407.868 259.737 407.945 258.131 406.474 257.178L380.551 240.347C378.961 239.315 376.18 239.443 374.344 240.636L349.312 256.886C347.474 258.081 347.274 259.886 348.864 260.918Z" fill="#4067B1"/>
<path d="M526.847 363.511L471.447 327.546C468.048 325.338 468.475 321.482 472.399 318.933L525.892 284.208C529.818 281.659 535.757 281.384 539.157 283.589L594.557 319.554C597.958 321.761 597.531 325.617 593.605 328.165L540.112 362.892C536.186 365.441 530.247 365.716 526.847 363.511Z" fill="#A1BBE6"/>
<path d="M528.42 340.768C530.867 342.352 535.591 342.063 538.54 340.149L592.032 305.422C593.377 304.55 593.7 303.76 593.708 303.612C593.689 303.57 593.509 303.28 592.987 302.939L537.585 266.973C535.145 265.389 530.417 265.678 527.467 267.593L473.975 302.317C472.629 303.191 472.308 303.98 472.3 304.128C472.32 304.173 472.499 304.463 473.023 304.803L528.422 340.768H528.42ZM532.639 348.875C529.931 348.875 527.319 348.222 525.276 346.895H525.274L469.876 310.93C467.417 309.335 466.008 306.855 466.008 304.126C466.008 301.072 467.764 298.179 470.827 296.191L524.321 261.467C529.27 258.251 536.323 257.984 540.731 260.847L596.134 296.812C598.591 298.407 600.001 300.886 600.001 303.613C600.001 306.667 598.243 309.56 595.178 311.549L541.688 346.276C539.033 348 535.771 348.875 532.639 348.875Z" fill="#293673"/>
<path d="M596.835 281.576V260.085L553.973 260.056L539.158 250.44C535.758 248.232 529.819 248.51 525.893 251.059L512.072 260.032L469.17 260.003V282.109C469.074 283.603 469.816 285.045 471.448 286.105L526.848 322.069C530.248 324.275 536.187 323.999 540.113 321.45L593.606 286.725C595.871 285.255 596.964 283.35 596.835 281.576Z" fill="#4067B1"/>
<path d="M474.026 260.007L469.17 260.003V282.108C469.074 283.602 469.816 285.045 471.448 286.104L474.026 287.777V260.007Z" fill="#D4E9F5"/>
<path d="M527.701 322.536C530.632 323.949 534.875 323.87 538.305 322.399V297.301H527.701V322.536Z" fill="#5F92D3"/>
<path d="M526.849 300.04L471.449 264.078C468.05 261.871 468.477 258.013 472.401 255.465L525.894 220.74C529.82 218.192 535.759 217.915 539.159 220.121L594.559 256.086C597.96 258.293 597.533 262.146 593.607 264.697L540.114 299.424C536.188 301.972 530.249 302.248 526.849 300.04Z" fill="url(#paint3_linear_1000_7773)"/>
<path d="M593.605 260.468L540.113 295.193C536.186 297.741 530.247 298.018 526.847 295.812L471.448 259.847C470.689 259.357 470.133 258.779 469.751 258.156C468.583 260.268 469.112 262.562 471.448 264.078L526.847 300.04C530.247 302.248 536.186 301.972 540.113 299.424L593.605 264.697C596.655 262.717 597.581 259.95 596.254 257.779C595.721 258.742 594.835 259.668 593.605 260.468Z" fill="#081038"/>
<path d="M576.46 287.247C576.46 288.852 575.458 290.803 574.224 291.606C572.986 292.408 571.984 291.758 571.984 290.153C571.984 288.546 572.986 286.597 574.224 285.794C575.458 284.992 576.46 285.642 576.46 287.247Z" fill="#D4E9F5"/>
<path d="M583.659 282.573C583.659 284.178 582.657 286.129 581.421 286.93C580.185 287.731 579.184 287.082 579.184 285.477C579.184 283.875 580.185 281.921 581.421 281.12C582.657 280.318 583.659 280.968 583.659 282.573Z" fill="#D4E9F5"/>
<path d="M590.858 277.899C590.858 279.506 589.857 281.457 588.62 282.259C587.384 283.06 586.383 282.41 586.383 280.805C586.383 279.2 587.384 277.251 588.62 276.446C589.857 275.645 590.858 276.295 590.858 277.899Z" fill="#D4E9F5"/>
<path d="M530.124 277.745L504.198 260.916C502.608 259.884 502.808 258.079 504.646 256.884L529.678 240.634C531.514 239.441 534.295 239.313 535.885 240.346L561.808 257.176C563.399 258.208 563.2 260.012 561.364 261.205L536.332 277.455C534.495 278.648 531.715 278.776 530.124 277.745Z" fill="#5F92D3"/>
<path d="M532.607 263.652L529.019 261.324C528.801 261.182 528.826 260.932 529.08 260.768L532.546 258.519C532.799 258.355 533.183 258.335 533.403 258.479L536.991 260.808C537.21 260.95 537.182 261.199 536.928 261.366L533.466 263.613C533.212 263.779 532.825 263.797 532.607 263.652Z" fill="#D4E9F5"/>
<path d="M504.198 260.918L504.272 260.965L504.646 260.676L529.678 244.426C531.514 243.233 534.295 243.105 535.885 244.138L561.734 260.92C563.201 259.737 563.279 258.131 561.808 257.178L535.885 240.347C534.295 239.315 531.514 239.443 529.678 240.636L504.646 256.886C502.808 258.081 502.608 259.886 504.198 260.918Z" fill="#4067B1"/>
<path d="M236.496 46.2892C240.181 46.2811 243.83 47.0123 247.225 48.4389C247.144 47.7252 247.105 47.0074 247.108 46.2892C247.102 42.6898 248.056 39.1531 249.874 36.0403C251.692 32.9274 254.309 30.35 257.456 28.571C260.604 26.7921 264.17 25.8754 267.79 25.9145C271.411 25.9537 274.956 26.9472 278.064 28.7938C278.741 20.7691 282.491 13.3091 288.541 7.95396C294.591 2.59881 302.478 -0.242626 310.574 0.0162557C318.67 0.275138 326.358 3.61457 332.049 9.34514C337.74 15.0757 341 22.7599 341.157 30.8112C346.165 28.8293 351.551 27.9718 356.932 28.2997C362.312 28.6277 367.552 30.1331 372.279 32.7084C377.006 35.2837 381.102 38.8653 384.275 43.1971C387.448 47.5289 389.619 52.504 390.633 57.7668C391.647 63.0296 391.479 68.4502 390.142 73.641C388.804 78.8318 386.329 83.6647 382.894 87.7943C379.459 91.9239 375.149 95.2482 370.272 97.5296C365.395 99.811 360.071 100.993 354.68 100.991H236.496C232.882 100.991 229.305 100.284 225.967 98.9095C222.629 97.535 219.596 95.5203 217.041 92.9805C214.486 90.4407 212.46 87.4255 211.077 84.1072C209.694 80.7888 208.983 77.2321 208.983 73.6403C208.983 70.0485 209.694 66.4919 211.077 63.1735C212.46 59.8551 214.486 56.84 217.041 54.3002C219.596 51.7604 222.629 49.7457 225.967 48.3712C229.305 46.9967 232.882 46.2892 236.496 46.2892Z" fill="#E9EBF0"/>
<defs>
<linearGradient id="paint0_linear_1000_7773" x1="19.8902" y1="228.503" x2="135.938" y2="290.035" gradientUnits="userSpaceOnUse">
<stop stop-color="#D9EFFB"/>
<stop offset="0.842316" stop-color="#8DBAE5"/>
<stop offset="1" stop-color="#8DBAE5"/>
</linearGradient>
<linearGradient id="paint1_linear_1000_7773" x1="175.226" y1="228.503" x2="291.273" y2="290.035" gradientUnits="userSpaceOnUse">
<stop stop-color="#D9EFFB"/>
<stop offset="0.842316" stop-color="#8DBAE5"/>
<stop offset="1" stop-color="#8DBAE5"/>
</linearGradient>
<linearGradient id="paint2_linear_1000_7773" x1="330.564" y1="228.503" x2="446.611" y2="290.035" gradientUnits="userSpaceOnUse">
<stop stop-color="#D9EFFB"/>
<stop offset="0.842316" stop-color="#8DBAE5"/>
<stop offset="1" stop-color="#8DBAE5"/>
</linearGradient>
<linearGradient id="paint3_linear_1000_7773" x1="485.898" y1="228.503" x2="601.945" y2="290.035" gradientUnits="userSpaceOnUse">
<stop stop-color="#D9EFFB"/>
<stop offset="0.842316" stop-color="#8DBAE5"/>
<stop offset="1" stop-color="#8DBAE5"/>
</linearGradient>
</defs>
</svg>
