<svg width="520" height="418" viewBox="0 0 520 418" fill="none" xmlns="http://www.w3.org/2000/svg">
<path d="M483.703 114.695L482.414 113.951L482.26 113.863L456.868 99.2155L482.26 113.863L520.108 92.0311L482.26 70.198L444.412 92.0298L442.971 91.1972L482.26 68.5343L482.619 68.7424L522.992 92.0311L483.703 114.695ZM480.819 114.695L468.363 107.51L480.819 114.695Z" fill="#1F2F4D"/>
<path d="M405.124 114.695L424.048 103.779L405.125 114.695M402.24 114.695L380.964 102.421L402.241 114.695H402.24ZM403.683 113.863L384.759 102.946L403.683 113.863L426.634 100.623L403.683 113.863ZM441.529 92.0311L403.683 70.1994L373.611 87.5458V85.8821L403.683 68.5343L442.972 91.1985L441.529 92.0311Z" fill="#1F2F4D"/>
<path d="M444.414 137.359L470.552 122.282L444.415 137.359M442.972 136.527L405.123 114.695L403.787 113.924L403.682 113.863L426.633 100.623L441.528 92.0309L442.971 91.1984L444.412 92.0309L456.868 99.2166L482.26 113.864L480.819 114.696L468.363 107.511L442.971 92.8634L424.047 103.779L405.123 114.695L442.972 136.527L456.58 128.678L442.972 136.527ZM483.703 114.696L482.621 114.072L482.414 113.952L483.703 114.696Z" fill="#1F2F4D"/>
<path d="M483.706 160.023L482.263 159.192L444.414 137.36L443.133 136.622L442.973 136.528L456.581 128.679L480.819 114.698L482.261 113.865L482.414 113.953L482.621 114.073L483.703 114.698L522.994 137.362L483.706 160.023ZM444.414 137.36L482.263 159.192L520.11 137.362L482.261 115.529L470.552 122.283L444.414 137.36Z" fill="#1F2F4D"/>
<path d="M337.831 77.5391H337.83L339.273 76.7078L337.831 77.5391Z" fill="#1F2F4D"/>
<path d="M373.611 132.871L384.759 126.441L373.611 132.871ZM373.611 131.207L379.289 127.933L373.611 131.207ZM405.124 114.693L404.042 114.069L403.788 113.922L405.124 114.693ZM402.241 114.693L380.964 102.419L373.611 98.1781V96.5144L384.759 102.944L403.683 113.861L402.24 114.693" fill="#1F2F4D"/>
<path d="M405.125 160.022L421.695 150.465L405.127 160.023M403.684 159.191L373.611 141.844L403.684 159.191L428.566 144.838L403.684 159.191ZM444.415 137.359L443.333 136.735L443.133 136.62L444.415 137.359ZM441.531 137.359L403.683 115.526L384.759 126.443L373.611 132.873V131.209L379.289 127.935L402.24 114.695L403.683 113.862L403.788 113.924L404.042 114.071L405.124 114.695L442.973 136.527L441.531 137.358" fill="#1F2F4D"/>
<path d="M444.415 182.688L455.299 176.41L444.415 182.688ZM442.973 181.856L405.125 160.025V160.023L403.862 159.295L403.684 159.192L428.565 144.839L441.53 137.359L442.973 136.528L443.133 136.621L443.332 136.736L444.414 137.36L482.262 159.192L480.821 160.023L442.973 138.192L421.695 150.466L405.125 160.023L442.974 181.856L461.897 170.94L442.974 181.856" fill="#1F2F4D"/>
<path d="M483.704 205.352L482.49 204.65L482.262 204.519L444.414 182.687L443.151 181.959L442.973 181.856L461.895 170.94L480.819 160.023L482.262 159.192L483.704 160.023L522.994 182.689L483.704 205.352ZM444.414 182.687L482.262 204.519L520.11 182.689L482.262 160.856L455.297 176.41L444.414 182.687Z" fill="#1F2F4D"/>
<path d="M298.54 100.203H298.539L299.982 99.3719L298.54 100.203Z" fill="#1F2F4D"/>
<path d="M373.611 178.203L378.802 175.209L373.611 178.203ZM373.611 176.539V176.538L385.673 169.581L373.611 176.539ZM405.125 160.024L404.043 159.4L403.862 159.294L405.125 160.023M402.243 160.023L373.611 143.509V141.845L403.684 159.192L402.241 160.023" fill="#1F2F4D"/>
<path d="M405.127 205.352L424.051 194.436L405.128 205.352M403.685 204.52V204.519L373.611 187.173L403.685 204.519L424.963 192.246L403.685 204.52ZM444.416 182.687L443.334 182.064L443.153 181.959L444.416 182.687ZM441.532 182.687L403.684 160.856L378.802 175.209L373.611 178.203V176.54L385.673 169.582L402.241 160.023L403.684 159.192L403.862 159.295L404.043 159.4L405.125 160.024L442.973 181.856L441.532 182.687Z" fill="#1F2F4D"/>
<path d="M444.417 228.016L467.368 214.776L444.417 228.016ZM442.975 227.184L405.127 205.351L403.912 204.65L403.686 204.52L424.963 192.246L441.532 182.687L442.975 181.856L443.153 181.959L443.334 182.064L444.416 182.687L482.264 204.52L480.823 205.351L442.975 183.52L424.051 194.436L405.127 205.351L442.976 227.183L461.899 216.268L442.976 227.183M483.707 205.351L482.625 204.728L482.492 204.65L483.707 205.351Z" fill="#1F2F4D"/>
<path d="M483.708 250.68L482.452 249.955L482.266 249.847L444.418 228.015L443.219 227.323L442.977 227.183L461.899 216.268L480.823 205.351L482.265 204.519L482.492 204.65L482.625 204.728L483.707 205.351L522.998 228.015L483.708 250.68ZM444.418 228.015L482.266 249.847L520.114 228.015L482.265 206.184L467.369 214.776L444.418 228.015Z" fill="#1F2F4D"/>
<path d="M169.386 114.691L193.625 100.71L169.386 114.691ZM167.944 113.859L130.096 92.0272L128.784 91.2701L128.654 91.1946L167.944 68.533L168.303 68.7398L198.021 85.8834V87.5458L167.944 70.1967L130.096 92.0272L167.945 113.859L179.653 107.105L167.945 113.859" fill="#1F2F4D"/>
<path d="M198.022 132.875L193.337 130.172L198.022 132.874V132.875ZM198.022 131.211L181.842 121.877L198.022 131.21V131.211ZM169.387 114.692L167.945 113.86L179.654 107.106L198.022 96.5105V98.1742L193.625 100.711L169.387 114.692Z" fill="#1F2F4D"/>
<path d="M373.611 223.531L390.077 214.034L373.611 223.531ZM373.611 221.868L381.194 217.494L373.611 221.868ZM405.127 205.352L404.045 204.729L403.912 204.651L405.127 205.352ZM402.244 205.352L373.611 188.837V187.173L403.685 204.521L402.243 205.352" fill="#1F2F4D"/>
<path d="M405.128 250.68L426.207 238.521L405.129 250.68M402.244 250.68L383.32 239.763L402.245 250.68H402.244ZM403.687 249.847L391.231 242.661L403.687 249.847L416.652 242.369L403.687 249.847ZM444.417 228.015L443.335 227.391L443.218 227.323L444.417 228.015ZM441.533 228.015L403.685 206.184L390.077 214.033L373.611 223.53V221.866L381.194 217.493L402.243 205.351L403.685 204.519V204.52L403.912 204.65L404.045 204.728L405.127 205.351L442.975 227.184L441.533 228.015Z" fill="#1F2F4D"/>
<path d="M444.417 273.344L460.987 263.785L444.417 273.344ZM442.976 272.511L405.127 250.679L403.782 249.903L403.686 249.847L416.65 242.369L441.532 228.015L442.975 227.183L443.217 227.323L443.334 227.391L444.416 228.015L482.264 249.847L480.823 250.679L442.975 228.848L426.206 238.521L405.127 250.679L442.976 272.511L461.899 261.595L442.976 272.511ZM483.707 250.679L482.625 250.055L482.45 249.955L483.707 250.679Z" fill="#1F2F4D"/>
<path d="M483.708 296.008L482.396 295.251L482.266 295.175L444.418 273.344L443.107 272.586L442.977 272.511L461.899 261.595L480.823 250.679L482.265 249.847L482.451 249.955L482.625 250.055L483.707 250.679L522.998 273.344L483.708 296.008ZM444.418 273.344L482.266 295.175L520.114 273.344L482.265 251.511L460.988 263.785L444.418 273.344Z" fill="#1F2F4D"/>
<path d="M90.8079 114.691L109.732 103.775L90.8092 114.691M87.9253 114.691L48.6348 92.0272L89.3653 68.5304L89.726 68.7398L128.656 91.1946L127.213 92.0272L89.3653 70.1954L51.5186 92.0272L89.3666 113.859L108.291 102.944L89.3666 113.859L87.9253 114.691ZM130.097 92.0272L129.015 91.4028L128.786 91.2701L130.097 92.0272Z" fill="#1F2F4D"/>
<path d="M130.099 137.355L149.023 126.439L130.099 137.355ZM128.658 136.523L89.7265 114.067L89.3672 113.859L108.291 102.943L127.214 92.027L128.656 91.1944L128.787 91.2699L129.016 91.4026L130.098 92.027L167.946 113.859L166.504 114.691L128.656 92.8595L109.732 103.775L90.8085 114.691L128.658 136.523L147.58 125.606L128.658 136.523Z" fill="#1F2F4D"/>
<path d="M169.388 160.02V160.018L193.567 146.072L169.388 160.02ZM167.946 159.187L130.098 137.355L128.786 136.598L128.656 136.523L147.579 125.606L166.503 114.691L167.946 113.858L169.387 114.691L181.843 121.875L198.022 131.21V132.873L193.338 130.171L167.946 115.522L149.022 126.439L130.098 137.355L167.946 159.187L188.997 147.045L167.947 159.187" fill="#1F2F4D"/>
<path d="M198.022 178.203L186.871 171.769L198.022 178.203ZM198.022 176.539L194.78 174.669L198.022 176.539ZM169.388 160.02L167.945 159.189L188.997 147.047L198.022 141.84V143.504L193.567 146.074L169.388 160.02Z" fill="#1F2F4D"/>
<path d="M364.396 272.508L350.293 264.374L364.396 272.508L369.874 269.348L364.397 272.508M374.33 268.441L379.506 265.456L374.33 268.441ZM373.754 267.111C373.753 267.111 373.753 267.111 373.753 267.111L390.534 257.431L373.754 267.111ZM405.126 250.677L404.044 250.053L403.781 249.901L405.126 250.677ZM402.244 250.677L383.319 239.761L373.61 234.16V232.496L391.229 242.659L403.685 249.845L402.243 250.677" fill="#1F2F4D"/>
<path d="M405.128 296.008L424.052 285.091L405.13 296.008M402.245 296.008L378.636 282.388L402.246 296.008H402.245ZM403.687 295.175L391.231 287.99L403.687 295.175L426.638 281.935L403.687 295.175ZM444.418 273.344L443.336 272.719L443.107 272.586L444.418 273.344ZM441.534 273.344L403.686 251.511L379.507 265.458L374.33 268.443C374.208 267.979 374.014 267.533 373.755 267.113L390.535 257.433L402.243 250.679L403.686 249.847L403.782 249.903L404.045 250.055L405.127 250.679L442.976 272.511L441.534 273.344ZM365.331 273.05L364.396 272.51L369.875 269.35C369.969 269.464 370.014 269.563 370.014 269.638C370.014 269.921 369.608 270.578 368.49 271.223L365.331 273.05Z" fill="#1F2F4D"/>
<path d="M444.419 318.671L461.189 308.998L444.419 318.672M442.977 317.839L405.129 296.008L403.783 295.231L403.688 295.175L426.638 281.935L441.534 273.343L442.977 272.511L443.107 272.586L443.336 272.719L444.418 273.343L482.266 295.175L480.825 296.006L442.977 274.175L424.053 285.091L405.129 296.008L442.978 317.839L467.937 303.442L442.978 317.839M483.709 296.008L482.627 295.383L482.396 295.251L483.709 296.008Z" fill="#1F2F4D"/>
<path d="M483.708 341.336L482.55 340.667L482.266 340.505L444.418 318.673V318.672L443.174 317.955L442.977 317.84L467.935 303.443L480.823 296.007L482.265 295.176L482.395 295.252L482.625 295.384L483.707 296.009L522.998 318.672L483.708 341.336ZM444.418 318.672L482.266 340.505L520.114 318.672L482.265 296.84L461.187 308.999L444.418 318.672Z" fill="#1F2F4D"/>
<path d="M90.8079 160.018L112.086 147.745L90.8092 160.02M87.9253 160.018L48.6348 137.355L87.924 114.691L89.3653 113.858L89.7246 114.067L128.656 136.523L127.213 137.355L89.3653 115.522L51.5186 137.355L89.3666 159.187L114.327 144.789L89.3666 159.187L87.9253 160.018ZM130.097 137.355L129.015 136.731L128.786 136.598L130.097 137.355Z" fill="#1F2F4D"/>
<path d="M130.101 182.684L142.989 175.249L130.101 182.684ZM128.66 181.852L89.7285 159.396L89.3691 159.188L114.329 144.791L127.216 137.356L128.658 136.524L128.789 136.599L129.018 136.732L130.1 137.356L167.948 159.188L166.506 160.019L128.658 138.188L112.088 147.746L90.8104 160.019L128.66 181.852L145.23 172.294L128.66 181.852Z" fill="#1F2F4D"/>
<path d="M169.39 205.348L182.998 197.498L169.39 205.348ZM167.947 204.516L130.099 182.685V182.683L128.837 181.955L128.658 181.852L145.228 172.294L166.505 160.019L167.946 159.188L169.389 160.019V160.02L194.781 174.668L198.023 176.538V178.202L186.872 171.768L167.946 160.852L142.988 175.249L130.099 182.683L167.949 204.516L188.805 192.485L167.949 204.516" fill="#1F2F4D"/>
<path d="M198.023 221.863L169.39 205.347L168.176 204.647L167.949 204.515L188.805 192.484L198.023 187.168V188.831L182.999 197.498L169.39 205.347L198.023 221.863Z" fill="#1F2F4D"/>
<path d="M362.956 273.344L348.852 265.208L350.294 264.377L364.397 272.511L362.956 273.344Z" fill="#1F2F4D"/>
<path d="M365.84 318.671L384.762 307.755L365.84 318.672M364.397 317.839L343.561 305.82L364.397 317.839L379.915 308.888L364.397 317.839ZM405.128 296.009L404.046 295.385L403.781 295.232L405.128 296.009ZM402.245 296.009L378.635 282.389L368.359 276.461L369.8 275.628L391.231 287.991L403.686 295.176L402.244 296.008M357.913 277.341L356.969 276.796L362.955 273.343L364.396 272.511L365.331 273.051L357.913 277.341Z" fill="#1F2F4D"/>
<path d="M405.132 341.332L425.988 329.302L405.132 341.332ZM403.689 340.501L365.84 318.669L365.841 318.668L364.529 317.912L364.398 317.837L379.917 308.886L402.245 296.006V296.005L403.688 295.174L403.783 295.23L404.047 295.382L405.129 296.006L442.977 317.838L441.536 318.669L403.688 296.837L384.764 307.753L365.841 318.668L403.689 340.501L417.357 332.617L403.689 340.501ZM444.42 318.671L443.338 318.046L443.176 317.952L444.42 318.669" fill="#1F2F4D"/>
<path d="M444.421 364L459.317 355.408L444.421 364ZM441.537 364L429.082 356.814L441.537 364ZM442.98 363.169L417.587 348.52L442.98 363.167L461.903 352.252L442.98 363.169ZM483.711 341.336L482.629 340.712L482.552 340.667L483.711 341.336ZM480.827 341.336L442.979 319.504L425.988 329.304L405.131 341.334L403.689 340.503L417.357 332.619L441.536 318.671L442.979 317.84L443.177 317.955L443.338 318.048L444.42 318.673L482.268 340.504L480.827 341.336Z" fill="#1F2F4D"/>
<path d="M482.268 387.496L481.908 387.287L442.979 364.832L444.42 363.999L442.979 363.168L461.901 352.251L480.825 341.335L482.266 340.504L482.55 340.666L482.627 340.712L483.709 341.335L523 363.999L482.268 387.496ZM444.42 363.999L482.268 385.831L520.116 363.999L482.266 342.167L459.316 355.407L444.42 363.999Z" fill="#1F2F4D"/>
<path d="M90.8118 205.348L109.736 194.432L90.8131 205.348M87.9279 205.348L48.6387 182.682L87.9279 160.019L89.3692 159.188L89.7286 159.396L128.66 181.852L127.217 182.683L89.3692 160.852L51.5225 182.682L89.3705 204.516L108.295 193.6L89.3705 204.516L87.9279 205.348ZM130.101 182.685L129.019 182.06L128.838 181.955L130.101 182.683" fill="#1F2F4D"/>
<path d="M130.101 228.012L149.025 217.095L130.101 228.012ZM128.658 227.18L89.7285 204.724L89.3691 204.516L108.293 193.6L127.216 182.683L128.658 181.852L128.837 181.955L129.018 182.06L130.1 182.685L167.948 204.516L166.506 205.347L128.658 183.516L109.734 194.432L90.8104 205.347L128.66 227.179L147.582 216.264L128.66 227.18V227.179M169.39 205.347L168.308 204.724L168.176 204.648L169.39 205.347Z" fill="#1F2F4D"/>
<path d="M169.392 250.676L194.274 236.322L169.392 250.676ZM167.951 249.843H167.949L130.101 228.012L128.884 227.309L128.66 227.18L147.583 216.264L166.507 205.347L167.949 204.516L168.176 204.647L168.309 204.724L169.391 205.347L198.023 221.864V223.528L167.949 206.18L149.025 217.095L130.101 228.012L167.949 249.843L184.719 240.17L167.951 249.843Z" fill="#1F2F4D"/>
<path d="M208.681 273.34L219.405 267.153L208.681 273.34ZM207.239 272.507L205.883 271.726L207.239 272.507L217.963 266.322H217.964L207.239 272.507ZM201.581 269.245L169.39 250.676L168.078 249.918L167.949 249.843L184.717 240.17L198.022 232.495V234.159L194.272 236.322L169.39 250.676L201.583 269.245C201.583 269.245 201.583 269.245 201.581 269.245Z" fill="#1F2F4D"/>
<path d="M208.683 273.34L207.24 272.507L217.966 266.322L219.407 267.153L208.683 273.34Z" fill="#1F2F4D"/>
<path d="M326.551 341.332L345.475 330.417L326.551 341.332ZM325.108 340.501L304.322 328.51L325.108 340.501L344.032 329.584L325.109 340.501H325.108ZM365.839 318.669L364.758 318.045L364.528 317.912L365.84 318.668M362.956 318.668L342.121 306.65L343.561 305.817L364.397 317.837L362.956 318.668Z" fill="#1F2F4D"/>
<path d="M364.401 364.828V364.827V364.828ZM365.843 363.996L384.766 353.081L365.843 363.996ZM364.401 363.165L326.553 341.331L325.24 340.576L325.111 340.5L344.034 329.584L362.958 318.667L364.399 317.836L364.53 317.912L364.76 318.044L365.841 318.669L403.69 340.5L402.247 341.331L364.399 319.5L345.477 330.416L326.553 341.331L364.401 363.165L387.353 349.925L364.401 363.165Z" fill="#1F2F4D"/>
<path d="M403.691 387.496L403.33 387.287L364.4 364.832V364.831L365.843 363.999L364.4 363.168L387.353 349.928L402.247 341.335L403.69 340.504L405.132 341.335L417.587 348.521L442.98 363.17L444.422 364.001L442.98 364.833H442.979L403.691 387.496ZM365.843 363.999L403.691 385.831L441.538 364.001L429.082 356.815L403.69 342.168L384.766 353.084L365.843 363.999Z" fill="#1F2F4D"/>
<path d="M90.8118 250.676L117.775 235.122L90.8131 250.676M87.928 250.676L48.6387 228.01L87.9267 205.347L89.3692 204.516L89.7286 204.724L128.659 227.18L127.217 228.012L89.3692 206.18L51.5225 228.01L89.3705 249.843L102.259 242.409L89.3705 249.843L87.928 250.676ZM130.101 228.012L129.019 227.388L128.884 227.309L130.101 228.012Z" fill="#1F2F4D"/>
<path d="M130.103 273.34L149.027 262.423L130.103 273.34ZM128.662 272.507L89.7304 250.051L89.3711 249.843L102.259 242.409L127.218 228.011L128.66 227.179V227.18L128.884 227.309L129.02 227.388L130.102 228.011L167.95 249.843L166.508 250.676L128.66 228.844L117.776 235.122L90.8124 250.676L128.662 272.507L143.557 263.915L128.662 272.507ZM169.392 250.676L168.31 250.051L168.08 249.918L169.392 250.676Z" fill="#1F2F4D"/>
<path d="M169.392 296.004L188.316 285.087L169.392 296.004ZM167.949 295.171L130.101 273.34L128.79 272.583L128.66 272.507L143.556 263.915L166.507 250.675L167.948 249.843H167.949L168.078 249.918L168.309 250.051L169.391 250.675L201.582 269.245C201.192 269.583 200.85 269.942 200.558 270.317L167.948 251.508L149.025 262.423L130.101 273.34L167.949 295.171L182.845 286.579L167.951 295.171H167.949ZM205.797 273.34L204.525 272.606C204.74 272.423 205.008 272.231 205.339 272.04L205.883 271.725L207.239 272.507L205.797 273.34Z" fill="#1F2F4D"/>
<path d="M208.681 318.667L221.646 311.188L208.681 318.668M205.796 318.667L189.028 308.994L205.797 318.667H205.796ZM207.239 317.835L182.28 303.438L207.239 317.835L226.067 306.974L207.239 317.835ZM169.392 296.004L167.949 295.171L182.845 286.579L200.312 276.503C200.596 276.888 200.938 277.248 201.335 277.576L188.316 285.087L169.392 296.004ZM217.442 280.057L207.239 274.171L205.709 275.054L204.564 274.393C204.459 274.333 204.365 274.272 204.283 274.212L205.797 273.339L207.239 272.507L208.681 273.339L218.882 279.224L217.442 280.057Z" fill="#1F2F4D"/>
<path d="M247.973 341.332L264.963 331.531L247.973 341.332ZM246.531 340.501L208.682 318.669L208.683 318.668L207.4 317.929L207.24 317.836L226.069 306.975L227.51 307.807L221.648 311.189L208.683 318.668L246.531 340.501L265.36 329.64L246.531 340.501Z" fill="#1F2F4D"/>
<path d="M285.82 364.828V364.827V364.828ZM287.261 363.996L308.539 351.722L287.261 363.996ZM284.377 363.996L258.985 349.348L284.377 363.996ZM285.82 363.165L271.58 354.95L285.82 363.165L304.743 352.248L285.82 363.165ZM326.55 341.331L325.469 340.709L325.238 340.576L326.55 341.331ZM323.667 341.331L302.882 329.342L304.322 328.509L325.108 340.5L323.667 341.331ZM247.972 341.33L246.529 340.499L265.358 329.639L266.8 330.47L264.961 331.53L247.971 341.33" fill="#1F2F4D"/>
<path d="M325.112 387.496L324.752 387.287L285.822 364.832V364.831L287.264 363.999L285.822 363.168L304.745 352.252L323.669 341.335L325.11 340.504H325.112L325.24 340.58L325.471 340.712L326.553 341.335L364.401 363.168L365.843 363.999L364.401 364.831V364.832L325.112 387.496ZM287.264 363.999L325.112 385.831L362.96 363.999L325.11 342.168L308.541 351.726L287.264 363.999Z" fill="#1F2F4D"/>
<path d="M90.8131 296.004L104.481 288.12L90.8131 296.004ZM87.9293 296.003L48.6387 273.34L87.9267 250.677L89.3692 249.844L89.7286 250.052L128.66 272.508L127.217 273.341L89.3692 251.509L51.5225 273.34L89.3705 295.171L113.549 281.225L89.3705 295.171L87.9293 296.003ZM130.101 273.341L129.019 272.717L128.79 272.584L130.101 273.341Z" fill="#1F2F4D"/>
<path d="M130.105 318.667L143.07 311.188L130.105 318.668M127.221 318.667L108.297 307.75L127.221 318.667ZM128.664 317.835L109.74 306.919L128.664 317.835L153.545 303.482L128.664 317.835ZM166.51 296.004L128.662 274.171L104.484 288.118L90.8143 296.002L89.373 295.17L113.552 281.224L127.22 273.339L128.662 272.507L128.793 272.582L129.022 272.715L130.104 273.339L167.952 295.171L166.51 296.002" fill="#1F2F4D"/>
<path d="M169.394 341.332L188.317 330.417L169.394 341.332ZM167.951 340.501L130.103 318.669V318.668L128.814 317.925L128.662 317.836L153.544 303.483L166.509 296.003L167.95 295.172L169.393 296.005L182.281 303.439L207.239 317.836L205.798 318.668L189.029 308.995L167.95 296.836L143.068 311.189L130.103 318.668L167.951 340.501L186.875 329.584L167.953 340.501M208.681 318.669L207.6 318.045L207.4 317.929L208.682 318.668" fill="#1F2F4D"/>
<path d="M205.799 363.996L190.903 355.405L205.799 363.996ZM208.683 363.996L223.579 355.405L208.683 363.996ZM207.24 363.165L188.318 352.248L207.24 363.164L226.164 352.248L207.24 363.165ZM245.088 341.332L207.239 319.5L188.316 330.417L169.394 341.332L167.951 340.501L186.875 329.584L205.797 318.668H205.798L207.239 317.837L207.399 317.929L207.6 318.045L208.68 318.669L246.53 340.501L245.087 341.332" fill="#1F2F4D"/>
<path d="M246.531 387.492L246.171 387.284L207.24 364.828L208.683 363.995L207.24 363.164L226.164 352.247L245.087 341.331L246.53 340.5L247.972 341.331L271.581 354.951L285.82 363.165L287.261 363.997L285.82 364.828L285.819 364.829L246.531 387.492ZM208.683 363.995L246.531 385.827L284.378 363.997L258.985 349.349L246.53 342.164L223.579 355.403L208.683 363.995Z" fill="#1F2F4D"/>
<path d="M90.8138 341.332L116.952 326.255L90.8151 341.332M87.9312 341.332L48.6406 318.668L87.9299 296.004L89.3712 295.172L90.8138 296.005L109.738 306.921L128.66 317.838L127.219 318.669L108.295 307.753L89.3712 296.836L51.5245 318.668L89.3725 340.501L102.981 332.652L89.3725 340.501L87.9312 341.332ZM130.103 318.67L129.021 318.046L128.814 317.926L130.103 318.669" fill="#1F2F4D"/>
<path d="M128.664 364.828H128.662H128.664ZM130.105 363.996L154.345 350.014L130.105 363.996ZM128.664 363.165L89.7324 340.708L89.373 340.5L102.981 332.651L127.22 318.669L128.662 317.837L128.815 317.926L129.022 318.045L130.104 318.67L167.952 340.502L166.51 341.333L128.662 319.501L116.953 326.255L90.8143 341.331L128.664 363.165L140.372 356.411L128.664 363.165Z" fill="#1F2F4D"/>
<path d="M167.95 387.492L128.662 364.826L130.103 363.994L128.662 363.163L140.371 356.409L166.509 341.331L167.95 340.5L169.393 341.331L188.317 352.247L207.239 363.164L208.682 363.995L207.239 364.828L167.95 387.492ZM130.103 363.994L167.95 385.827L205.798 363.995L190.902 355.403L167.95 342.164L154.343 350.013L130.103 363.994Z" fill="#1F2F4D"/>
<path d="M89.3744 387.492L89.0151 387.283L48.6426 363.996L87.9319 341.331L89.3731 340.5L89.7325 340.708L128.664 363.164L130.105 363.996L128.664 364.828H128.662L89.3744 387.492ZM89.3731 342.164L51.5264 363.996L89.3744 385.827L127.221 363.996L89.3731 342.164Z" fill="#1F2F4D"/>
<path d="M49.029 265.988C48.2595 266.432 47.5174 266.986 46.8091 267.613C46.5019 257.634 39.2864 253.664 30.4083 258.786C23.1772 262.957 17.0502 271.887 14.8551 280.641C13.0688 280.4 10.9727 280.864 8.72026 282.164C2.24691 285.897 -3 294.978 -3 302.445C-3 309.913 2.24691 312.939 8.72026 309.205L49.029 285.953C53.8085 283.197 57.6818 276.494 57.6818 270.979C57.6818 265.467 53.8085 263.232 49.029 265.988Z" fill="#E6E8EB"/>
<path d="M361.732 327.134C361.732 329.557 360.031 332.499 357.931 333.712C355.833 334.923 354.131 333.941 354.131 331.519C354.131 329.098 355.833 326.153 357.931 324.943C360.031 323.732 361.732 324.713 361.732 327.134Z" fill="#E6E8EB"/>
<path d="M374.052 320.029C374.052 322.452 372.352 325.395 370.252 326.606C368.153 327.817 366.451 326.835 366.451 324.413C366.451 321.992 368.153 319.047 370.252 317.837C372.352 316.626 374.052 317.607 374.052 320.029Z" fill="#E6E8EB"/>
<path d="M386.37 312.924C386.37 315.346 384.67 318.29 382.57 319.501C380.471 320.712 378.77 319.73 378.77 317.309C378.77 314.887 380.471 311.943 382.57 310.732C384.67 309.521 386.37 310.502 386.37 312.924Z" fill="#E6E8EB"/>
<path d="M398.689 305.816C398.689 308.237 396.987 311.182 394.888 312.391C392.79 313.603 391.088 312.62 391.088 310.2C391.088 307.777 392.79 304.834 394.888 303.623C396.987 302.412 398.689 303.394 398.689 305.816Z" fill="#E6E8EB"/>
<path d="M184.306 395.009C184.306 397.432 182.604 400.377 180.505 401.588C178.407 402.797 176.705 401.815 176.705 399.394C176.705 396.974 178.407 394.029 180.505 392.818C182.604 391.608 184.306 392.589 184.306 395.009Z" fill="#E6E8EB"/>
<path d="M194.79 388.965C194.79 391.385 193.089 394.33 190.99 395.54C188.89 396.751 187.189 395.769 187.189 393.348C187.189 390.926 188.89 387.982 190.99 386.771C193.089 385.56 194.79 386.542 194.79 388.965Z" fill="#E6E8EB"/>
<path d="M184.306 382.916C184.306 385.336 182.604 388.282 180.505 389.494C178.407 390.703 176.705 389.723 176.705 387.3C176.705 384.88 178.407 381.935 180.505 380.725C182.604 379.514 184.306 380.494 184.306 382.916Z" fill="#E6E8EB"/>
<path d="M194.79 376.867C194.79 379.287 193.089 382.233 190.99 383.442C188.89 384.653 187.189 383.671 187.189 381.25C187.189 378.828 188.89 375.884 190.99 374.674C193.089 373.462 194.79 374.443 194.79 376.867Z" fill="#E6E8EB"/>
<path d="M149.095 91.9131L141.494 96.2969V87.528L149.095 83.1442V91.9131Z" fill="#E6E8EB"/>
<path d="M159.645 85.7529L152.043 90.1367V81.3679L159.645 76.9828V85.7529Z" fill="#E6E8EB"/>
<path d="M149.161 103.292L141.561 107.676V98.9069L149.161 94.5232V103.292Z" fill="#E6E8EB"/>
<path d="M159.645 97.2451L152.043 101.629V92.8614L159.645 88.4763V97.2451Z" fill="#E6E8EB"/>
<path d="M395.974 59.0625C393.211 59.0625 391.312 56.8615 391.312 53.054C391.312 47.6881 395.084 41.1619 399.736 38.4796C401.082 37.703 402.352 37.3387 403.479 37.3387C403.895 37.3387 404.292 37.3882 404.665 37.4844C404.561 36.6519 404.488 35.7894 404.488 34.862C404.488 23.6476 412.37 10.0084 422.092 4.40057C424.911 2.77454 427.571 2.00574 429.93 2.00574C433.357 2.00574 436.146 3.62918 437.851 6.60807C439.549 4.55537 441.495 2.82006 443.568 1.6246C445.478 0.522804 447.281 0.00117874 448.88 0.00117874C452.696 0.00117874 455.34 2.97356 455.463 8.12872C456.576 6.8227 457.838 5.71309 459.176 4.9417C460.477 4.19113 461.704 3.83601 462.793 3.83601C465.45 3.83601 467.274 5.95247 467.274 9.61298C467.274 11.5447 466.765 13.6338 465.894 15.6254C465.254 11.6032 462.811 9.32678 459.473 9.32678C457.874 9.32678 456.071 9.84841 454.161 10.9502C452.088 12.1457 450.14 13.881 448.443 15.9337C446.737 12.9548 443.948 11.3314 440.521 11.3314C438.162 11.3314 435.502 12.1001 432.684 13.7262C422.962 19.3327 415.081 32.9719 415.081 44.1889C415.081 45.1138 415.154 45.9775 415.258 46.81C414.883 46.7138 414.486 46.6643 414.069 46.6643C412.943 46.6643 411.674 47.0273 410.328 47.8039C407.53 49.4182 405.048 52.4244 403.517 55.7311L399.736 57.9126C398.383 58.6931 397.106 59.0625 395.974 59.0625Z" fill="#C1E0F0"/>
<path d="M406.567 68.3867C403.803 68.3867 401.906 66.1857 401.906 62.3782C401.906 60.241 402.504 57.9203 403.518 55.7297L459.177 23.6228C461.975 22.0098 464.441 18.9515 465.895 15.624C465.986 16.199 466.042 16.809 466.056 17.4529C467.17 16.1469 468.43 15.0373 469.77 14.2659C471.07 13.5154 472.298 13.1602 473.387 13.1602C476.044 13.1602 477.868 15.2767 477.868 18.9359C477.868 24.095 474.242 30.3688 469.77 32.9484L410.329 67.2368C408.977 68.0173 407.7 68.3867 406.567 68.3867Z" fill="#D2E7F0"/>
<path d="M403.518 55.7305C405.049 52.4238 407.53 49.4176 410.328 47.8033C411.674 47.0267 412.944 46.6637 414.07 46.6637C414.487 46.6637 414.884 46.7132 415.259 46.8094C415.154 45.9769 415.082 45.1131 415.082 44.1883C415.082 32.9713 422.962 19.3321 432.684 13.7256C435.503 12.0995 438.163 11.3308 440.522 11.3308C443.949 11.3308 446.737 12.9542 448.443 15.9331C450.141 13.8804 452.089 12.1451 454.161 10.9496C456.071 9.8478 457.874 9.32617 459.473 9.32617C462.811 9.32617 465.254 11.6026 465.895 15.6248C464.44 18.9523 461.974 22.0105 459.176 23.6236L403.518 55.7305Z" fill="#DBEAF0"/>
<path d="M480.361 23.5892C479.02 24.3619 477.761 25.4702 476.648 26.7776C476.474 19.4643 471.222 16.5414 464.752 20.2721C462.681 21.4676 460.732 23.2042 459.035 25.2569C456.155 20.2279 450.19 19.0597 443.276 23.0481C433.553 28.6559 425.674 42.2951 425.674 53.5108C425.674 54.437 425.746 55.2994 425.848 56.1332C424.463 55.7742 422.763 56.063 420.919 57.1271C416.268 59.8094 412.498 66.3369 412.498 71.7028C412.498 77.07 416.268 79.245 420.919 76.5614L480.361 42.273C484.832 39.6921 488.458 33.4195 488.458 28.2592C488.458 23.1014 484.832 21.0097 480.361 23.5892Z" fill="#E6E8EB"/>
<path d="M155.557 271.916H155.57H155.557ZM137.001 261.212V280.498L153.718 270.855V251.567L137.001 261.212ZM135.163 285.516C134.845 285.516 134.529 285.434 134.243 285.27C133.674 284.942 133.324 284.334 133.324 283.679V260.151C133.324 259.494 133.674 258.888 134.243 258.56L154.637 246.797C155.206 246.469 155.905 246.469 156.476 246.797C157.045 247.123 157.395 247.729 157.395 248.386V271.916C157.395 272.572 157.045 273.179 156.476 273.506L136.082 285.27C135.797 285.434 135.48 285.516 135.163 285.516Z" fill="#E6E8EB"/>
<path d="M121.159 400.363L91.7461 383.397L121.157 366.431L150.57 383.398L121.159 400.363Z" fill="#88C8ED"/>
<path d="M96.2168 370.654L121.157 385.041L146.096 370.654L121.156 356.27L96.2168 370.654ZM121.157 389.855C120.77 389.855 120.385 389.755 120.04 389.556L90.6275 372.59C89.9361 372.19 89.5078 371.453 89.5078 370.654C89.5078 369.857 89.9361 369.119 90.6275 368.72L120.039 351.754C120.73 351.355 121.582 351.355 122.273 351.754L151.686 368.72C152.378 369.119 152.805 369.857 152.805 370.654C152.805 371.453 152.38 372.19 151.686 372.59L122.274 389.556C121.929 389.755 121.544 389.855 121.157 389.855Z" fill="#E6E8EB"/>
<path d="M150.57 357.402L121.158 374.367V340.436L150.57 323.471V357.402Z" fill="url(#paint0_radial_258_11284)"/>
<path d="M121.159 340.434L91.748 323.468L121.158 306.503L150.569 323.468L121.159 340.434Z" fill="url(#paint1_linear_258_11284)"/>
<path d="M121.159 374.367L91.748 357.402V323.471L121.159 340.436V374.367Z" fill="url(#paint2_radial_258_11284)"/>
<path d="M110.566 356.035L102.34 351.291V341.8L110.566 346.546V356.035Z" fill="#E6E8EB"/>
<path d="M450.478 217.602L421.066 200.635L450.476 183.67L479.889 200.635L450.478 217.602Z" fill="#88C8ED"/>
<path d="M425.537 187.894L450.476 202.279L475.415 187.894L450.475 173.509L425.537 187.894ZM450.476 207.094C450.091 207.094 449.705 206.994 449.359 206.793L419.946 189.829C419.255 189.43 418.828 188.691 418.828 187.894C418.828 187.096 419.255 186.359 419.946 185.959L449.358 168.994C450.049 168.595 450.902 168.595 451.593 168.994L481.006 185.959C481.697 186.359 482.124 187.096 482.124 187.894C482.124 188.691 481.697 189.43 481.006 189.829L451.595 206.793C451.248 206.994 450.863 207.094 450.476 207.094Z" fill="#E6E8EB"/>
<path d="M479.892 174.639L450.48 191.605V157.675L479.892 140.708V174.639Z" fill="url(#paint3_radial_258_11284)"/>
<path d="M450.476 157.672L421.066 140.705L450.475 123.74L479.888 140.707L450.476 157.672Z" fill="url(#paint4_linear_258_11284)"/>
<path d="M450.476 191.605L421.066 174.639V140.708L450.476 157.675V191.605Z" fill="url(#paint5_radial_258_11284)"/>
<path d="M439.885 173.273L431.658 168.529V159.039L439.885 163.783V173.273Z" fill="#E6E8EB"/>
<path d="M442.252 140.807L450.42 135.964L458.702 140.61L450.534 145.453L442.252 140.807Z" fill="#E6E8EB"/>
<path d="M450.478 400.363L421.066 383.397L450.476 366.431L479.889 383.398L450.478 400.363Z" fill="#88C8ED"/>
<path d="M425.536 370.654L450.476 385.041L475.417 370.654L450.475 356.27L425.536 370.654ZM450.476 389.855C450.091 389.855 449.705 389.755 449.359 389.556L419.946 372.59C419.255 372.19 418.828 371.453 418.828 370.654C418.828 369.857 419.255 369.119 419.946 368.72L449.358 351.754C450.049 351.355 450.902 351.355 451.593 351.754L481.006 368.72C481.697 369.119 482.124 369.857 482.124 370.654C482.124 371.453 481.699 372.19 481.006 372.59L451.595 389.556C451.248 389.755 450.863 389.855 450.476 389.855Z" fill="#E6E8EB"/>
<path d="M479.892 357.402L450.48 374.367V340.436L479.892 323.471V357.402Z" fill="url(#paint6_radial_258_11284)"/>
<path d="M450.476 340.434L421.066 323.468L450.475 306.503L479.886 323.468L450.476 340.434Z" fill="url(#paint7_linear_258_11284)"/>
<path d="M450.476 374.367L421.066 357.402V323.471L450.476 340.436V374.367Z" fill="url(#paint8_radial_258_11284)"/>
<path d="M439.885 356.035L431.658 351.291V341.8L439.885 346.546V356.035Z" fill="#E6E8EB"/>
<path d="M121.159 217.602L91.7461 200.635L121.157 183.67L150.57 200.635L121.159 217.602Z" fill="#88C8ED"/>
<path d="M96.2181 187.894L121.157 202.279L146.095 187.894L121.156 173.509L96.2181 187.894ZM121.157 207.094C120.77 207.094 120.385 206.994 120.04 206.793L90.6275 189.829C89.9361 189.43 89.5078 188.691 89.5078 187.894C89.5078 187.096 89.9361 186.359 90.6275 185.959L120.039 168.994C120.73 168.595 121.582 168.595 122.273 168.994L151.686 185.959C152.378 186.359 152.805 187.096 152.805 187.894C152.805 188.691 152.378 189.43 151.686 189.829L122.274 206.793C121.929 206.994 121.544 207.094 121.157 207.094Z" fill="#E6E8EB"/>
<path d="M150.57 174.639L121.158 191.605V157.675L150.57 140.708V174.639Z" fill="url(#paint9_radial_258_11284)"/>
<path d="M121.159 157.672L91.748 140.705L121.158 123.74L150.569 140.707L121.159 157.672Z" fill="url(#paint10_linear_258_11284)"/>
<path d="M121.159 191.605L91.748 174.639V140.708L121.159 157.675V191.605Z" fill="url(#paint11_radial_258_11284)"/>
<path d="M110.566 173.273L102.34 168.529V159.039L110.566 163.783V173.273Z" fill="#E6E8EB"/>
<path d="M350.935 217.895L348.701 214.025L434.232 164.684L436.468 168.554L350.935 217.895Z" fill="#E6E8EB"/>
<path d="M278.877 337.439L203.446 293.928C200.682 292.333 201.029 289.548 204.22 287.707L284.169 241.47C287.361 239.629 292.189 239.427 294.953 241.022L370.385 284.533C373.149 286.13 372.801 288.913 369.61 290.755L289.662 336.992C286.469 338.834 281.642 339.034 278.877 337.439Z" fill="#88C8ED"/>
<path d="M279.994 317.906C282.065 319.1 286.06 318.891 288.542 317.459L368.489 271.222C369.608 270.577 370.014 269.92 370.014 269.636C370.014 269.469 369.782 269.168 369.265 268.869L293.835 225.358C291.763 224.162 287.769 224.372 285.286 225.805L205.339 272.04C204.221 272.686 203.815 273.342 203.815 273.627C203.815 273.793 204.046 274.096 204.565 274.394L279.994 317.906ZM283.57 323.141C281.417 323.141 279.344 322.689 277.758 321.775L202.328 278.263C200.431 277.168 199.344 275.478 199.344 273.627C199.344 271.538 200.713 269.551 203.101 268.172L283.048 221.937C286.918 219.703 292.636 219.507 296.07 221.488L371.501 265C373.398 266.093 374.485 267.783 374.485 269.636C374.485 271.726 373.115 273.713 370.727 275.089L290.78 321.326C288.699 322.528 286.08 323.141 283.57 323.141Z" fill="#E6E8EB"/>
<path d="M284.15 302.492C285.178 301.772 285.817 300.292 285.817 298.245V114.25C285.817 112.32 285.248 110.237 284.321 108.408L298.542 100.204L299.984 99.3724L337.83 77.5407L339.272 76.7095L372.09 57.7773C373.028 59.6154 373.611 61.7071 373.611 63.6505V85.8829V87.5466V96.5171V98.1809V131.21V132.874V141.846V143.509V176.539V176.54V178.204V187.173V188.837V221.867V223.531V232.499V234.162V247.646C373.611 249.768 372.918 251.272 371.823 251.96L371.826 251.968L371.67 252.058L371.628 252.083L360.361 258.575L355.887 261.153L350.294 264.377L348.851 265.208L342.864 268.658L284.15 302.492Z" fill="url(#paint12_radial_258_11284)"/>
<path d="M284.322 108.406C283.335 106.458 281.943 104.795 280.4 103.905L203.442 59.5135C202.678 59.0725 201.952 58.863 201.292 58.863C200.859 58.863 200.454 58.9541 200.09 59.1271L287.73 8.6096V8.6109C288.138 8.38456 288.596 8.2662 289.092 8.2662C289.749 8.2662 290.473 8.47433 291.236 8.9127L368.193 53.3046C369.726 54.1905 371.109 55.84 372.095 57.7743L339.272 76.709L337.83 77.5403L299.984 99.372L298.542 100.203L284.322 108.406Z" fill="url(#paint13_linear_258_11284)"/>
<path d="M280.4 302.339L203.442 257.947C200.45 256.22 198.023 251.589 198.023 247.602V63.6061C198.023 59.6204 200.45 57.7875 203.442 59.5137L280.4 103.906C283.39 105.632 285.817 110.263 285.817 114.25V298.245C285.817 302.233 283.39 304.065 280.4 302.339Z" fill="#5F92D3"/>
<path d="M282.049 102.978L205.094 58.586C203.362 57.5869 201.822 57.7859 200.83 58.8994C201.606 58.7759 202.497 58.9645 203.443 59.5108L280.401 103.903C283.391 105.629 285.818 110.261 285.818 114.247V298.242C285.818 299.921 285.385 301.212 284.662 302.023C286.334 301.758 287.468 300.042 287.468 297.317V113.322C287.468 109.336 285.042 104.704 282.049 102.978Z" fill="#E6E8EB"/>
<path d="M275.56 291.26L208.287 252.454C205.67 250.945 203.549 246.896 203.549 243.411V72.5305C203.549 69.0456 205.67 67.4443 208.287 68.9532L275.56 107.759C278.177 109.268 280.298 113.317 280.298 116.801V287.682C280.298 291.168 278.177 292.769 275.56 291.26Z" fill="url(#paint14_linear_258_11284)"/>
<path d="M275.56 291.26L208.287 252.454C205.67 250.945 203.549 246.896 203.549 243.411V72.5305C203.549 69.0456 205.67 67.4443 208.287 68.9532L275.56 107.759C278.177 109.268 280.298 113.317 280.298 116.801V287.682C280.298 291.168 278.177 292.769 275.56 291.26Z" fill="url(#paint15_linear_258_11284)"/>
<path d="M275.556 291.26L208.283 252.454C205.666 250.945 203.545 246.896 203.545 243.411V72.5305C203.545 69.0456 205.666 67.4443 208.283 68.9532L275.556 107.759C278.173 109.268 280.294 113.317 280.294 116.801V287.682C280.294 291.168 278.173 292.769 275.556 291.26Z" fill="#263C7A"/>
<path d="M277.754 289.971L210.48 251.164C207.865 249.655 205.744 245.605 205.744 242.121V71.2396C205.744 70.052 205.995 69.0893 206.424 68.3882C204.731 68.3739 203.545 69.9271 203.545 72.5326V243.413C203.545 246.898 205.666 250.947 208.283 252.456L275.556 291.262C277.28 292.257 278.784 291.893 279.613 290.536C279.043 290.533 278.414 290.35 277.754 289.971Z" fill="#4067B1"/>
<path d="M275.556 212.805L250.552 198.381L210.672 221.385L280.294 261.547V221.848C280.294 218.363 278.173 214.314 275.556 212.805Z" fill="#263C7A"/>
<path d="M275.556 177.793L250.552 163.37L210.672 186.374L280.294 226.535V186.837C280.294 183.35 278.173 179.302 275.556 177.793Z" fill="#263C7A"/>
<path d="M275.556 142.775L250.552 128.351L210.672 151.355L280.294 191.516V151.818C280.294 148.332 278.173 144.284 275.556 142.775Z" fill="#263C7A"/>
<path d="M275.556 107.759L250.552 93.3346L210.672 116.34L280.294 156.5V116.803C280.294 113.317 278.173 109.268 275.556 107.759Z" fill="#263C7A"/>
<path d="M275.556 107.761L220.2 75.828L210.672 81.324L280.294 121.484V116.804C280.294 113.318 278.173 109.27 275.556 107.761Z" fill="#263C7A"/>
<path d="M280.294 121.486L210.672 81.3246V103.457L280.294 143.617V121.486Z" fill="#5F92D3"/>
<path d="M280.294 156.501L210.672 116.339V138.471L280.294 178.633V156.501Z" fill="#5F92D3"/>
<path d="M280.294 191.516L210.672 151.355V173.488L280.294 213.648V191.516Z" fill="#5F92D3"/>
<path d="M280.294 226.532L210.672 186.371V208.504L280.294 248.664V226.532Z" fill="#5F92D3"/>
<path d="M280.294 261.549L210.672 221.387V243.519L280.294 283.68V261.549Z" fill="#5F92D3"/>
<path d="M274.152 135.73L221.711 105.48C220.232 104.626 219.031 102.335 219.031 100.362V94.4349C219.031 92.4629 220.232 91.5562 221.711 92.4096L274.152 122.66C275.631 123.514 276.832 125.806 276.832 127.776V133.704C276.832 135.678 275.631 136.583 274.152 135.73Z" fill="#263C7A"/>
<path d="M274.448 135.879C274.35 135.837 274.253 135.788 274.152 135.731L221.711 105.481C220.232 104.627 219.031 102.336 219.031 100.362C219.031 102.336 220.232 104.627 221.711 105.481L274.152 135.731C274.253 135.788 274.35 135.837 274.448 135.879ZM219.031 94.4359C219.031 92.9725 219.691 92.0958 220.637 92.0892C219.691 92.0958 219.031 92.9725 219.031 94.4359ZM220.652 92.0892C220.651 92.0892 220.65 92.0892 220.648 92.0892C220.65 92.0892 220.651 92.0892 220.652 92.0892Z" fill="#4262A9"/>
<path d="M275.207 136.047C274.97 136.047 274.715 135.992 274.448 135.876C274.35 135.835 274.253 135.785 274.152 135.728L221.711 105.479C220.232 104.624 219.031 102.333 219.031 100.36V94.4335C219.031 92.9701 219.691 92.0933 220.637 92.0868C220.64 92.0868 220.644 92.0868 220.648 92.0868C220.65 92.0868 220.651 92.0868 220.652 92.0868C220.976 92.0881 221.334 92.1909 221.711 92.4081L221.778 92.4471C221.721 92.7047 221.681 92.9831 221.681 93.2979V99.2257C221.681 101.198 222.881 103.489 224.362 104.343L276.734 134.554C276.522 135.501 275.954 136.047 275.207 136.047Z" fill="#242F64"/>
<path d="M257.699 119.484L226.143 101.281C225.621 100.981 225.199 100.176 225.199 99.4797C225.199 98.7864 225.621 98.4677 226.143 98.7695L257.699 116.972C258.22 117.272 258.643 118.078 258.643 118.772C258.643 119.467 258.22 119.786 257.699 119.484Z" fill="#E6E8EB"/>
<path d="M274.152 170.53L221.711 140.281C220.232 139.425 219.031 137.136 219.031 135.162V129.234C219.031 127.264 220.232 126.357 221.711 127.21L274.152 157.461C275.631 158.314 276.832 160.606 276.832 162.577V168.505C276.832 170.478 275.631 171.384 274.152 170.53Z" fill="#263C7A"/>
<path d="M274.379 170.648C274.375 170.646 274.372 170.645 274.369 170.643C274.372 170.645 274.375 170.646 274.379 170.648ZM274.362 170.641C274.293 170.607 274.223 170.57 274.152 170.53L221.711 140.281C220.232 139.425 219.031 137.135 219.031 135.162C219.031 137.135 220.232 139.425 221.711 140.281L274.152 170.53C274.223 170.57 274.293 170.607 274.362 170.641ZM219.031 129.163C219.044 128.297 219.293 127.646 219.694 127.266C219.293 127.646 219.044 128.297 219.031 129.163ZM219.697 127.265C219.698 127.262 219.7 127.261 219.702 127.259C219.7 127.261 219.698 127.262 219.697 127.265Z" fill="#4262A9"/>
<path d="M275.207 170.848C274.951 170.848 274.672 170.783 274.379 170.647C274.375 170.645 274.372 170.643 274.369 170.642C274.366 170.641 274.365 170.64 274.362 170.64C274.293 170.606 274.223 170.569 274.152 170.529L221.711 140.28C220.232 139.424 219.031 137.134 219.031 135.161V129.233C219.031 129.21 219.031 129.185 219.031 129.161C219.044 128.296 219.293 127.645 219.694 127.265C219.695 127.264 219.695 127.264 219.697 127.264C219.698 127.261 219.7 127.26 219.702 127.258C219.961 127.016 220.282 126.888 220.647 126.888C220.974 126.888 221.333 126.992 221.711 127.21L221.778 127.248C221.721 127.505 221.681 127.784 221.681 128.099V134.027C221.681 136 222.881 138.289 224.362 139.144L276.734 169.354C276.522 170.301 275.954 170.848 275.207 170.848Z" fill="#242F64"/>
<path d="M257.699 154.285L226.143 136.082C225.621 135.782 225.199 134.976 225.199 134.282C225.199 133.587 225.621 133.268 226.143 133.57L257.699 151.773C258.22 152.073 258.643 152.878 258.643 153.572C258.643 154.268 258.22 154.586 257.699 154.285Z" fill="#E6E8EB"/>
<path d="M274.152 205.655L221.711 175.406C220.232 174.551 219.031 172.26 219.031 170.287V164.36C219.031 162.388 220.232 161.48 221.711 162.336L274.152 192.586C275.631 193.439 276.832 195.731 276.832 197.703V203.63C276.832 205.602 275.631 206.51 274.152 205.655Z" fill="#263C7A"/>
<path d="M219.031 164.359C219.031 162.893 219.694 162.015 220.643 162.013C219.694 162.015 219.031 162.893 219.031 164.359ZM221.778 162.374L221.711 162.335L221.778 162.373C221.778 162.373 221.778 162.373 221.778 162.374ZM221.711 162.335C221.695 162.326 221.679 162.317 221.663 162.308C221.679 162.317 221.695 162.326 221.711 162.335ZM220.651 162.013C220.65 162.013 220.648 162.013 220.647 162.013C220.648 162.013 220.65 162.013 220.651 162.013Z" fill="#4262A9"/>
<path d="M275.207 205.973C274.884 205.973 274.527 205.87 274.152 205.654L221.711 175.405C220.232 174.55 219.031 172.259 219.031 170.286V164.359C219.031 162.893 219.694 162.015 220.643 162.013C220.644 162.013 220.646 162.013 220.647 162.013C220.648 162.013 220.65 162.013 220.651 162.013C220.962 162.014 221.305 162.109 221.663 162.308C221.679 162.317 221.695 162.326 221.711 162.335L221.778 162.374C221.721 162.633 221.681 162.909 221.681 163.224V169.152C221.681 171.125 222.881 173.414 224.362 174.27L276.734 204.479C276.522 205.426 275.954 205.973 275.207 205.973Z" fill="#242F64"/>
<path d="M257.699 189.41L226.143 171.207C225.621 170.907 225.199 170.101 225.199 169.406C225.199 168.713 225.621 168.394 226.143 168.693L257.699 186.898C258.22 187.198 258.643 188.004 258.643 188.697C258.643 189.392 258.22 189.711 257.699 189.41Z" fill="#CFE4F0"/>
<path d="M274.152 241.101L221.711 210.852C220.232 209.996 219.031 207.706 219.031 205.733V199.805C219.031 197.834 220.232 196.927 221.711 197.781L274.152 228.031C275.631 228.885 276.832 231.177 276.832 233.148V239.075C276.832 241.048 275.631 241.954 274.152 241.101Z" fill="#263C7A"/>
<path d="M274.396 241.227C274.393 241.225 274.391 241.224 274.388 241.223C274.391 241.224 274.393 241.225 274.396 241.227ZM274.38 241.219C274.305 241.184 274.229 241.145 274.152 241.1L221.711 210.851C220.232 209.995 219.031 207.706 219.031 205.732C219.031 207.706 220.232 209.995 221.711 210.851L274.152 241.1C274.229 241.145 274.305 241.184 274.38 241.219ZM219.031 199.804C219.031 198.342 219.691 197.466 220.637 197.459C219.691 197.466 219.031 198.342 219.031 199.804ZM220.652 197.459C220.651 197.459 220.65 197.459 220.648 197.459C220.65 197.459 220.651 197.459 220.652 197.459Z" fill="#4262A9"/>
<path d="M275.207 241.422C274.954 241.422 274.682 241.359 274.396 241.229C274.393 241.228 274.391 241.227 274.388 241.225C274.385 241.224 274.383 241.223 274.38 241.222C274.305 241.186 274.229 241.147 274.152 241.103L221.711 210.854C220.232 209.998 219.031 207.708 219.031 205.735V199.807C219.031 198.345 219.691 197.468 220.637 197.462C220.64 197.462 220.644 197.462 220.648 197.462C220.65 197.462 220.651 197.462 220.652 197.462C220.976 197.463 221.334 197.566 221.711 197.783L221.778 197.822C221.721 198.08 221.681 198.358 221.681 198.673V204.601C221.681 206.573 222.881 208.864 224.362 209.718L276.734 239.929C276.522 240.876 275.954 241.422 275.207 241.422Z" fill="#242F64"/>
<path d="M257.699 224.855L226.143 206.652C225.621 206.352 225.199 205.547 225.199 204.851C225.199 204.157 225.621 203.839 226.143 204.139L257.699 222.343C258.22 222.643 258.643 223.449 258.643 224.142C258.643 224.838 258.22 225.157 257.699 224.855Z" fill="#EE1696"/>
<path d="M274.152 275.846L221.711 245.597C220.232 244.742 219.031 242.452 219.031 240.478V234.552C219.031 232.58 220.232 231.674 221.711 232.528L274.152 262.777C275.631 263.632 276.832 265.922 276.832 267.894V273.821C276.832 275.793 275.631 276.701 274.152 275.846Z" fill="#263C7A"/>
<path d="M219.031 234.551C219.031 233.089 219.691 232.212 220.637 232.205C219.691 232.212 219.031 233.089 219.031 234.551ZM221.778 232.566L221.711 232.527L221.778 232.564C221.778 232.564 221.778 232.564 221.778 232.566ZM221.711 232.527C221.689 232.512 221.665 232.501 221.642 232.488C221.665 232.501 221.689 232.512 221.711 232.527ZM220.652 232.205C220.651 232.205 220.648 232.205 220.647 232.205C220.648 232.205 220.651 232.205 220.652 232.205Z" fill="#4262A9"/>
<path d="M275.207 276.164C274.884 276.164 274.527 276.061 274.152 275.845L221.711 245.596C220.232 244.741 219.031 242.451 219.031 240.477V234.551C219.031 233.089 219.691 232.212 220.637 232.205C220.639 232.205 220.643 232.205 220.647 232.205C220.648 232.205 220.651 232.205 220.652 232.205C220.957 232.207 221.291 232.298 221.642 232.488C221.665 232.501 221.689 232.512 221.711 232.527L221.778 232.566C221.721 232.825 221.681 233.1 221.681 233.416V239.343C221.681 241.316 222.881 243.606 224.362 244.46L276.734 274.671C276.522 275.616 275.954 276.164 275.207 276.164Z" fill="#242F64"/>
<path d="M257.699 259.602L226.143 241.398C225.621 241.099 225.199 240.291 225.199 239.598C225.199 238.904 225.621 238.586 226.143 238.885L257.699 257.09C258.22 257.389 258.643 258.196 258.643 258.889C258.643 259.584 258.22 259.902 257.699 259.602Z" fill="#CFE4F0"/>
<path d="M216.154 106.621L210.672 103.457L216.154 106.62V106.621ZM216.154 84.4889L210.672 81.3252L216.154 84.4889V84.4876V84.4889Z" fill="#263C7A"/>
<path d="M216.154 84.4883L210.672 81.3247L216.154 84.487" fill="#263C7A"/>
<path d="M216.154 106.62L210.672 103.457V81.3252L216.154 84.4889V106.621" fill="#3E63AB"/>
<path d="M216.154 141.637L210.672 138.473L216.154 141.635V141.637Z" fill="#263C7A"/>
<path d="M216.154 141.635L210.672 138.473V116.341L216.154 119.504V141.637" fill="#3E63AB"/>
<path d="M216.154 176.648L210.672 173.486V151.353L216.154 154.516V176.648Z" fill="#3E63AB"/>
<path d="M216.154 189.535L210.672 186.373L216.154 189.535Z" fill="#263C7A"/>
<path d="M216.154 211.664L210.672 208.502V186.37L216.154 189.532V211.664Z" fill="#3E63AB"/>
<path d="M216.154 246.684L210.672 243.52L216.154 246.682V246.684Z" fill="#263C7A"/>
<path d="M216.154 224.551L210.672 221.387L216.154 224.549V224.551Z" fill="#263C7A"/>
<path d="M216.154 246.682L210.672 243.52V221.388L216.154 224.551V246.684" fill="#3E63AB"/>
<path d="M263.915 121.669C263.915 122.376 263.419 122.664 262.806 122.309C262.191 121.956 261.695 121.096 261.695 120.389C261.695 119.682 262.191 119.395 262.806 119.747C263.419 120.102 263.915 120.962 263.915 121.669Z" fill="#CFE4F0"/>
<path d="M268.62 124.384C268.62 125.091 268.123 125.379 267.51 125.024C266.896 124.671 266.4 123.811 266.4 123.104C266.4 122.397 266.896 122.11 267.51 122.462C268.123 122.817 268.62 123.677 268.62 124.384Z" fill="#EE1696"/>
<path d="M273.325 127.098C273.325 127.806 272.828 128.093 272.215 127.738C271.603 127.386 271.105 126.525 271.105 125.817C271.105 125.112 271.603 124.825 272.215 125.177C272.828 125.532 273.325 126.392 273.325 127.098Z" fill="#CFE4F0"/>
<path d="M263.915 156.669C263.915 157.375 263.419 157.663 262.806 157.31C262.191 156.955 261.695 156.095 261.695 155.389C261.695 154.681 262.191 154.394 262.806 154.749C263.419 155.102 263.915 155.961 263.915 156.669Z" fill="#EE1696"/>
<path d="M268.62 159.384C268.62 160.091 268.123 160.378 267.51 160.024C266.896 159.671 266.4 158.811 266.4 158.104C266.4 157.397 266.896 157.109 267.51 157.464C268.123 157.817 268.62 158.677 268.62 159.384Z" fill="#CFE4F0"/>
<path d="M273.325 162.099C273.325 162.806 272.828 163.093 272.215 162.739C271.603 162.385 271.105 161.526 271.105 160.818C271.105 160.112 271.603 159.824 272.215 160.178C272.828 160.532 273.325 161.392 273.325 162.099Z" fill="#E6E8EB"/>
<path d="M263.915 191.932C263.915 192.639 263.419 192.924 262.806 192.572C262.191 192.218 261.695 191.358 261.695 190.65C261.695 189.943 262.191 189.658 262.806 190.01C263.419 190.364 263.915 191.224 263.915 191.932Z" fill="#E6E8EB"/>
<path d="M268.62 194.646C268.62 195.354 268.123 195.639 267.51 195.286C266.896 194.933 266.4 194.073 266.4 193.365C266.4 192.657 266.896 192.373 267.51 192.725C268.123 193.079 268.62 193.939 268.62 194.646Z" fill="#EE1696"/>
<path d="M273.325 197.361C273.325 198.069 272.828 198.354 272.215 198.001C271.603 197.647 271.105 196.788 271.105 196.08C271.105 195.372 271.603 195.087 272.215 195.44C272.828 195.792 273.325 196.654 273.325 197.361Z" fill="#E6E8EB"/>
<path d="M263.915 226.681C263.915 227.389 263.419 227.675 262.806 227.321C262.191 226.967 261.695 226.107 261.695 225.4C261.695 224.692 262.191 224.407 262.806 224.76C263.419 225.113 263.915 225.973 263.915 226.681Z" fill="#E6E8EB"/>
<path d="M268.62 229.396C268.62 230.102 268.123 230.39 267.51 230.036C266.896 229.682 266.4 228.822 266.4 228.115C266.4 227.407 266.896 227.121 267.51 227.475C268.123 227.827 268.62 228.688 268.62 229.396Z" fill="#CFE4F0"/>
<path d="M273.325 232.11C273.325 232.818 272.828 233.104 272.215 232.751C271.603 232.398 271.105 231.538 271.105 230.83C271.105 230.123 271.603 229.836 272.215 230.19C272.828 230.543 273.325 231.404 273.325 232.11Z" fill="#CFE4F0"/>
<path d="M263.915 261.904C263.915 262.611 263.419 262.897 262.806 262.544C262.191 262.19 261.695 261.33 261.695 260.622C261.695 259.916 262.191 259.63 262.806 259.982C263.419 260.337 263.915 261.197 263.915 261.904Z" fill="#E6E8EB"/>
<path d="M268.62 264.618C268.62 265.326 268.123 265.612 267.51 265.258C266.896 264.905 266.4 264.045 266.4 263.337C266.4 262.631 266.896 262.345 267.51 262.697C268.123 263.052 268.62 263.912 268.62 264.618Z" fill="#EE1696"/>
<path d="M273.325 267.333C273.325 268.041 272.828 268.327 272.215 267.973C271.603 267.619 271.105 266.76 271.105 266.052C271.105 265.344 271.603 265.059 272.215 265.412C272.828 265.767 273.325 266.627 273.325 267.333Z" fill="#CFE4F0"/>
<path d="M298.706 121.539V275.217L361.97 238.724V85.0457L298.706 121.539ZM297.408 277.465V120.79L297.732 120.604L363.268 82.7991V239.474L362.944 239.659L297.408 277.465Z" fill="#263C7A"/>
<path d="M346.246 153.293L316.86 170.244C314.885 171.382 313.285 170.173 313.285 167.544V151.265C313.285 148.636 314.885 145.581 316.86 144.442L346.246 127.492C348.218 126.352 349.82 127.561 349.82 130.191V146.468C349.82 149.099 348.218 152.154 346.246 153.293Z" fill="#263C7A"/>
<path d="M346.958 127.176C347.126 127.632 347.223 128.177 347.223 128.808V145.088C347.223 147.717 345.622 150.773 343.65 151.911L314.263 168.862C314.02 169.003 313.78 169.107 313.551 169.178C314.081 170.614 315.36 171.11 316.86 170.245L346.246 153.294C348.218 152.156 349.82 149.1 349.82 146.47V130.192C349.82 127.887 348.591 126.676 346.958 127.176Z" fill="#5F92D3"/>
<path d="M340.877 143.49C341.421 143.176 341.862 143.431 341.862 144.058V147.767C341.862 148.393 341.421 149.155 340.877 149.467C340.334 149.781 339.893 149.527 339.893 148.901V145.193C339.893 144.567 340.334 143.805 340.877 143.49Z" fill="#E6E8EB"/>
<path d="M336.661 146.387C337.204 146.073 337.645 146.327 337.645 146.955V150.199C337.645 150.825 337.204 151.587 336.661 151.901C336.118 152.214 335.678 151.961 335.678 151.334V148.089C335.678 147.462 336.118 146.7 336.661 146.387Z" fill="#CFE4F0"/>
<path d="M332.444 145.196C332.989 144.883 333.429 145.137 333.429 145.764V152.628C333.429 153.254 332.989 154.016 332.444 154.33C331.901 154.645 331.461 154.39 331.461 153.763V146.898C331.461 146.271 331.901 145.509 332.444 145.196Z" fill="#EE1696"/>
<path d="M328.231 143.674C328.774 143.361 329.214 143.614 329.214 144.241V155.062C329.214 155.689 328.774 156.45 328.231 156.764C327.686 157.078 327.246 156.823 327.246 156.196V145.377C327.246 144.749 327.686 143.986 328.231 143.674Z" fill="#CFE4F0"/>
<path d="M324.015 147.238C324.559 146.924 324.998 147.178 324.998 147.806V157.491C324.998 158.119 324.559 158.88 324.015 159.194C323.472 159.507 323.031 159.254 323.031 158.627V148.941C323.031 148.314 323.472 147.553 324.015 147.238Z" fill="#CFE4F0"/>
<path d="M319.799 154.098C320.342 153.785 320.783 154.038 320.783 154.665V159.925C320.783 160.553 320.342 161.315 319.799 161.627C319.255 161.941 318.814 161.687 318.814 161.06V155.8C318.814 155.173 319.255 154.412 319.799 154.098Z" fill="#E6E8EB"/>
<path d="M339.908 141.618C339.908 142.236 340.342 142.484 340.876 142.177C341.41 141.868 341.844 141.118 341.844 140.503C341.844 139.886 341.41 139.637 340.876 139.945C340.342 140.252 339.908 141.001 339.908 141.618Z" fill="#EE1696"/>
<path d="M339.908 138.131C339.908 138.747 340.342 138.996 340.876 138.689C341.41 138.38 341.844 137.631 341.844 137.015C341.844 136.398 341.41 136.148 340.876 136.457C340.342 136.766 339.908 137.514 339.908 138.131Z" fill="#E6E8EB"/>
<path d="M452.714 140.707H448.242V54.0279H452.714V140.707Z" fill="#E6E8EB"/>
<path d="M280.82 416.927L235.887 391.006C233.129 389.415 233.476 386.636 236.659 384.799L280.046 359.772C283.23 357.935 288.047 357.737 290.805 359.326L335.738 385.247C338.497 386.837 338.151 389.616 334.966 391.452L291.58 416.481C288.395 418.318 283.578 418.516 280.82 416.927Z" fill="#88C8ED"/>
<path d="M282.096 400.536C284.08 401.678 287.912 401.47 290.304 400.09L333.69 375.062C334.781 374.434 335.043 373.864 335.05 373.757C335.034 373.727 334.888 373.518 334.465 373.272L289.529 347.351C287.55 346.21 283.716 346.418 281.323 347.798L237.936 372.824C236.845 373.454 236.585 374.022 236.578 374.129C236.594 374.162 236.74 374.371 237.164 374.615L282.097 400.536H282.096ZM285.518 406.379C283.321 406.379 281.203 405.908 279.546 404.952H279.544L234.612 379.032C232.618 377.882 231.475 376.095 231.475 374.128C231.475 371.927 232.899 369.841 235.383 368.409L278.771 343.383C282.785 341.065 288.506 340.872 292.081 342.936L337.017 368.857C339.01 370.006 340.153 371.793 340.153 373.758C340.153 375.959 338.728 378.044 336.242 379.478L292.857 404.506C290.703 405.748 288.058 406.379 285.518 406.379Z" fill="#E6E8EB"/>
<path d="M337.586 357.872V342.383L302.821 342.362L290.805 335.431C288.048 333.84 283.231 334.041 280.046 335.877L268.836 342.345L234.04 342.324V358.255C233.962 359.332 234.563 360.372 235.887 361.136L280.821 387.055C283.578 388.645 288.396 388.446 291.58 386.609L334.967 361.583C336.804 360.523 337.69 359.15 337.586 357.872Z" fill="#4067B1"/>
<path d="M285.812 334.366C283.794 334.415 281.7 334.922 280.044 335.877L268.834 342.345L234.038 342.324V358.255C233.96 359.332 234.561 360.372 235.885 361.136L280.819 387.055C282.143 387.82 283.945 388.166 285.812 388.121V334.366Z" fill="url(#paint16_radial_258_11284)"/>
<path d="M237.978 342.329L234.04 342.326V358.258C233.962 359.335 234.563 360.374 235.887 361.138L237.978 362.344V342.329Z" fill="#CFE4F0"/>
<path d="M281.514 387.394C283.891 388.412 287.332 388.355 290.114 387.295V369.207H281.514V387.394Z" fill="#5F92D3"/>
<path d="M280.822 371.183L235.889 345.264C233.131 343.674 233.478 340.894 236.661 339.057L280.047 314.031C283.232 312.194 288.049 311.995 290.807 313.584L335.74 339.505C338.499 341.096 338.153 343.873 334.968 345.711L291.582 370.739C288.397 372.576 283.58 372.774 280.822 371.183Z" fill="url(#paint17_linear_258_11284)"/>
<path d="M334.966 342.663L291.58 367.69C288.395 369.526 283.578 369.726 280.82 368.136L235.887 342.216C235.271 341.862 234.821 341.445 234.511 340.997C233.563 342.519 233.993 344.172 235.887 345.264L280.82 371.183C283.578 372.774 288.395 372.576 291.58 370.739L334.966 345.711C337.44 344.284 338.191 342.29 337.115 340.725C336.682 341.419 335.964 342.087 334.966 342.663Z" fill="#E6E8EB"/>
<path d="M321.06 361.963C321.06 363.119 320.247 364.525 319.246 365.104C318.242 365.682 317.43 365.213 317.43 364.057C317.43 362.899 318.242 361.494 319.246 360.916C320.247 360.338 321.06 360.806 321.06 361.963Z" fill="#CFE4F0"/>
<path d="M326.899 358.593C326.899 359.749 326.087 361.156 325.084 361.733C324.082 362.311 323.27 361.843 323.27 360.686C323.27 359.531 324.082 358.123 325.084 357.546C326.087 356.968 326.899 357.436 326.899 358.593Z" fill="#CFE4F0"/>
<path d="M332.739 355.224C332.739 356.382 331.927 357.788 330.924 358.366C329.922 358.943 329.109 358.475 329.109 357.319C329.109 356.162 329.922 354.757 330.924 354.177C331.927 353.6 332.739 354.068 332.739 355.224Z" fill="#CFE4F0"/>
<path d="M283.479 355.116L262.451 342.986C261.16 342.242 261.323 340.942 262.814 340.08L283.117 328.369C284.606 327.509 286.861 327.417 288.151 328.161L309.177 340.291C310.467 341.035 310.306 342.335 308.816 343.195L288.513 354.906C287.024 355.766 284.769 355.858 283.479 355.116Z" fill="#5F92D3"/>
<path d="M285.491 344.957L282.581 343.279C282.404 343.176 282.425 342.997 282.63 342.878L285.441 341.258C285.647 341.139 285.958 341.125 286.137 341.229L289.046 342.907C289.225 343.01 289.201 343.189 288.996 343.309L286.187 344.929C285.982 345.048 285.668 345.061 285.491 344.957Z" fill="#CFE4F0"/>
<path d="M262.451 342.985L262.511 343.02L262.814 342.811L283.117 331.1C284.606 330.24 286.861 330.148 288.151 330.892L309.117 342.987C310.307 342.135 310.369 340.977 309.177 340.29L288.151 328.16C286.861 327.416 284.606 327.509 283.117 328.368L262.814 340.08C261.323 340.941 261.16 342.242 262.451 342.985Z" fill="#4067B1"/>
<path d="M445.483 302.56L400.551 276.639C397.794 275.049 398.139 272.27 401.325 270.433L444.711 245.405C447.894 243.569 452.712 243.37 455.469 244.959L500.403 270.879C503.16 272.47 502.815 275.249 499.629 277.087L456.244 302.113C453.059 303.95 448.242 304.149 445.483 302.56Z" fill="#88C8ED"/>
<path d="M446.76 286.168C448.743 287.309 452.576 287.101 454.97 285.722L498.354 260.696C499.445 260.066 499.707 259.498 499.714 259.391C499.698 259.36 499.552 259.15 499.129 258.904L454.194 232.984C452.214 231.843 448.38 232.052 445.988 233.43L402.602 258.458C401.511 259.088 401.249 259.656 401.242 259.763C401.258 259.794 401.404 260.004 401.827 260.248L446.762 286.168H446.76ZM450.182 292.012C447.984 292.012 445.866 291.541 444.21 290.585H444.208L399.275 264.664C397.282 263.515 396.139 261.727 396.139 259.762C396.139 257.561 397.564 255.475 400.05 254.043L443.435 229.015C447.452 226.697 453.174 226.506 456.746 228.569L501.681 254.489C503.674 255.638 504.817 257.425 504.817 259.392C504.817 261.593 503.392 263.678 500.906 265.112L457.522 290.139C455.367 291.381 452.722 292.012 450.182 292.012Z" fill="#E6E8EB"/>
<path d="M502.251 243.51V228.02L467.487 228L455.47 221.068C452.712 219.478 447.895 219.677 444.712 221.514L433.499 227.982L398.704 227.962V243.892C398.625 244.969 399.226 246.009 400.552 246.772L445.484 272.692C448.243 274.282 453.06 274.083 456.244 272.246L499.63 247.22C501.468 246.16 502.353 244.788 502.251 243.51Z" fill="#4067B1"/>
<path d="M450.482 220.003C448.464 220.052 446.369 220.561 444.715 221.514L433.503 227.982L398.708 227.962V243.892C398.629 244.969 399.23 246.009 400.556 246.772L445.488 272.692C446.814 273.457 448.616 273.803 450.482 273.758V220.003Z" fill="url(#paint18_radial_258_11284)"/>
<path d="M402.641 227.965L398.704 227.963V243.893C398.625 244.97 399.226 246.01 400.552 246.773L402.641 247.98V227.965Z" fill="#CFE4F0"/>
<path d="M446.176 273.03C448.554 274.048 451.994 273.993 454.775 272.932V254.844H446.176V273.03Z" fill="#5F92D3"/>
<path d="M445.485 256.817L400.553 230.897C397.796 229.306 398.141 226.526 401.327 224.69L444.713 199.663C447.896 197.826 452.714 197.627 455.471 199.217L500.405 225.137C503.162 226.728 502.817 229.507 499.631 231.345L456.246 256.371C453.061 258.208 448.244 258.407 445.485 256.817Z" fill="url(#paint19_linear_258_11284)"/>
<path d="M499.628 228.296L456.243 253.322C453.058 255.159 448.241 255.358 445.482 253.768L400.55 227.848C399.936 227.494 399.483 227.078 399.174 226.629C398.228 228.151 398.657 229.805 400.55 230.897L445.482 256.817C448.241 258.407 453.058 258.208 456.243 256.371L499.628 231.345C502.105 229.916 502.856 227.922 501.778 226.357C501.346 227.052 500.627 227.719 499.628 228.296Z" fill="#E6E8EB"/>
<path d="M485.724 247.597C485.724 248.752 484.912 250.158 483.909 250.737C482.908 251.315 482.096 250.846 482.096 249.69C482.096 248.533 482.908 247.127 483.909 246.55C484.912 245.972 485.724 246.44 485.724 247.597Z" fill="#CFE4F0"/>
<path d="M491.563 244.228C491.563 245.386 490.751 246.791 489.75 247.37C488.746 247.947 487.934 247.479 487.934 246.321C487.934 245.166 488.746 243.76 489.75 243.181C490.751 242.604 491.563 243.072 491.563 244.228Z" fill="#CFE4F0"/>
<path d="M497.401 240.859C497.401 242.015 496.589 243.421 495.586 243.999C494.584 244.576 493.771 244.108 493.771 242.952C493.771 241.796 494.584 240.39 495.586 239.811C496.589 239.234 497.401 239.701 497.401 240.859Z" fill="#CFE4F0"/>
<path d="M448.141 240.748L427.115 228.619C425.825 227.875 425.987 226.574 427.476 225.714L447.779 214.003C449.27 213.143 451.523 213.049 452.814 213.793L473.841 225.924C475.132 226.668 474.969 227.968 473.478 228.827L453.177 240.54C451.686 241.398 449.432 241.492 448.141 240.748Z" fill="#5F92D3"/>
<path d="M450.154 230.59L447.245 228.912C447.067 228.809 447.09 228.631 447.296 228.511L450.104 226.891C450.311 226.772 450.622 226.759 450.801 226.862L453.71 228.54C453.889 228.642 453.867 228.823 453.661 228.942L450.851 230.562C450.644 230.681 450.333 230.694 450.154 230.59Z" fill="#CFE4F0"/>
<path d="M427.115 228.619L427.174 228.652L427.476 228.446L447.779 216.733C449.27 215.874 451.523 215.781 452.814 216.525L473.782 228.62C474.97 227.769 475.033 226.611 473.841 225.923L452.814 213.793C451.523 213.049 449.27 213.143 447.779 214.002L427.476 225.714C425.987 226.574 425.825 227.874 427.115 228.619Z" fill="#4067B1"/>
<path d="M116.165 302.56L71.2305 276.639C68.473 275.049 68.8193 272.27 72.0039 270.433L115.39 245.405C118.575 243.569 123.392 243.37 126.15 244.959L171.083 270.879C173.841 272.47 173.494 275.249 170.311 277.087L126.925 302.113C123.739 303.95 118.923 304.149 116.165 302.56Z" fill="#88C8ED"/>
<path d="M117.439 286.168C119.42 287.309 123.251 287.101 125.647 285.722L169.032 260.696C170.123 260.067 170.385 259.498 170.39 259.391C170.376 259.36 170.229 259.15 169.805 258.904L124.872 232.984C122.892 231.843 119.058 232.052 116.666 233.43L73.2793 258.458C72.1883 259.088 71.9266 259.656 71.9201 259.763C71.9344 259.794 72.0815 260.004 72.5047 260.248L117.441 286.168H117.439ZM120.86 292.012C118.663 292.012 116.545 291.541 114.889 290.585H114.887L69.9528 264.664C67.9595 263.515 66.8164 261.727 66.8164 259.762C66.8164 257.561 68.2408 255.475 70.7275 254.043L114.113 229.015C118.129 226.697 123.85 226.506 127.424 228.569L172.357 254.489C174.351 255.638 175.494 257.425 175.495 259.392C175.495 261.593 174.071 263.678 171.585 265.112L128.199 290.139C126.045 291.381 123.401 292.012 120.86 292.012Z" fill="#E6E8EB"/>
<path d="M172.931 243.51V228.02L138.167 228L126.15 221.068C123.393 219.478 118.576 219.677 115.391 221.514L104.18 227.982L69.3835 227.962V243.892C69.3067 244.969 69.9069 246.009 71.231 246.772L116.166 272.692C118.923 274.282 123.739 274.083 126.925 272.246L170.312 247.22C172.147 246.16 173.034 244.788 172.931 243.51Z" fill="#4067B1"/>
<path d="M121.159 220.003C119.141 220.052 117.046 220.561 115.391 221.514L104.18 227.982L69.3835 227.962V243.892C69.3067 244.969 69.9069 246.009 71.231 246.772L116.166 272.692C117.491 273.457 119.292 273.803 121.159 273.758V220.003Z" fill="url(#paint20_radial_258_11284)"/>
<path d="M73.3232 227.965L69.3835 227.963V243.893C69.3067 244.97 69.9069 246.01 71.231 246.773L73.3232 247.98V227.965Z" fill="#CFE4F0"/>
<path d="M116.855 273.03C119.234 274.048 122.675 273.993 125.456 272.932V254.844H116.855V273.03Z" fill="#5F92D3"/>
<path d="M116.165 256.817L71.2305 230.897C68.473 229.306 68.8193 226.526 72.0039 224.69L115.39 199.663C118.575 197.826 123.392 197.627 126.15 199.217L171.083 225.137C173.841 226.728 173.494 229.507 170.311 231.345L126.925 256.371C123.739 258.208 118.923 258.407 116.165 256.817Z" fill="url(#paint21_linear_258_11284)"/>
<path d="M170.31 228.296L126.924 253.322C123.738 255.159 118.922 255.358 116.164 253.768L71.2297 227.848C70.6165 227.494 70.1634 227.078 69.8548 226.629C68.907 228.151 69.3366 229.805 71.2297 230.897L116.164 256.817C118.922 258.407 123.738 258.208 126.924 256.371L170.31 231.345C172.784 229.916 173.537 227.922 172.457 226.357C172.026 227.052 171.308 227.719 170.31 228.296Z" fill="#E6E8EB"/>
<path d="M156.403 247.597C156.403 248.752 155.591 250.158 154.588 250.737C153.586 251.315 152.773 250.846 152.773 249.69C152.773 248.533 153.586 247.127 154.588 246.55C155.591 245.972 156.403 246.44 156.403 247.597Z" fill="#CFE4F0"/>
<path d="M162.241 244.228C162.241 245.386 161.429 246.791 160.426 247.37C159.425 247.947 158.611 247.479 158.611 246.321C158.611 245.166 159.425 243.76 160.426 243.181C161.429 242.604 162.241 243.072 162.241 244.228Z" fill="#CFE4F0"/>
<path d="M168.081 240.859C168.081 242.015 167.269 243.421 166.266 243.999C165.264 244.576 164.451 244.108 164.451 242.952C164.451 241.796 165.264 240.39 166.266 239.811C167.269 239.234 168.081 239.701 168.081 240.859Z" fill="#CFE4F0"/>
<path d="M118.821 240.748L97.7956 228.619C96.5041 227.875 96.6668 226.574 98.1562 225.714L118.459 214.003C119.948 213.143 122.203 213.049 123.494 213.793L144.52 225.924C145.812 226.668 145.651 227.968 144.16 228.827L123.856 240.54C122.366 241.398 120.111 241.492 118.821 240.748Z" fill="#5F92D3"/>
<path d="M120.837 230.59L117.928 228.912C117.748 228.809 117.771 228.631 117.978 228.511L120.786 226.891C120.992 226.772 121.304 226.759 121.483 226.862L124.391 228.54C124.571 228.642 124.549 228.823 124.342 228.942L121.532 230.562C121.326 230.681 121.015 230.694 120.837 230.59Z" fill="#CFE4F0"/>
<path d="M97.7956 228.619L97.8555 228.652L98.1562 228.446L118.459 216.733C119.948 215.874 122.203 215.781 123.494 216.525L144.461 228.62C145.652 227.769 145.713 226.611 144.52 225.923L123.494 213.793C122.203 213.049 119.948 213.143 118.459 214.002L98.1562 225.714C96.6668 226.574 96.5041 227.874 97.7956 228.619Z" fill="#4067B1"/>
<defs>
<radialGradient id="paint0_radial_258_11284" cx="0" cy="0" r="1" gradientUnits="userSpaceOnUse" gradientTransform="translate(118.375 339.363) scale(43.8355 43.7972)">
<stop stop-color="#2E4B8D"/>
<stop offset="1" stop-color="#263C7B"/>
</radialGradient>
<linearGradient id="paint1_linear_258_11284" x1="91.748" y1="323.468" x2="169.316" y2="323.468" gradientUnits="userSpaceOnUse">
<stop stop-color="#D9EFFB"/>
<stop offset="1" stop-color="#8DBAE5"/>
</linearGradient>
<radialGradient id="paint2_radial_258_11284" cx="0" cy="0" r="1" gradientUnits="userSpaceOnUse" gradientTransform="translate(55.353 294.041) scale(79.2364 79.1672)">
<stop stop-color="#6F9CD6"/>
<stop offset="1" stop-color="#4067B1"/>
</radialGradient>
<radialGradient id="paint3_radial_258_11284" cx="0" cy="0" r="1" gradientUnits="userSpaceOnUse" gradientTransform="translate(447.698 156.6) scale(43.8355 43.7972)">
<stop stop-color="#2E4B8D"/>
<stop offset="1" stop-color="#263C7B"/>
</radialGradient>
<linearGradient id="paint4_linear_258_11284" x1="421.066" y1="140.705" x2="498.634" y2="140.705" gradientUnits="userSpaceOnUse">
<stop stop-color="#D9EFFB"/>
<stop offset="1" stop-color="#8DBAE5"/>
</linearGradient>
<radialGradient id="paint5_radial_258_11284" cx="0" cy="0" r="1" gradientUnits="userSpaceOnUse" gradientTransform="translate(384.671 111.28) scale(79.2365 79.1673)">
<stop stop-color="#6F9CD6"/>
<stop offset="1" stop-color="#4067B1"/>
</radialGradient>
<radialGradient id="paint6_radial_258_11284" cx="0" cy="0" r="1" gradientUnits="userSpaceOnUse" gradientTransform="translate(447.698 339.363) scale(43.8355 43.7972)">
<stop stop-color="#2E4B8D"/>
<stop offset="1" stop-color="#263C7B"/>
</radialGradient>
<linearGradient id="paint7_linear_258_11284" x1="421.065" y1="323.468" x2="498.633" y2="323.468" gradientUnits="userSpaceOnUse">
<stop stop-color="#D9EFFB"/>
<stop offset="1" stop-color="#8DBAE5"/>
</linearGradient>
<radialGradient id="paint8_radial_258_11284" cx="0" cy="0" r="1" gradientUnits="userSpaceOnUse" gradientTransform="translate(384.671 294.041) scale(79.2365 79.1672)">
<stop stop-color="#6F9CD6"/>
<stop offset="1" stop-color="#4067B1"/>
</radialGradient>
<radialGradient id="paint9_radial_258_11284" cx="0" cy="0" r="1" gradientUnits="userSpaceOnUse" gradientTransform="translate(118.375 156.6) scale(43.8355 43.7972)">
<stop stop-color="#2E4B8D"/>
<stop offset="1" stop-color="#263C7B"/>
</radialGradient>
<linearGradient id="paint10_linear_258_11284" x1="91.748" y1="140.705" x2="169.316" y2="140.705" gradientUnits="userSpaceOnUse">
<stop stop-color="#D9EFFB"/>
<stop offset="1" stop-color="#8DBAE5"/>
</linearGradient>
<radialGradient id="paint11_radial_258_11284" cx="0" cy="0" r="1" gradientUnits="userSpaceOnUse" gradientTransform="translate(55.353 111.28) scale(79.2364 79.1673)">
<stop stop-color="#6F9CD6"/>
<stop offset="1" stop-color="#4067B1"/>
</radialGradient>
<radialGradient id="paint12_radial_258_11284" cx="0" cy="0" r="1" gradientUnits="userSpaceOnUse" gradientTransform="translate(254.454 150.895) scale(157.726 157.588)">
<stop stop-color="#4067B1"/>
<stop offset="1" stop-color="#2E4B8D"/>
</radialGradient>
<linearGradient id="paint13_linear_258_11284" x1="204.841" y1="39.0983" x2="351.845" y2="128.743" gradientUnits="userSpaceOnUse">
<stop stop-color="#D9EFFB"/>
<stop offset="1" stop-color="#8DBAE5"/>
</linearGradient>
<linearGradient id="paint14_linear_258_11284" x1="200.583" y1="168.738" x2="270.566" y2="157.898" gradientUnits="userSpaceOnUse">
<stop stop-color="#423A9C"/>
<stop offset="1" stop-color="#5746A5"/>
</linearGradient>
<linearGradient id="paint15_linear_258_11284" x1="200.583" y1="168.738" x2="270.566" y2="157.898" gradientUnits="userSpaceOnUse">
<stop stop-color="#423A9C"/>
<stop offset="1" stop-color="#5746A5"/>
</linearGradient>
<radialGradient id="paint16_radial_258_11284" cx="0" cy="0" r="1" gradientUnits="userSpaceOnUse" gradientTransform="translate(236.884 337.817) scale(56.7948 56.7452)">
<stop stop-color="#6F9CD6"/>
<stop offset="1" stop-color="#4067B1"/>
</radialGradient>
<linearGradient id="paint17_linear_258_11284" x1="247.608" y1="319.626" x2="336.531" y2="372.687" gradientUnits="userSpaceOnUse">
<stop stop-color="#D9EFFB"/>
<stop offset="0.842316" stop-color="#8DBAE5"/>
<stop offset="1" stop-color="#8DBAE5"/>
</linearGradient>
<radialGradient id="paint18_radial_258_11284" cx="0" cy="0" r="1" gradientUnits="userSpaceOnUse" gradientTransform="translate(401.554 223.455) scale(56.7948 56.7452)">
<stop stop-color="#6F9CD6"/>
<stop offset="1" stop-color="#4067B1"/>
</radialGradient>
<linearGradient id="paint19_linear_258_11284" x1="412.272" y1="205.258" x2="501.196" y2="258.319" gradientUnits="userSpaceOnUse">
<stop stop-color="#D9EFFB"/>
<stop offset="0.842316" stop-color="#8DBAE5"/>
<stop offset="1" stop-color="#8DBAE5"/>
</linearGradient>
<radialGradient id="paint20_radial_258_11284" cx="0" cy="0" r="1" gradientUnits="userSpaceOnUse" gradientTransform="translate(72.2309 223.455) scale(56.7948 56.7452)">
<stop stop-color="#6F9CD6"/>
<stop offset="1" stop-color="#4067B1"/>
</radialGradient>
<linearGradient id="paint21_linear_258_11284" x1="82.9508" y1="205.258" x2="171.874" y2="258.319" gradientUnits="userSpaceOnUse">
<stop stop-color="#D9EFFB"/>
<stop offset="0.842316" stop-color="#8DBAE5"/>
<stop offset="1" stop-color="#8DBAE5"/>
</linearGradient>
</defs>
</svg>
